  0
SECTION
  2
HEADER
  9
$ACADVER
  1
AC1009
  9
$EXTMIN
 10
0.0
 20
0.0
 30
0.0
  9
$EXTMAX
 10
1000.0
 20
1000.0
 30
0.0
  9
$FILLMODE
 70
 0
  9
$SPLFRAME
 70
 1
  0
ENDSEC
  0
SECTION
  2
TABLES
  0
TABLE
  2
LAYER
 70
1
  0
LAYER
  2
0
 70
     0
 62
     7
  6
CONTINUOUS
  0
ENDTAB
  0
ENDSEC
  0
SECTION
  2
ENTITIES
  0
POLYLINE
  8
0
 62
     0
 66
     1
 10
0
 20
0
 30
0.0
 40
0.7125
 41
0.7125
  0
VERTEX
  8
0
 10
7.87744
 20
1.53217
 30
0.0
 40
0.00989583
 41
0.00989583
  0
VERTEX
  8
0
 10
7.87744
 20
8.39854
 30
0.0
 40
0.00989583
 41
0.00989583
  0
SEQEND
 8
0
  0
POLYLINE
  8
0
 62
     0
 66
     1
 10
0
 20
0
 30
0.0
 40
0.7125
 41
0.7125
  0
VERTEX
  8
0
 10
7.87744
 20
8.39854
 30
0.0
 40
0.00989583
 41
0.00989583
  0
VERTEX
  8
0
 10
7.73915
 20
8.39854
 30
0.0
 40
0.00989583
 41
0.00989583
  0
SEQEND
 8
0
  0
POLYLINE
  8
0
 62
     0
 66
     1
 10
0
 20
0
 30
0.0
 40
0.7125
 41
0.7125
  0
VERTEX
  8
0
 10
7.73915
 20
8.39854
 30
0.0
 40
0.00989583
 41
0.00989583
  0
VERTEX
  8
0
 10
7.73915
 20
9.18892
 30
0.0
 40
0.00989583
 41
0.00989583
  0
SEQEND
 8
0
  0
POLYLINE
  8
0
 62
     0
 66
     1
 10
0
 20
0
 30
0.0
 40
0.7125
 41
0.7125
  0
VERTEX
  8
0
 10
7.73915
 20
9.18892
 30
0.0
 40
0.00989583
 41
0.00989583
  0
VERTEX
  8
0
 10
7.38346
 20
9.18892
 30
0.0
 40
0.00989583
 41
0.00989583
  0
SEQEND
 8
0
  0
POLYLINE
  8
0
 62
     0
 66
     1
 10
0
 20
0
 30
0.0
 40
0.7125
 41
0.7125
  0
VERTEX
  8
0
 10
7.38346
 20
9.18892
 30
0.0
 40
0.00989583
 41
0.00989583
  0
VERTEX
  8
0
 10
7.38346
 20
10.2362
 30
0.0
 40
0.00989583
 41
0.00989583
  0
SEQEND
 8
0
  0
POLYLINE
  8
0
 62
     0
 66
     1
 10
0
 20
0
 30
0.0
 40
0.7125
 41
0.7125
  0
VERTEX
  8
0
 10
0.418294
 20
1.53217
 30
0.0
 40
0.00989583
 41
0.00989583
  0
VERTEX
  8
0
 10
7.87744
 20
1.53217
 30
0.0
 40
0.00989583
 41
0.00989583
  0
SEQEND
 8
0
  0
POLYLINE
  8
0
 62
     0
 66
     1
 10
0
 20
0
 30
0.0
 40
0.7125
 41
0.7125
  0
VERTEX
  8
0
 10
0.418294
 20
1.53217
 30
0.0
 40
0.00989583
 41
0.00989583
  0
VERTEX
  8
0
 10
0.418294
 20
9.18892
 30
0.0
 40
0.00989583
 41
0.00989583
  0
SEQEND
 8
0
  0
POLYLINE
  8
0
 62
     0
 66
     1
 10
0
 20
0
 30
0.0
 40
0.7125
 41
0.7125
  0
VERTEX
  8
0
 10
0.418294
 20
9.18892
 30
0.0
 40
0.00989583
 41
0.00989583
  0
VERTEX
  8
0
 10
1.28771
 20
9.18892
 30
0.0
 40
0.00989583
 41
0.00989583
  0
SEQEND
 8
0
  0
POLYLINE
  8
0
 62
     0
 66
     1
 10
0
 20
0
 30
0.0
 40
0.7125
 41
0.7125
  0
VERTEX
  8
0
 10
7.38346
 20
10.2362
 30
0.0
 40
0.00989583
 41
0.00989583
  0
VERTEX
  8
0
 10
1.28771
 20
10.2362
 30
0.0
 40
0.00989583
 41
0.00989583
  0
SEQEND
 8
0
  0
POLYLINE
  8
0
 62
     0
 66
     1
 10
0
 20
0
 30
0.0
 40
0.7125
 41
0.7125
  0
VERTEX
  8
0
 10
1.28771
 20
9.18892
 30
0.0
 40
0.00989583
 41
0.00989583
  0
VERTEX
  8
0
 10
1.28771
 20
10.2362
 30
0.0
 40
0.00989583
 41
0.00989583
  0
SEQEND
 8
0
  0
POLYLINE
  8
0
 62
     0
 66
     1
 10
0
 20
0
 30
0.0
 40
0.7125
 41
0.7125
  0
VERTEX
  8
0
 10
8.07503
 20
10.4337
 30
0.0
 40
0.00989583
 41
0.00989583
  0
VERTEX
  8
0
 10
0.220703
 20
10.4337
 30
0.0
 40
0.00989583
 41
0.00989583
  0
SEQEND
 8
0
  0
POLYLINE
  8
0
 62
     0
 66
     1
 10
0
 20
0
 30
0.0
 40
0.7125
 41
0.7125
  0
VERTEX
  8
0
 10
8.07503
 20
1.33458
 30
0.0
 40
0.00989583
 41
0.00989583
  0
VERTEX
  8
0
 10
8.07503
 20
10.4337
 30
0.0
 40
0.00989583
 41
0.00989583
  0
SEQEND
 8
0
  0
POLYLINE
  8
0
 62
     0
 66
     1
 10
0
 20
0
 30
0.0
 40
0.7125
 41
0.7125
  0
VERTEX
  8
0
 10
0.220703
 20
1.33458
 30
0.0
 40
0.00989583
 41
0.00989583
  0
VERTEX
  8
0
 10
8.07503
 20
1.33458
 30
0.0
 40
0.00989583
 41
0.00989583
  0
SEQEND
 8
0
  0
POLYLINE
  8
0
 62
     0
 66
     1
 10
0
 20
0
 30
0.0
 40
0.7125
 41
0.7125
  0
VERTEX
  8
0
 10
0.220703
 20
1.33458
 30
0.0
 40
0.00989583
 41
0.00989583
  0
VERTEX
  8
0
 10
0.220703
 20
10.4337
 30
0.0
 40
0.00989583
 41
0.00989583
  0
SEQEND
 8
0
  0
POLYLINE
  8
0
 62
     253
 66
     1
 10
0
 20
0
 30
0.0
 40
0.7125
 41
0.7125
  0
VERTEX
  8
0
 10
7.12657
 20
1.61122
 30
0.0
 40
0.00989583
 41
0.00989583
  0
VERTEX
  8
0
 10
5.42731
 20
1.61122
 30
0.0
 40
0.00989583
 41
0.00989583
  0
SEQEND
 8
0
  0
POLYLINE
  8
0
 62
     253
 66
     1
 10
0
 20
0
 30
0.0
 40
0.7125
 41
0.7125
  0
VERTEX
  8
0
 10
7.12657
 20
1.61122
 30
0.0
 40
0.00989583
 41
0.00989583
  0
VERTEX
  8
0
 10
7.12657
 20
1.65468
 30
0.0
 40
0.00989583
 41
0.00989583
  0
VERTEX
  8
0
 10
7.11778
 20
1.785
 30
0.0
 40
0.00989583
 41
0.00989583
  0
VERTEX
  8
0
 10
7.09201
 20
1.95372
 30
0.0
 40
0.00989583
 41
0.00989583
  0
VERTEX
  8
0
 10
7.05013
 20
2.11654
 30
0.0
 40
0.00989583
 41
0.00989583
  0
VERTEX
  8
0
 10
6.993
 20
2.27268
 30
0.0
 40
0.00989583
 41
0.00989583
  0
VERTEX
  8
0
 10
6.92144
 20
2.42122
 30
0.0
 40
0.00989583
 41
0.00989583
  0
VERTEX
  8
0
 10
6.83632
 20
2.56131
 30
0.0
 40
0.00989583
 41
0.00989583
  0
VERTEX
  8
0
 10
6.7385
 20
2.69217
 30
0.0
 40
0.00989583
 41
0.00989583
  0
VERTEX
  8
0
 10
6.62885
 20
2.81282
 30
0.0
 40
0.00989583
 41
0.00989583
  0
VERTEX
  8
0
 10
6.50819
 20
2.92247
 30
0.0
 40
0.00989583
 41
0.00989583
  0
VERTEX
  8
0
 10
6.37733
 20
3.02029
 30
0.0
 40
0.00989583
 41
0.00989583
  0
VERTEX
  8
0
 10
6.23725
 20
3.10542
 30
0.0
 40
0.00989583
 41
0.00989583
  0
VERTEX
  8
0
 10
6.08871
 20
3.17697
 30
0.0
 40
0.00989583
 41
0.00989583
  0
VERTEX
  8
0
 10
5.93257
 20
3.2341
 30
0.0
 40
0.00989583
 41
0.00989583
  0
VERTEX
  8
0
 10
5.76975
 20
3.27599
 30
0.0
 40
0.00989583
 41
0.00989583
  0
VERTEX
  8
0
 10
5.60101
 20
3.30176
 30
0.0
 40
0.00989583
 41
0.00989583
  0
VERTEX
  8
0
 10
5.47071
 20
3.31049
 30
0.0
 40
0.00989583
 41
0.00989583
  0
VERTEX
  8
0
 10
5.42731
 20
3.31049
 30
0.0
 40
0.00989583
 41
0.00989583
  0
SEQEND
 8
0
  0
POLYLINE
  8
0
 62
     253
 66
     1
 10
0
 20
0
 30
0.0
 40
0.7125
 41
0.7125
  0
VERTEX
  8
0
 10
5.42731
 20
3.31049
 30
0.0
 40
0.00989583
 41
0.00989583
  0
VERTEX
  8
0
 10
5.42731
 20
1.61122
 30
0.0
 40
0.00989583
 41
0.00989583
  0
SEQEND
 8
0
  0
POLYLINE
  8
0
 62
     253
 66
     1
 10
0
 20
0
 30
0.0
 40
0.7125
 41
0.7125
  0
VERTEX
  8
0
 10
5.42731
 20
1.61122
 30
0.0
 40
0.00989583
 41
0.00989583
  0
VERTEX
  8
0
 10
5.30875
 20
1.61122
 30
0.0
 40
0.00989583
 41
0.00989583
  0
SEQEND
 8
0
  0
POLYLINE
  8
0
 62
     253
 66
     1
 10
0
 20
0
 30
0.0
 40
0.7125
 41
0.7125
  0
VERTEX
  8
0
 10
7.12657
 20
1.61122
 30
0.0
 40
0.00989583
 41
0.00989583
  0
VERTEX
  8
0
 10
7.24517
 20
1.61122
 30
0.0
 40
0.00989583
 41
0.00989583
  0
SEQEND
 8
0
  0
POLYLINE
  8
0
 62
     253
 66
     1
 10
0
 20
0
 30
0.0
 40
0.7125
 41
0.7125
  0
VERTEX
  8
0
 10
5.30875
 20
1.61122
 30
0.0
 40
0.00989583
 41
0.00989583
  0
VERTEX
  8
0
 10
5.30875
 20
1.53217
 30
0.0
 40
0.00989583
 41
0.00989583
  0
SEQEND
 8
0
  0
POLYLINE
  8
0
 62
     253
 66
     1
 10
0
 20
0
 30
0.0
 40
0.7125
 41
0.7125
  0
VERTEX
  8
0
 10
7.24517
 20
1.53217
 30
0.0
 40
0.00989583
 41
0.00989583
  0
VERTEX
  8
0
 10
5.30875
 20
1.53217
 30
0.0
 40
0.00989583
 41
0.00989583
  0
SEQEND
 8
0
  0
POLYLINE
  8
0
 62
     253
 66
     1
 10
0
 20
0
 30
0.0
 40
0.7125
 41
0.7125
  0
VERTEX
  8
0
 10
7.24517
 20
1.61122
 30
0.0
 40
0.00989583
 41
0.00989583
  0
VERTEX
  8
0
 10
7.24517
 20
1.53217
 30
0.0
 40
0.00989583
 41
0.00989583
  0
SEQEND
 8
0
  0
POLYLINE
  8
0
 62
     253
 66
     1
 10
0
 20
0
 30
0.0
 40
0.7125
 41
0.7125
  0
VERTEX
  8
0
 10
7.38346
 20
10.2362
 30
0.0
 40
0.00989583
 41
0.00989583
  0
VERTEX
  8
0
 10
7.28467
 20
10.2362
 30
0.0
 40
0.00989583
 41
0.00989583
  0
SEQEND
 8
0
  0
POLYLINE
  8
0
 62
     253
 66
     1
 10
0
 20
0
 30
0.0
 40
0.7125
 41
0.7125
  0
VERTEX
  8
0
 10
7.28467
 20
10.2362
 30
0.0
 40
0.00989583
 41
0.00989583
  0
VERTEX
  8
0
 10
5.37788
 20
10.2362
 30
0.0
 40
0.00989583
 41
0.00989583
  0
SEQEND
 8
0
  0
POLYLINE
  8
0
 62
     253
 66
     1
 10
0
 20
0
 30
0.0
 40
0.7125
 41
0.7125
  0
VERTEX
  8
0
 10
7.28467
 20
10.2362
 30
0.0
 40
0.00989583
 41
0.00989583
  0
VERTEX
  8
0
 10
7.28467
 20
8.32938
 30
0.0
 40
0.00989583
 41
0.00989583
  0
SEQEND
 8
0
  0
POLYLINE
  8
0
 62
     253
 66
     1
 10
0
 20
0
 30
0.0
 40
0.7125
 41
0.7125
  0
VERTEX
  8
0
 10
5.37788
 20
10.2362
 30
0.0
 40
0.00989583
 41
0.00989583
  0
VERTEX
  8
0
 10
5.37788
 20
10.1891
 30
0.0
 40
0.00989583
 41
0.00989583
  0
VERTEX
  8
0
 10
5.38715
 20
10.0477
 30
0.0
 40
0.00989583
 41
0.00989583
  0
VERTEX
  8
0
 10
5.41482
 20
9.86247
 30
0.0
 40
0.00989583
 41
0.00989583
  0
VERTEX
  8
0
 10
5.46029
 20
9.68158
 30
0.0
 40
0.00989583
 41
0.00989583
  0
VERTEX
  8
0
 10
5.523
 20
9.50646
 30
0.0
 40
0.00989583
 41
0.00989583
  0
VERTEX
  8
0
 10
5.60249
 20
9.33826
 30
0.0
 40
0.00989583
 41
0.00989583
  0
VERTEX
  8
0
 10
5.69819
 20
9.17828
 30
0.0
 40
0.00989583
 41
0.00989583
  0
VERTEX
  8
0
 10
5.80968
 20
9.02772
 30
0.0
 40
0.00989583
 41
0.00989583
  0
VERTEX
  8
0
 10
5.90306
 20
8.92117
 30
0.0
 40
0.00989583
 41
0.00989583
  0
VERTEX
  8
0
 10
5.93636
 20
8.88786
 30
0.0
 40
0.00989583
 41
0.00989583
  0
VERTEX
  8
0
 10
5.96962
 20
8.8546
 30
0.0
 40
0.00989583
 41
0.00989583
  0
VERTEX
  8
0
 10
6.07617
 20
8.76124
 30
0.0
 40
0.00989583
 41
0.00989583
  0
VERTEX
  8
0
 10
6.22672
 20
8.64974
 30
0.0
 40
0.00989583
 41
0.00989583
  0
VERTEX
  8
0
 10
6.38678
 20
8.55404
 30
0.0
 40
0.00989583
 41
0.00989583
  0
VERTEX
  8
0
 10
6.55496
 20
8.47456
 30
0.0
 40
0.00989583
 41
0.00989583
  0
VERTEX
  8
0
 10
6.73008
 20
8.41183
 30
0.0
 40
0.00989583
 41
0.00989583
  0
VERTEX
  8
0
 10
6.91092
 20
8.36638
 30
0.0
 40
0.00989583
 41
0.00989583
  0
VERTEX
  8
0
 10
7.09619
 20
8.33871
 30
0.0
 40
0.00989583
 41
0.00989583
  0
VERTEX
  8
0
 10
7.23753
 20
8.32938
 30
0.0
 40
0.00989583
 41
0.00989583
  0
VERTEX
  8
0
 10
7.28467
 20
8.32938
 30
0.0
 40
0.00989583
 41
0.00989583
  0
SEQEND
 8
0
  0
POLYLINE
  8
0
 62
     253
 66
     1
 10
0
 20
0
 30
0.0
 40
0.7125
 41
0.7125
  0
VERTEX
  8
0
 10
5.26921
 20
8.79372
 30
0.0
 40
0.00989583
 41
0.00989583
  0
VERTEX
  8
0
 10
5.26921
 20
10.2362
 30
0.0
 40
0.00989583
 41
0.00989583
  0
SEQEND
 8
0
  0
POLYLINE
  8
0
 62
     253
 66
     1
 10
0
 20
0
 30
0.0
 40
0.7125
 41
0.7125
  0
VERTEX
  8
0
 10
6.92899
 20
8.79372
 30
0.0
 40
0.00989583
 41
0.00989583
  0
VERTEX
  8
0
 10
5.26921
 20
8.79372
 30
0.0
 40
0.00989583
 41
0.00989583
  0
SEQEND
 8
0
  0
POLYLINE
  8
0
 62
     253
 66
     1
 10
0
 20
0
 30
0.0
 40
0.7125
 41
0.7125
  0
VERTEX
  8
0
 10
6.92899
 20
8.79372
 30
0.0
 40
0.00989583
 41
0.00989583
  0
VERTEX
  8
0
 10
6.92899
 20
10.2362
 30
0.0
 40
0.00989583
 41
0.00989583
  0
SEQEND
 8
0
  0
POLYLINE
  8
0
 62
     253
 66
     1
 10
0
 20
0
 30
0.0
 70
     1
 40
0.7125
 41
0.7125
  0
VERTEX
  8
0
 10
0.793728
 20
9.05057
 30
0.0
 40
0.00989583
 41
0.00989583
  0
VERTEX
  8
0
 10
0.793728
 20
9.05925
 30
0.0
 40
0.00989583
 41
0.00989583
  0
VERTEX
  8
0
 10
0.786729
 20
9.08518
 30
0.0
 40
0.00989583
 41
0.00989583
  0
VERTEX
  8
0
 10
0.767632
 20
9.11344
 30
0.0
 40
0.00989583
 41
0.00989583
  0
VERTEX
  8
0
 10
0.739367
 20
9.13254
 30
0.0
 40
0.00989583
 41
0.00989583
  0
VERTEX
  8
0
 10
0.713433
 20
9.13949
 30
0.0
 40
0.00989583
 41
0.00989583
  0
VERTEX
  8
0
 10
0.704807
 20
9.13949
 30
0.0
 40
0.00989583
 41
0.00989583
  0
VERTEX
  8
0
 10
0.696126
 20
9.13949
 30
0.0
 40
0.00989583
 41
0.00989583
  0
VERTEX
  8
0
 10
0.670193
 20
9.13254
 30
0.0
 40
0.00989583
 41
0.00989583
  0
VERTEX
  8
0
 10
0.641928
 20
9.11344
 30
0.0
 40
0.00989583
 41
0.00989583
  0
VERTEX
  8
0
 10
0.622831
 20
9.08518
 30
0.0
 40
0.00989583
 41
0.00989583
  0
VERTEX
  8
0
 10
0.615886
 20
9.05925
 30
0.0
 40
0.00989583
 41
0.00989583
  0
VERTEX
  8
0
 10
0.615886
 20
9.05057
 30
0.0
 40
0.00989583
 41
0.00989583
  0
VERTEX
  8
0
 10
0.615886
 20
9.0421
 30
0.0
 40
0.00989583
 41
0.00989583
  0
VERTEX
  8
0
 10
0.622612
 20
9.0166
 30
0.0
 40
0.00989583
 41
0.00989583
  0
VERTEX
  8
0
 10
0.63775
 20
8.99186
 30
0.0
 40
0.00989583
 41
0.00989583
  0
VERTEX
  8
0
 10
0.641928
 20
8.98768
 30
0.0
 40
0.00989583
 41
0.00989583
  0
VERTEX
  8
0
 10
0.646104
 20
8.98356
 30
0.0
 40
0.00989583
 41
0.00989583
  0
VERTEX
  8
0
 10
0.67079
 20
8.96843
 30
0.0
 40
0.00989583
 41
0.00989583
  0
VERTEX
  8
0
 10
0.696289
 20
8.96164
 30
0.0
 40
0.00989583
 41
0.00989583
  0
VERTEX
  8
0
 10
0.704807
 20
8.96164
 30
0.0
 40
0.00989583
 41
0.00989583
  0
VERTEX
  8
0
 10
0.713271
 20
8.96164
 30
0.0
 40
0.00989583
 41
0.00989583
  0
VERTEX
  8
0
 10
0.738824
 20
8.96843
 30
0.0
 40
0.00989583
 41
0.00989583
  0
VERTEX
  8
0
 10
0.76351
 20
8.98356
 30
0.0
 40
0.00989583
 41
0.00989583
  0
VERTEX
  8
0
 10
0.767686
 20
8.98768
 30
0.0
 40
0.00989583
 41
0.00989583
  0
VERTEX
  8
0
 10
0.77181
 20
8.99186
 30
0.0
 40
0.00989583
 41
0.00989583
  0
VERTEX
  8
0
 10
0.786947
 20
9.0166
 30
0.0
 40
0.00989583
 41
0.00989583
  0
VERTEX
  8
0
 10
0.793728
 20
9.0421
 30
0.0
 40
0.00989583
 41
0.00989583
  0
VERTEX
  8
0
 10
0.793728
 20
9.05057
 30
0.0
 40
0.00989583
 41
0.00989583
  0
SEQEND
 8
0
  0
POLYLINE
  8
0
 62
     253
 66
     1
 10
0
 20
0
 30
0.0
 70
     1
 40
0.7125
 41
0.7125
  0
VERTEX
  8
0
 10
1.02094
 20
9.05057
 30
0.0
 40
0.00989583
 41
0.00989583
  0
VERTEX
  8
0
 10
1.02094
 20
9.05647
 30
0.0
 40
0.00989583
 41
0.00989583
  0
VERTEX
  8
0
 10
1.01421
 20
9.08464
 30
0.0
 40
0.00989583
 41
0.00989583
  0
VERTEX
  8
0
 10
0.999078
 20
9.10932
 30
0.0
 40
0.00989583
 41
0.00989583
  0
VERTEX
  8
0
 10
0.994954
 20
9.1135
 30
0.0
 40
0.00989583
 41
0.00989583
  0
VERTEX
  8
0
 10
0.990776
 20
9.11768
 30
0.0
 40
0.00989583
 41
0.00989583
  0
VERTEX
  8
0
 10
0.966038
 20
9.13282
 30
0.0
 40
0.00989583
 41
0.00989583
  0
VERTEX
  8
0
 10
0.940539
 20
9.13954
 30
0.0
 40
0.00989583
 41
0.00989583
  0
VERTEX
  8
0
 10
0.932075
 20
9.13954
 30
0.0
 40
0.00989583
 41
0.00989583
  0
VERTEX
  8
0
 10
0.923557
 20
9.13954
 30
0.0
 40
0.00989583
 41
0.00989583
  0
VERTEX
  8
0
 10
0.898004
 20
9.13282
 30
0.0
 40
0.00989583
 41
0.00989583
  0
VERTEX
  8
0
 10
0.873318
 20
9.11768
 30
0.0
 40
0.00989583
 41
0.00989583
  0
VERTEX
  8
0
 10
0.86914
 20
9.1135
 30
0.0
 40
0.00989583
 41
0.00989583
  0
VERTEX
  8
0
 10
0.864963
 20
9.10932
 30
0.0
 40
0.00989583
 41
0.00989583
  0
VERTEX
  8
0
 10
0.849881
 20
9.08464
 30
0.0
 40
0.00989583
 41
0.00989583
  0
VERTEX
  8
0
 10
0.843099
 20
9.05647
 30
0.0
 40
0.00989583
 41
0.00989583
  0
VERTEX
  8
0
 10
0.843153
 20
9.05057
 30
0.0
 40
0.00989583
 41
0.00989583
  0
VERTEX
  8
0
 10
0.843099
 20
9.04471
 30
0.0
 40
0.00989583
 41
0.00989583
  0
VERTEX
  8
0
 10
0.849881
 20
9.01654
 30
0.0
 40
0.00989583
 41
0.00989583
  0
VERTEX
  8
0
 10
0.864963
 20
8.99186
 30
0.0
 40
0.00989583
 41
0.00989583
  0
VERTEX
  8
0
 10
0.86914
 20
8.98768
 30
0.0
 40
0.00989583
 41
0.00989583
  0
VERTEX
  8
0
 10
0.873318
 20
8.98351
 30
0.0
 40
0.00989583
 41
0.00989583
  0
VERTEX
  8
0
 10
0.898004
 20
8.96843
 30
0.0
 40
0.00989583
 41
0.00989583
  0
VERTEX
  8
0
 10
0.923557
 20
8.96164
 30
0.0
 40
0.00989583
 41
0.00989583
  0
VERTEX
  8
0
 10
0.932075
 20
8.96164
 30
0.0
 40
0.00989583
 41
0.00989583
  0
VERTEX
  8
0
 10
0.940539
 20
8.96164
 30
0.0
 40
0.00989583
 41
0.00989583
  0
VERTEX
  8
0
 10
0.966038
 20
8.96843
 30
0.0
 40
0.00989583
 41
0.00989583
  0
VERTEX
  8
0
 10
0.990776
 20
8.98351
 30
0.0
 40
0.00989583
 41
0.00989583
  0
VERTEX
  8
0
 10
0.994954
 20
8.98768
 30
0.0
 40
0.00989583
 41
0.00989583
  0
VERTEX
  8
0
 10
0.999078
 20
8.99186
 30
0.0
 40
0.00989583
 41
0.00989583
  0
VERTEX
  8
0
 10
1.01421
 20
9.01654
 30
0.0
 40
0.00989583
 41
0.00989583
  0
VERTEX
  8
0
 10
1.02094
 20
9.04471
 30
0.0
 40
0.00989583
 41
0.00989583
  0
VERTEX
  8
0
 10
1.02094
 20
9.05057
 30
0.0
 40
0.00989583
 41
0.00989583
  0
SEQEND
 8
0
  0
POLYLINE
  8
0
 62
     253
 66
     1
 10
0
 20
0
 30
0.0
 40
0.7125
 41
0.7125
  0
VERTEX
  8
0
 10
1.93978
 20
8.97151
 30
0.0
 40
0.00989583
 41
0.00989583
  0
VERTEX
  8
0
 10
1.93978
 20
9.18892
 30
0.0
 40
0.00989583
 41
0.00989583
  0
SEQEND
 8
0
  0
POLYLINE
  8
0
 62
     253
 66
     1
 10
0
 20
0
 30
0.0
 40
0.7125
 41
0.7125
  0
VERTEX
  8
0
 10
1.93978
 20
9.18892
 30
0.0
 40
0.00989583
 41
0.00989583
  0
VERTEX
  8
0
 10
3.42171
 20
9.18892
 30
0.0
 40
0.00989583
 41
0.00989583
  0
SEQEND
 8
0
  0
POLYLINE
  8
0
 62
     253
 66
     1
 10
0
 20
0
 30
0.0
 40
0.7125
 41
0.7125
  0
VERTEX
  8
0
 10
1.93978
 20
8.97151
 30
0.0
 40
0.00989583
 41
0.00989583
  0
VERTEX
  8
0
 10
3.42171
 20
8.97151
 30
0.0
 40
0.00989583
 41
0.00989583
  0
SEQEND
 8
0
  0
POLYLINE
  8
0
 62
     253
 66
     1
 10
0
 20
0
 30
0.0
 40
0.7125
 41
0.7125
  0
VERTEX
  8
0
 10
3.42171
 20
8.97151
 30
0.0
 40
0.00989583
 41
0.00989583
  0
VERTEX
  8
0
 10
3.42171
 20
9.18892
 30
0.0
 40
0.00989583
 41
0.00989583
  0
SEQEND
 8
0
  0
ENDSEC
  0
EOF
