999
dxfrw 0.6.3
  0
SECTION
  2
HEADER
  9
$ACADVER
  1
AC1021
  9
$DWGCODEPAGE
  3
ANSI_1252
  9
$INSBASE
 10
0
 20
0
 30
0
  9
$EXTMIN
 10
-410.5506085909464
 20
-4259.857457504435
 30
0
  9
$EXTMAX
 10
10905.75323562268
 20
8775.142542495561
 30
0
  9
$LIMMIN
 10
0
 20
0
  9
$LIMMAX
 10
420
 20
297
  9
$ORTHOMODE
 70
    0
  9
$REGENMODE
 70
    1
  9
$FILLMODE
 70
    1
  9
$QTEXTMODE
 70
    0
  9
$MIRRTEXT
 70
    0
  9
$LTSCALE
 40
1
  9
$ATTMODE
 70
    0
  9
$TEXTSIZE
 40
2.5
  9
$TRACEWID
 40
15.68
  9
$TEXTSTYLE
  7
STANDARD
  9
$CLAYER
  8
0
  9
$CELTYPE
  6
BYLAYER
  9
$CECOLOR
 62
  256
  9
$CELTSCALE
 40
1
  9
$DISPSILH
 70
    0
  9
$DIMSCALE
 40
20
  9
$DIMASZ
 40
2.5
  9
$DIMEXO
 40
0.625
  9
$DIMDLI
 40
3.75
  9
$DIMRND
 40
0
  9
$DIMDLE
 40
0
  9
$DIMEXE
 40
1.25
  9
$DIMTP
 40
0
  9
$DIMTM
 40
0
  9
$DIMTXT
 40
5
  9
$DIMCEN
 40
2.5
  9
$DIMTSZ
 40
5
  9
$DIMTOL
 70
    0
  9
$DIMLIM
 70
    0
  9
$DIMTIH
 70
    0
  9
$DIMTOH
 70
    0
  9
$DIMSE1
 70
    0
  9
$DIMSE2
 70
    0
  9
$DIMTAD
 70
    1
  9
$DIMZIN
 70
    8
  9
$DIMBLK
  1

  9
$DIMASO
 70
    1
  9
$DIMSHO
 70
    1
  9
$DIMPOST
  1

  9
$DIMAPOST
  1

  9
$DIMALT
 70
    0
  9
$DIMALTD
 70
    3
  9
$DIMALTF
 40
0.03937
  9
$DIMLFAC
 40
1
  9
$DIMTOFL
 70
    1
  9
$DIMTVP
 40
0
  9
$DIMTIX
 70
    0
  9
$DIMSOXD
 70
    0
  9
$DIMSAH
 70
    0
  9
$DIMBLK1
  1

  9
$DIMBLK2
  1

  9
$DIMSTYLE
  2
STANDARD
  9
$DIMCLRD
 70
    0
  9
$DIMCLRE
 70
    0
  9
$DIMCLRT
 70
    0
  9
$DIMTFAC
 40
1
  9
$DIMGAP
 40
0.625
  9
$DIMJUST
 70
    0
  9
$DIMSD1
 70
    0
  9
$DIMSD2
 70
    0
  9
$DIMTOLJ
 70
    0
  9
$DIMTZIN
 70
    8
  9
$DIMALTZ
 70
    0
  9
$DIMALTTZ
 70
    0
  9
$DIMUPT
 70
    0
  9
$DIMDEC
 70
    2
  9
$DIMTDEC
 70
    2
  9
$DIMALTU
 70
    2
  9
$DIMALTTD
 70
    3
  9
$DIMTXSTY
  7
standard
  9
$DIMAUNIT
 70
    0
  9
$DIMADEC
 70
    0
  9
$DIMALTRND
 40
0
  9
$DIMAZIN
 70
    0
  9
$DIMDSEP
 70
   44
  9
$DIMATFIT
 70
    3
  9
$DIMFRAC
 70
    0
  9
$DIMLDRBLK
  1
STANDARD
  9
$DIMLUNIT
 70
    2
  9
$DIMLWD
 70
   -2
  9
$DIMLWE
 70
   -2
  9
$DIMTMOVE
 70
    0
  9
$DIMFXL
 40
1
  9
$DIMFXLON
 70
    0
  9
$DIMJOGANG
 40
0.7854
  9
$DIMTFILL
 70
    0
  9
$DIMTFILLCLR
 70
    0
  9
$DIMARCSYM
 70
    0
  9
$DIMLTYPE
  6

  9
$DIMLTEX1
  6

  9
$DIMLTEX2
  6

  9
$LUNITS
 70
    2
  9
$LUPREC
 70
    0
  9
$SKETCHINC
 40
1
  9
$FILLETRAD
 40
0
  9
$AUNITS
 70
    0
  9
$AUPREC
 70
    2
  9
$MENU
  1
.
  9
$ELEVATION
 40
0
  9
$PELEVATION
 40
0
  9
$THICKNESS
 40
0
  9
$LIMCHECK
 70
    0
  9
$CHAMFERA
 40
0
  9
$CHAMFERB
 40
0
  9
$CHAMFERC
 40
0
  9
$CHAMFERD
 40
0
  9
$SKPOLY
 70
    0
  9
$USRTIMER
 70
    1
  9
$ANGBASE
 50
0
  9
$ANGDIR
 70
    0
  9
$PDMODE
 70
   34
  9
$PDSIZE
 40
0
  9
$PLINEWID
 40
0
  9
$SPLFRAME
 70
    0
  9
$SPLINETYPE
 70
    2
  9
$SPLINESEGS
 70
    8
  9
$HANDSEED
  5
20000
  9
$SURFTAB1
 70
    6
  9
$SURFTAB2
 70
    6
  9
$SURFTYPE
 70
    6
  9
$SURFU
 70
    6
  9
$SURFV
 70
    6
  9
$UCSBASE
  2

  9
$UCSNAME
  2

  9
$UCSORG
 10
0
 20
0
 30
0
  9
$UCSXDIR
 10
1
 20
0
 30
0
  9
$UCSYDIR
 10
0
 20
1
 30
0
  9
$UCSORTHOREF
  2

  9
$UCSORTHOVIEW
 70
    0
  9
$UCSORGTOP
 10
0
 20
0
 30
0
  9
$UCSORGBOTTOM
 10
0
 20
0
 30
0
  9
$UCSORGLEFT
 10
0
 20
0
 30
0
  9
$UCSORGRIGHT
 10
0
 20
0
 30
0
  9
$UCSORGFRONT
 10
0
 20
0
 30
0
  9
$UCSORGBACK
 10
0
 20
0
 30
0
  9
$PUCSBASE
  2

  9
$PUCSNAME
  2

  9
$PUCSORG
 10
0
 20
0
 30
0
  9
$PUCSXDIR
 10
1
 20
0
 30
0
  9
$PUCSYDIR
 10
0
 20
1
 30
0
  9
$PUCSORTHOREF
  2

  9
$PUCSORTHOVIEW
 70
    0
  9
$PUCSORGTOP
 10
0
 20
0
 30
0
  9
$PUCSORGBOTTOM
 10
0
 20
0
 30
0
  9
$PUCSORGLEFT
 10
0
 20
0
 30
0
  9
$PUCSORGRIGHT
 10
0
 20
0
 30
0
  9
$PUCSORGFRONT
 10
0
 20
0
 30
0
  9
$PUCSORGBACK
 10
0
 20
0
 30
0
  9
$USERI1
 70
    0
  9
$USERI2
 70
    0
  9
$USERI3
 70
    0
  9
$USERI4
 70
    0
  9
$USERI5
 70
    0
  9
$USERR1
 40
0
  9
$USERR2
 40
0
  9
$USERR3
 40
0
  9
$USERR4
 40
0
  9
$USERR5
 40
0
  9
$WORLDVIEW
 70
    1
  9
$SHADEDGE
 70
    3
  9
$SHADEDIF
 70
   70
  9
$TILEMODE
 70
    1
  9
$MAXACTVP
 70
   64
  9
$PINSBASE
 10
0
 20
0
 30
0
  9
$PLIMCHECK
 70
    0
  9
$PEXTMIN
 10
0
 20
0
 30
0
  9
$PEXTMAX
 10
0
 20
0
 30
0
  9
$GRIDMODE
 70
    1
  9
$SNAPSTYLE
 70
    0
  9
$GRIDUNIT
 10
0
 20
0
  9
$PLIMMIN
 10
0
 20
0
  9
$PLIMMAX
 10
297
 20
210
  9
$UNITMODE
 70
    0
  9
$VISRETAIN
 70
    1
  9
$PLINEGEN
 70
    0
  9
$PSLTSCALE
 70
    1
  9
$TREEDEPTH
 70
 3020
  9
$CMLSTYLE
  2
Standard
  9
$CMLJUST
 70
    0
  9
$CMLSCALE
 40
20
  9
$PROXYGRAPHICS
 70
    1
  9
$MEASUREMENT
 70
    1
  9
$CELWEIGHT
370
   -1
  9
$ENDCAPS
280
    0
  9
$JOINSTYLE
280
    0
  9
$LWDISPLAY
290
    0
  9
$INSUNITS
 70
    4
  9
$HYPERLINKBASE
  1

  9
$STYLESHEET
  1

  9
$XEDIT
290
    1
  9
$CEPSNTYPE
380
    0
  9
$PSTYLEMODE
290
    1
  9
$EXTNAMES
290
    1
  9
$PSVPSCALE
 40
1
  9
$OLESTARTUP
290
    0
  9
$SORTENTS
280
  127
  9
$INDEXCTL
280
    0
  9
$HIDETEXT
280
    1
  9
$XCLIPFRAME
290
    0
  9
$HALOGAP
280
    0
  9
$OBSCOLOR
 70
  257
  9
$OBSLTYPE
280
    0
  9
$INTERSECTIONDISPLAY
280
    0
  9
$INTERSECTIONCOLOR
 70
  257
  9
$DIMASSOC
280
    1
  9
$PROJECTNAME
  1

  9
$CAMERADISPLAY
290
    0
  9
$LENSLENGTH
 40
50
  9
$CAMERAHEIGHT
 40
0
  9
$STEPSPERSEC
 40
2
  9
$STEPSIZE
 40
50
  9
$3DDWFPREC
 40
2
  9
$PSOLWIDTH
 40
5
  9
$PSOLHEIGHT
 40
80
  9
$LOFTANG1
 40
1.570796326794897
  9
$LOFTANG2
 40
1.570796326794897
  9
$LOFTMAG1
 40
0
  9
$LOFTMAG2
 40
0
  9
$LOFTPARAM
 70
    7
  9
$LOFTNORMALS
280
    1
  9
$LATITUDE
 40
1
  9
$LONGITUDE
 40
1
  9
$NORTHDIRECTION
 40
0
  9
$TIMEZONE
 70
-8000
  9
$LIGHTGLYPHDISPLAY
280
    1
  9
$TILEMODELIGHTSYNCH
280
    1
  9
$SOLIDHIST
280
    1
  9
$SHOWHIST
280
    1
  9
$DWFFRAME
280
    2
  9
$DGNFRAME
280
    0
  9
$REALWORLDSCALE
290
    1
  9
$INTERFERECOLOR
 62
    1
  9
$CSHADOW
280
    0
  9
$SHADOWPLANELOCATION
 40
0
  0
ENDSEC
  0
SECTION
  2
CLASSES
  0
ENDSEC
  0
SECTION
  2
TABLES
  0
TABLE
  2
VPORT
  5
8
330
0
100
AcDbSymbolTable
 70
    1
  0
VPORT
  5
31
330
2
100
AcDbSymbolTableRecord
100
AcDbViewportTableRecord
  2
*ACTIVE
 70
    0
 10
0
 20
0
 11
1
 21
1
 12
4035.663721256032
 22
3037.643211355782
 13
0
 23
0
 14
10
 24
10
 15
10
 25
10
 16
0
 26
0
 36
1
 17
0
 27
0
 37
0
 40
7034.083419122284
 41
1.67905824039653
 42
50
 43
0
 44
0
 50
0
 51
0
 71
    0
 72
  100
 73
    1
 74
    3
 75
    0
 76
    1
 77
    0
 78
    0
281
    0
 65
    1
110
0
120
0
130
0
111
1
121
0
131
0
112
0
122
1
132
0
 79
    0
146
0
348
10020
 60
    7
 61
    5
292
1
282
    1
141
0
142
0
 63
  250
421
3358443
  0
ENDTAB
  0
TABLE
  2
LTYPE
  5
5
330
0
100
AcDbSymbolTable
 70
    4
  0
LTYPE
  5
14
330
5
100
AcDbSymbolTableRecord
100
AcDbLinetypeTableRecord
  2
ByBlock
 70
    0
  3

 72
   65
 73
    0
 40
0
  0
LTYPE
  5
15
330
5
100
AcDbSymbolTableRecord
100
AcDbLinetypeTableRecord
  2
ByLayer
 70
    0
  3

 72
   65
 73
    0
 40
0
  0
LTYPE
  5
16
330
5
100
AcDbSymbolTableRecord
100
AcDbLinetypeTableRecord
  2
Continuous
 70
    0
  3
Solid line
 72
   65
 73
    0
 40
0
  0
LTYPE
  5
32
330
5
100
AcDbSymbolTableRecord
100
AcDbLinetypeTableRecord
  2
DOT
 70
    0
  3
Dot . . . . . . . . . . . . . . . . . . . . . .
 72
   65
 73
    2
 40
6.35
 49
0
 74
    0
 49
-6.35
 74
    0
  0
LTYPE
  5
33
330
5
100
AcDbSymbolTableRecord
100
AcDbLinetypeTableRecord
  2
DOTTINY
 70
    0
  3
Dot (.15x) .....................................
 72
   65
 73
    2
 40
0.9525
 49
0
 74
    0
 49
-0.9525
 74
    0
  0
LTYPE
  5
34
330
5
100
AcDbSymbolTableRecord
100
AcDbLinetypeTableRecord
  2
DOT2
 70
    0
  3
Dot (.5x) .....................................
 72
   65
 73
    2
 40
3.175
 49
0
 74
    0
 49
-3.175
 74
    0
  0
LTYPE
  5
35
330
5
100
AcDbSymbolTableRecord
100
AcDbLinetypeTableRecord
  2
DOTX2
 70
    0
  3
Dot (2x) .  .  .  .  .  .  .  .  .  .  .  .  .
 72
   65
 73
    2
 40
12.7
 49
0
 74
    0
 49
-12.7
 74
    0
  0
LTYPE
  5
36
330
5
100
AcDbSymbolTableRecord
100
AcDbLinetypeTableRecord
  2
DASHED
 70
    0
  3
Dashed _ _ _ _ _ _ _ _ _ _ _ _ _ _ _ _ _
 72
   65
 73
    2
 40
19.05
 49
12.7
 74
    0
 49
-6.35
 74
    0
  0
LTYPE
  5
37
330
5
100
AcDbSymbolTableRecord
100
AcDbLinetypeTableRecord
  2
DASHEDTINY
 70
    0
  3
Dashed (.15x) _ _ _ _ _ _ _ _ _ _ _ _ _ _ _ _ _
 72
   65
 73
    2
 40
2.8575
 49
1.905
 74
    0
 49
-0.9525
 74
    0
  0
LTYPE
  5
38
330
5
100
AcDbSymbolTableRecord
100
AcDbLinetypeTableRecord
  2
DASHED2
 70
    0
  3
Dashed (.5x) _ _ _ _ _ _ _ _ _ _ _ _ _ _ _ _ _
 72
   65
 73
    2
 40
9.524999999999999
 49
6.35
 74
    0
 49
-3.175
 74
    0
  0
LTYPE
  5
39
330
5
100
AcDbSymbolTableRecord
100
AcDbLinetypeTableRecord
  2
DASHEDX2
 70
    0
  3
Dashed (2x) ____  ____  ____  ____  ____  ___
 72
   65
 73
    2
 40
38.09999999999999
 49
25.4
 74
    0
 49
-12.7
 74
    0
  0
LTYPE
  5
3A
330
5
100
AcDbSymbolTableRecord
100
AcDbLinetypeTableRecord
  2
DASHDOT
 70
    0
  3
Dash dot __ . __ . __ . __ . __ . __ . __ . __
 72
   65
 73
    4
 40
25.4
 49
12.7
 74
    0
 49
-6.35
 74
    0
 49
0
 74
    0
 49
-6.35
 74
    0
  0
LTYPE
  5
3B
330
5
100
AcDbSymbolTableRecord
100
AcDbLinetypeTableRecord
  2
DASHDOTTINY
 70
    0
  3
Dash dot (.15x) _._._._._._._._._._._._._._._.
 72
   65
 73
    4
 40
3.81
 49
1.905
 74
    0
 49
-0.9525
 74
    0
 49
0
 74
    0
 49
-0.9525
 74
    0
  0
LTYPE
  5
3C
330
5
100
AcDbSymbolTableRecord
100
AcDbLinetypeTableRecord
  2
DASHDOT2
 70
    0
  3
Dash dot (.5x) _._._._._._._._._._._._._._._.
 72
   65
 73
    4
 40
12.7
 49
6.35
 74
    0
 49
-3.175
 74
    0
 49
0
 74
    0
 49
-3.175
 74
    0
  0
LTYPE
  5
3D
330
5
100
AcDbSymbolTableRecord
100
AcDbLinetypeTableRecord
  2
DASHDOTX2
 70
    0
  3
Dash dot (2x) ____  .  ____  .  ____  .  ___
 72
   65
 73
    4
 40
50.8
 49
25.4
 74
    0
 49
-12.7
 74
    0
 49
0
 74
    0
 49
-12.7
 74
    0
  0
LTYPE
  5
3E
330
5
100
AcDbSymbolTableRecord
100
AcDbLinetypeTableRecord
  2
DIVIDE
 70
    0
  3
Divide ____ . . ____ . . ____ . . ____ . . ____
 72
   65
 73
    6
 40
31.75
 49
12.7
 74
    0
 49
-6.35
 74
    0
 49
0
 74
    0
 49
-6.35
 74
    0
 49
0
 74
    0
 49
-6.35
 74
    0
  0
LTYPE
  5
3F
330
5
100
AcDbSymbolTableRecord
100
AcDbLinetypeTableRecord
  2
DIVIDETINY
 70
    0
  3
Divide (.15x) __..__..__..__..__..__..__..__.._
 72
   65
 73
    6
 40
4.7625
 49
1.905
 74
    0
 49
-0.9525
 74
    0
 49
0
 74
    0
 49
-0.9525
 74
    0
 49
0
 74
    0
 49
-0.9525
 74
    0
  0
LTYPE
  5
40
330
5
100
AcDbSymbolTableRecord
100
AcDbLinetypeTableRecord
  2
DIVIDE2
 70
    0
  3
Divide (.5x) __..__..__..__..__..__..__..__.._
 72
   65
 73
    6
 40
15.875
 49
6.35
 74
    0
 49
-3.175
 74
    0
 49
0
 74
    0
 49
-3.175
 74
    0
 49
0
 74
    0
 49
-3.175
 74
    0
  0
LTYPE
  5
41
330
5
100
AcDbSymbolTableRecord
100
AcDbLinetypeTableRecord
  2
DIVIDEX2
 70
    0
  3
Divide (2x) ________  .  .  ________  .  .  _
 72
   65
 73
    6
 40
63.5
 49
25.4
 74
    0
 49
-12.7
 74
    0
 49
0
 74
    0
 49
-12.7
 74
    0
 49
0
 74
    0
 49
-12.7
 74
    0
  0
LTYPE
  5
42
330
5
100
AcDbSymbolTableRecord
100
AcDbLinetypeTableRecord
  2
BORDER
 70
    0
  3
Border __ __ . __ __ . __ __ . __ __ . __ __ .
 72
   65
 73
    6
 40
44.45
 49
12.7
 74
    0
 49
-6.35
 74
    0
 49
12.7
 74
    0
 49
-6.35
 74
    0
 49
0
 74
    0
 49
-6.35
 74
    0
  0
LTYPE
  5
43
330
5
100
AcDbSymbolTableRecord
100
AcDbLinetypeTableRecord
  2
BORDERTINY
 70
    0
  3
Border (.15x) __.__.__.__.__.__.__.__.__.__.__.
 72
   65
 73
    6
 40
6.6675
 49
1.905
 74
    0
 49
-0.9525
 74
    0
 49
1.905
 74
    0
 49
-0.9525
 74
    0
 49
0
 74
    0
 49
-0.9525
 74
    0
  0
LTYPE
  5
44
330
5
100
AcDbSymbolTableRecord
100
AcDbLinetypeTableRecord
  2
BORDER2
 70
    0
  3
Border (.5x) __.__.__.__.__.__.__.__.__.__.__.
 72
   65
 73
    6
 40
22.225
 49
6.35
 74
    0
 49
-3.175
 74
    0
 49
6.35
 74
    0
 49
-3.175
 74
    0
 49
0
 74
    0
 49
-3.175
 74
    0
  0
LTYPE
  5
45
330
5
100
AcDbSymbolTableRecord
100
AcDbLinetypeTableRecord
  2
BORDERX2
 70
    0
  3
Border (2x) ____  ____  .  ____  ____  .  ___
 72
   65
 73
    6
 40
88.89999999999999
 49
25.4
 74
    0
 49
-12.7
 74
    0
 49
25.4
 74
    0
 49
-12.7
 74
    0
 49
0
 74
    0
 49
-12.7
 74
    0
  0
LTYPE
  5
46
330
5
100
AcDbSymbolTableRecord
100
AcDbLinetypeTableRecord
  2
CENTER
 70
    0
  3
Center ____ _ ____ _ ____ _ ____ _ ____ _ ____
 72
   65
 73
    4
 40
50.8
 49
31.75
 74
    0
 49
-6.35
 74
    0
 49
6.35
 74
    0
 49
-6.35
 74
    0
  0
LTYPE
  5
47
330
5
100
AcDbSymbolTableRecord
100
AcDbLinetypeTableRecord
  2
CENTERTINY
 70
    0
  3
Center (.15x) ___ _ ___ _ ___ _ ___ _ ___ _ ___
 72
   65
 73
    4
 40
7.619999999999999
 49
4.7625
 74
    0
 49
-0.9525
 74
    0
 49
0.9525
 74
    0
 49
-0.9525
 74
    0
  0
LTYPE
  5
48
330
5
100
AcDbSymbolTableRecord
100
AcDbLinetypeTableRecord
  2
CENTER2
 70
    0
  3
Center (.5x) ___ _ ___ _ ___ _ ___ _ ___ _ ___
 72
   65
 73
    4
 40
28.575
 49
19.05
 74
    0
 49
-3.175
 74
    0
 49
3.175
 74
    0
 49
-3.175
 74
    0
  0
LTYPE
  5
49
330
5
100
AcDbSymbolTableRecord
100
AcDbLinetypeTableRecord
  2
CENTERX2
 70
    0
  3
Center (2x) ________  __  ________  __  _____
 72
   65
 73
    4
 40
101.6
 49
63.5
 74
    0
 49
-12.7
 74
    0
 49
12.7
 74
    0
 49
-12.7
 74
    0
  0
ENDTAB
  0
TABLE
  2
LAYER
  5
2
330
0
100
AcDbSymbolTable
 70
    1
  0
LAYER
  5
10
330
2
100
AcDbSymbolTableRecord
100
AcDbLayerTableRecord
  2
0
 70
    0
 62
    7
  6
CONTINUOUS
370
    0
390
F
  0
LAYER
  5
4A
330
2
100
AcDbSymbolTableRecord
100
AcDbLayerTableRecord
  2
AbwicklungAnsicht
 70
    1
 62
    5
  6
CONTINUOUS
370
    0
390
F
  0
LAYER
  5
4B
330
2
100
AcDbSymbolTableRecord
100
AcDbLayerTableRecord
  2
AbwicklungGrund
 70
    1
 62
    1
  6
CONTINUOUS
370
    0
390
F
  0
LAYER
  5
4C
330
2
100
AcDbSymbolTableRecord
100
AcDbLayerTableRecord
  2
Bemassung
 70
    1
 62
    6
  6
CONTINUOUS
370
    0
390
F
  0
LAYER
  5
4D
330
2
100
AcDbSymbolTableRecord
100
AcDbLayerTableRecord
  2
Hilfslinie
 70
    1
 62
   56
420
8421376
  6
CONTINUOUS
370
    0
390
F
  0
LAYER
  5
4E
330
2
100
AcDbSymbolTableRecord
100
AcDbLayerTableRecord
  2
objekte
 70
    0
 62
  253
420
10526884
  6
CONTINUOUS
370
    0
390
F
  0
ENDTAB
  0
TABLE
  2
STYLE
  5
3
330
0
100
AcDbSymbolTable
 70
    3
  0
STYLE
  5
4F
330
2
100
AcDbSymbolTableRecord
100
AcDbTextStyleTableRecord
  2
Standard
 70
    0
 40
0
 41
1
 50
0
 71
    0
 42
1
  3
txt
  4

  0
ENDTAB
  0
TABLE
  2
VIEW
  5
6
330
0
100
AcDbSymbolTable
 70
    0
  0
ENDTAB
  0
TABLE
  2
UCS
  5
7
330
0
100
AcDbSymbolTable
 70
    0
  0
ENDTAB
  0
TABLE
  2
APPID
  5
9
330
0
100
AcDbSymbolTable
 70
    1
  0
APPID
  5
12
330
9
100
AcDbSymbolTableRecord
100
AcDbRegAppTableRecord
  2
ACAD
 70
    0
  0
APPID
  5
50
330
9
100
AcDbSymbolTableRecord
100
AcDbRegAppTableRecord
  2
LibreCad
 70
    0
  0
ENDTAB
  0
TABLE
  2
DIMSTYLE
  5
A
330
0
100
AcDbSymbolTable
 70
    1
100
AcDbDimStyleTable
 71
    1
  0
DIMSTYLE
105
51
330
A
100
AcDbSymbolTableRecord
100
AcDbDimStyleTableRecord
  2
Standard
 70
    0
 40
20
 41
2.5
 42
0.625
 43
0.38
 44
1.25
 45
0
 46
0
 47
0
 48
0
 49
1
140
5
141
0.09
142
5
143
25.4
144
1
145
0
146
1
147
0.625
148
0
 71
    0
 72
    0
 73
    0
 74
    1
 75
    0
 76
    0
 77
    0
 78
    8
 79
    0
170
    0
171
    2
172
    0
173
    0
174
    0
175
    0
176
    0
177
    0
178
    0
179
    0
271
    2
272
    4
273
    2
274
    2
275
    0
276
    0
277
    2
278
   44
279
    0
280
    0
281
    0
282
    0
283
    1
284
    0
285
    0
286
    0
288
    0
289
    3
340
standard
341

371
   -2
372
   -2
  0
ENDTAB
  0
TABLE
  2
BLOCK_RECORD
  5
1
330
0
100
AcDbSymbolTable
 70
    2
  0
BLOCK_RECORD
  5
1F
330
1
100
AcDbSymbolTableRecord
100
AcDbBlockTableRecord
  2
*Model_Space
 70
    0
280
    1
281
    0
  0
BLOCK_RECORD
  5
1E
330
1
100
AcDbSymbolTableRecord
100
AcDbBlockTableRecord
  2
*Paper_Space
 70
    0
280
    1
281
    0
  0
BLOCK_RECORD
  5
52
330
1
100
AcDbSymbolTableRecord
100
AcDbBlockTableRecord
  2
*D17
 70
    0
280
    1
281
    0
  0
BLOCK_RECORD
  5
55
330
1
100
AcDbSymbolTableRecord
100
AcDbBlockTableRecord
  2
*D14
 70
    0
280
    1
281
    0
  0
BLOCK_RECORD
  5
58
330
1
100
AcDbSymbolTableRecord
100
AcDbBlockTableRecord
  2
*D10
 70
    0
280
    1
281
    0
  0
BLOCK_RECORD
  5
5B
330
1
100
AcDbSymbolTableRecord
100
AcDbBlockTableRecord
  2
*D16
 70
    0
280
    1
281
    0
  0
BLOCK_RECORD
  5
5E
330
1
100
AcDbSymbolTableRecord
100
AcDbBlockTableRecord
  2
*D15
 70
    0
280
    1
281
    0
  0
BLOCK_RECORD
  5
61
330
1
100
AcDbSymbolTableRecord
100
AcDbBlockTableRecord
  2
*D11
 70
    0
280
    1
281
    0
  0
BLOCK_RECORD
  5
64
330
1
100
AcDbSymbolTableRecord
100
AcDbBlockTableRecord
  2
*D19
 70
    0
280
    1
281
    0
  0
BLOCK_RECORD
  5
67
330
1
100
AcDbSymbolTableRecord
100
AcDbBlockTableRecord
  2
*D21
 70
    0
280
    1
281
    0
  0
BLOCK_RECORD
  5
6A
330
1
100
AcDbSymbolTableRecord
100
AcDbBlockTableRecord
  2
*D6
 70
    0
280
    1
281
    0
  0
BLOCK_RECORD
  5
6D
330
1
100
AcDbSymbolTableRecord
100
AcDbBlockTableRecord
  2
*D9
 70
    0
280
    1
281
    0
  0
BLOCK_RECORD
  5
70
330
1
100
AcDbSymbolTableRecord
100
AcDbBlockTableRecord
  2
*D1
 70
    0
280
    1
281
    0
  0
BLOCK_RECORD
  5
73
330
1
100
AcDbSymbolTableRecord
100
AcDbBlockTableRecord
  2
*D3
 70
    0
280
    1
281
    0
  0
BLOCK_RECORD
  5
76
330
1
100
AcDbSymbolTableRecord
100
AcDbBlockTableRecord
  2
*D18
 70
    0
280
    1
281
    0
  0
BLOCK_RECORD
  5
79
330
1
100
AcDbSymbolTableRecord
100
AcDbBlockTableRecord
  2
*D5
 70
    0
280
    1
281
    0
  0
BLOCK_RECORD
  5
7C
330
1
100
AcDbSymbolTableRecord
100
AcDbBlockTableRecord
  2
*D2
 70
    0
280
    1
281
    0
  0
BLOCK_RECORD
  5
7F
330
1
100
AcDbSymbolTableRecord
100
AcDbBlockTableRecord
  2
*D20
 70
    0
280
    1
281
    0
  0
BLOCK_RECORD
  5
82
330
1
100
AcDbSymbolTableRecord
100
AcDbBlockTableRecord
  2
*D7
 70
    0
280
    1
281
    0
  0
BLOCK_RECORD
  5
85
330
1
100
AcDbSymbolTableRecord
100
AcDbBlockTableRecord
  2
*D13
 70
    0
280
    1
281
    0
  0
BLOCK_RECORD
  5
88
330
1
100
AcDbSymbolTableRecord
100
AcDbBlockTableRecord
  2
*D12
 70
    0
280
    1
281
    0
  0
BLOCK_RECORD
  5
8B
330
1
100
AcDbSymbolTableRecord
100
AcDbBlockTableRecord
  2
*D8
 70
    0
280
    1
281
    0
  0
BLOCK_RECORD
  5
8E
330
1
100
AcDbSymbolTableRecord
100
AcDbBlockTableRecord
  2
*D4
 70
    0
280
    1
281
    0
  0
ENDTAB
  0
ENDSEC
  0
SECTION
  2
BLOCKS
  0
BLOCK
  5
20
330
1F
100
AcDbEntity
  8
0
100
AcDbBlockBegin
  2
*Model_Space
 70
    0
 10
0
 20
0
 30
0
  3
*Model_Space
  1

  0
ENDBLK
  5
21
330
1F
100
AcDbEntity
  8
0
100
AcDbBlockEnd
  0
BLOCK
  5
1C
330
1B
100
AcDbEntity
  8
0
100
AcDbBlockBegin
  2
*Paper_Space
 70
    0
 10
0
 20
0
 30
0
  3
*Paper_Space
  1

  0
ENDBLK
  5
1D
330
1F
100
AcDbEntity
  8
0
100
AcDbBlockEnd
  0
BLOCK
  5
53
330
52
100
AcDbEntity
  8
0
100
AcDbBlockBegin
  2
*D17
 70
    1
 10
0
 20
0
  3
*D17
  1

  0
LINE
  5
91
100
AcDbEntity
  8
0
  6
ByBlock
 62
    0
370
   -2
100
AcDbLine
 10
4714.79910527218
 20
3775.142542495563
 11
4714.79910527218
 21
0.142542495564513
  0
LINE
  5
92
100
AcDbEntity
  8
0
  6
ByBlock
 62
    0
370
   -2
100
AcDbLine
 10
4785.509783390835
 20
3704.431864376908
 11
4644.088427153525
 21
3845.853220614218
  0
LINE
  5
93
100
AcDbEntity
  8
0
  6
ByBlock
 62
    0
370
   -2
100
AcDbLine
 10
4785.509783390835
 20
-70.56813562309024
 11
4644.088427153525
 21
70.85322061421927
  0
MTEXT
  5
94
100
AcDbEntity
  8
0
  6
CONTINUOUS
 62
    0
370
   -2
100
AcDbMText
 10
4652.29910527218
 20
1887.642542495564
 30
0
 40
100
 41
277.7777777777902
 71
    5
 72
    1
  1
3775
  7
standard
210
0
220
0
230
1
 50
90
 73
    2
 44
1
  0
LINE
  5
95
100
AcDbEntity
  8
0
  6
ByBlock
 62
    0
370
   -2
100
AcDbLine
 10
4417.243701915463
 20
3775.142542495563
 11
4739.79910527218
 21
3775.142542495563
  0
LINE
  5
96
100
AcDbEntity
  8
0
  6
ByBlock
 62
    0
370
   -2
100
AcDbLine
 10
4417.243701915463
 20
0.142542495564513
 11
4739.79910527218
 21
0.142542495564513
  0
ENDBLK
  5
54
330
52
100
AcDbEntity
  8
0
100
AcDbBlockEnd
  0
BLOCK
  5
56
330
55
100
AcDbEntity
  8
0
100
AcDbBlockBegin
  2
*D14
 70
    1
 10
0
 20
0
  3
*D14
  1

  0
LINE
  5
97
100
AcDbEntity
  8
Bemassung
  6
ByBlock
 62
    0
370
   -2
100
AcDbLine
 10
5105.638915998186
 20
7080.142542495565
 11
5105.638915998186
 21
8225.142542495565
  0
LINE
  5
98
100
AcDbEntity
  8
Bemassung
  6
ByBlock
 62
    0
370
   -2
100
AcDbLine
 10
5034.928237879531
 20
7150.85322061422
 11
5176.349594116841
 21
7009.43186437691
  0
LINE
  5
99
100
AcDbEntity
  8
Bemassung
  6
ByBlock
 62
    0
370
   -2
100
AcDbLine
 10
5034.928237879531
 20
8295.853220614219
 11
5176.349594116841
 21
8154.43186437691
  0
MTEXT
  5
9A
100
AcDbEntity
  8
Bemassung
  6
CONTINUOUS
 62
    0
370
   -2
100
AcDbMText
 10
5043.138915998186
 20
7652.642542495565
 30
0
 40
100
 41
244.4444444444507
 71
    5
 72
    1
  1
1145
  7
standard
210
0
220
0
230
1
 50
90
 73
    2
 44
1
  0
LINE
  5
9B
100
AcDbEntity
  8
Bemassung
  6
ByBlock
 62
    0
370
   -2
100
AcDbLine
 10
4392.786076897754
 20
7080.142542495565
 11
5130.638915998186
 21
7080.142542495565
  0
LINE
  5
9C
100
AcDbEntity
  8
Bemassung
  6
ByBlock
 62
    0
370
   -2
100
AcDbLine
 10
4343.49025288122
 20
8225.142542495565
 11
5130.638915998186
 21
8225.142542495565
  0
ENDBLK
  5
57
330
55
100
AcDbEntity
  8
0
100
AcDbBlockEnd
  0
BLOCK
  5
59
330
58
100
AcDbEntity
  8
0
100
AcDbBlockBegin
  2
*D10
 70
    1
 10
0
 20
0
  3
*D10
  1

  0
LINE
  5
9D
100
AcDbEntity
  8
Bemassung
  6
ByBlock
 62
    0
370
   -2
100
AcDbLine
 10
1663.158993624662
 20
2430.970174147679
 11
2805.659122130647
 21
2430.970174147679
  0
LINE
  5
9E
100
AcDbEntity
  8
Bemassung
  6
ByBlock
 62
    0
370
   -2
100
AcDbLine
 10
1733.869671743317
 20
2501.680852266334
 11
1592.448315506007
 21
2360.259496029024
  0
LINE
  5
9F
100
AcDbEntity
  8
Bemassung
  6
ByBlock
 62
    0
370
   -2
100
AcDbLine
 10
2876.369800249302
 20
2501.680852266334
 11
2734.948444011992
 21
2360.259496029024
  0
MTEXT
  5
A0
100
AcDbEntity
  8
Bemassung
  6
CONTINUOUS
 62
    0
370
   -2
100
AcDbMText
 10
2234.409057877655
 20
2493.470174147679
 30
0
 40
100
 41
361.1111111111171
 71
    5
 72
    1
  1
1142,5
  7
standard
210
0
220
0
230
1
 50
0
 73
    2
 44
1
  0
LINE
  5
A1
100
AcDbEntity
  8
Bemassung
  6
ByBlock
 62
    0
370
   -2
100
AcDbLine
 10
1663.158993624662
 20
2443.470174147679
 11
1663.158993624662
 21
2455.970174147679
  0
LINE
  5
A2
100
AcDbEntity
  8
Bemassung
  6
ByBlock
 62
    0
370
   -2
100
AcDbLine
 10
2805.659122130647
 20
2443.470174147679
 11
2805.659122130647
 21
2455.970174147679
  0
ENDBLK
  5
5A
330
58
100
AcDbEntity
  8
0
100
AcDbBlockEnd
  0
BLOCK
  5
5C
330
5B
100
AcDbEntity
  8
0
100
AcDbBlockBegin
  2
*D16
 70
    1
 10
0
 20
0
  3
*D16
  1

  0
LINE
  5
A3
100
AcDbEntity
  8
0
  6
ByBlock
 62
    0
370
   -2
100
AcDbLine
 10
4404.743701915464
 20
4400.142542495565
 11
4404.743701915464
 21
8225.142542495565
  0
LINE
  5
A4
100
AcDbEntity
  8
0
  6
ByBlock
 62
    0
370
   -2
100
AcDbLine
 10
4334.033023796809
 20
4470.85322061422
 11
4475.454380034119
 21
4329.43186437691
  0
LINE
  5
A5
100
AcDbEntity
  8
0
  6
ByBlock
 62
    0
370
   -2
100
AcDbLine
 10
4334.033023796809
 20
8295.853220614219
 11
4475.454380034119
 21
8154.43186437691
  0
MTEXT
  5
A6
100
AcDbEntity
  8
0
  6
CONTINUOUS
 62
    0
370
   -2
100
AcDbMText
 10
4342.243701915464
 20
6312.642542495565
 30
0
 40
100
 41
277.7777777777902
 71
    5
 72
    1
  1
3825
  7
standard
210
0
220
0
230
1
 50
90
 73
    2
 44
1
  0
LINE
  5
A7
100
AcDbEntity
  8
0
  6
ByBlock
 62
    0
370
   -2
100
AcDbLine
 10
4392.243701915463
 20
4400.142542495565
 11
4379.743701915464
 21
4400.142542495565
  0
LINE
  5
A8
100
AcDbEntity
  8
0
  6
ByBlock
 62
    0
370
   -2
100
AcDbLine
 10
4392.243701915464
 20
8225.142542495565
 11
4379.743701915464
 21
8225.142542495565
  0
ENDBLK
  5
5D
330
5B
100
AcDbEntity
  8
0
100
AcDbBlockEnd
  0
BLOCK
  5
5F
330
5E
100
AcDbEntity
  8
0
100
AcDbBlockBegin
  2
*D15
 70
    1
 10
0
 20
0
  3
*D15
  1

  0
LINE
  5
A9
100
AcDbEntity
  8
Bemassung
  6
ByBlock
 62
    0
370
   -2
100
AcDbLine
 10
2246.481123039202
 20
6710.142542495565
 11
2246.481123039202
 21
8225.142542495565
  0
LINE
  5
AA
100
AcDbEntity
  8
Bemassung
  6
ByBlock
 62
    0
370
   -2
100
AcDbLine
 10
2175.770444920547
 20
6780.85322061422
 11
2317.191801157857
 21
6639.43186437691
  0
LINE
  5
AB
100
AcDbEntity
  8
Bemassung
  6
ByBlock
 62
    0
370
   -2
100
AcDbLine
 10
2175.770444920547
 20
8295.853220614219
 11
2317.191801157857
 21
8154.43186437691
  0
MTEXT
  5
AC
100
AcDbEntity
  8
Bemassung
  6
CONTINUOUS
 62
    0
370
   -2
100
AcDbMText
 10
2183.981123039202
 20
7467.642542495565
 30
0
 40
100
 41
233.3333333333457
 71
    5
 72
    1
  1
1515
  7
standard
210
0
220
0
230
1
 50
90
 73
    2
 44
1
  0
LINE
  5
AD
100
AcDbEntity
  8
Bemassung
  6
ByBlock
 62
    0
370
   -2
100
AcDbLine
 10
3057.925610172702
 20
6710.142542495565
 11
2221.481123039202
 21
6710.142542495565
  0
LINE
  5
AE
100
AcDbEntity
  8
Bemassung
  6
ByBlock
 62
    0
370
   -2
100
AcDbLine
 10
3064.967870746493
 20
8225.142542495565
 11
2221.481123039202
 21
8225.142542495565
  0
ENDBLK
  5
60
330
5E
100
AcDbEntity
  8
0
100
AcDbBlockEnd
  0
BLOCK
  5
62
330
61
100
AcDbEntity
  8
0
100
AcDbBlockBegin
  2
*D11
 70
    1
 10
0
 20
0
  3
*D11
  1

  0
LINE
  5
AF
100
AcDbEntity
  8
Bemassung
  6
ByBlock
 62
    0
370
   -2
100
AcDbLine
 10
2805.659122130647
 20
2777.448288700656
 11
3696.216269274403
 21
2777.448288700656
  0
LINE
  5
B0
100
AcDbEntity
  8
Bemassung
  6
ByBlock
 62
    0
370
   -2
100
AcDbLine
 10
2876.369800249302
 20
2848.158966819311
 11
2734.948444011992
 21
2706.737610582001
  0
LINE
  5
B1
100
AcDbEntity
  8
Bemassung
  6
ByBlock
 62
    0
370
   -2
100
AcDbLine
 10
3766.926947393058
 20
2848.158966819311
 11
3625.505591155748
 21
2706.737610582001
  0
MTEXT
  5
B2
100
AcDbEntity
  8
Bemassung
  6
CONTINUOUS
 62
    0
370
   -2
100
AcDbMText
 10
3250.937695702525
 20
2839.948288700656
 30
0
 40
100
 41
394.4444444444567
 71
    5
 72
    1
  1
890,56
  7
standard
210
0
220
0
230
1
 50
0
 73
    2
 44
1
  0
LINE
  5
B3
100
AcDbEntity
  8
Bemassung
  6
ByBlock
 62
    0
370
   -2
100
AcDbLine
 10
2805.659122130647
 20
2789.948288700656
 11
2805.659122130647
 21
2802.448288700656
  0
LINE
  5
B4
100
AcDbEntity
  8
Bemassung
  6
ByBlock
 62
    0
370
   -2
100
AcDbLine
 10
3696.216269274403
 20
2789.948288700656
 11
3696.216269274403
 21
2802.448288700656
  0
ENDBLK
  5
63
330
61
100
AcDbEntity
  8
0
100
AcDbBlockEnd
  0
BLOCK
  5
65
330
64
100
AcDbEntity
  8
0
100
AcDbBlockBegin
  2
*D19
 70
    1
 10
0
 20
0
  3
*D19
  1

  0
LINE
  5
B5
100
AcDbEntity
  8
0
  6
ByBlock
 62
    0
370
   -2
100
AcDbLine
 10
-298.0506085909461
 20
4400.142542495565
 11
-298.0506085909461
 21
5970.142542495565
  0
LINE
  5
B6
100
AcDbEntity
  8
0
  6
ByBlock
 62
    0
370
   -2
100
AcDbLine
 10
-368.7612867096009
 20
4470.85322061422
 11
-227.3399304722914
 21
4329.43186437691
  0
LINE
  5
B7
100
AcDbEntity
  8
0
  6
ByBlock
 62
    0
370
   -2
100
AcDbLine
 10
-368.7612867096009
 20
6040.85322061422
 11
-227.3399304722914
 21
5899.43186437691
  0
MTEXT
  5
B8
100
AcDbEntity
  8
0
  6
CONTINUOUS
 62
    0
370
   -2
100
AcDbMText
 10
-360.5506085909461
 20
5185.142542495565
 30
0
 40
100
 41
255.5555555555617
 71
    5
 72
    1
  1
1570
  7
standard
210
0
220
0
230
1
 50
90
 73
    2
 44
1
  0
LINE
  5
B9
100
AcDbEntity
  8
0
  6
ByBlock
 62
    0
370
   -2
100
AcDbLine
 10
-12.7562980845366
 20
4400.142542495565
 11
-323.0506085909461
 21
4400.142542495565
  0
LINE
  5
BA
100
AcDbEntity
  8
0
  6
ByBlock
 62
    0
370
   -2
100
AcDbLine
 10
-12.7562980845365
 20
5970.142542495565
 11
-323.0506085909461
 21
5970.142542495565
  0
ENDBLK
  5
66
330
64
100
AcDbEntity
  8
0
100
AcDbBlockEnd
  0
BLOCK
  5
68
330
67
100
AcDbEntity
  8
0
100
AcDbBlockBegin
  2
*D21
 70
    1
 10
0
 20
0
  3
*D21
  1

  0
LINE
  5
BB
100
AcDbEntity
  8
0
  6
ByBlock
 62
    0
370
   -2
100
AcDbLine
 10
4867.996394550448
 20
7058.142542495565
 11
4867.996394550448
 21
8225.142542495565
  0
LINE
  5
BC
100
AcDbEntity
  8
0
  6
ByBlock
 62
    0
370
   -2
100
AcDbLine
 10
4797.285716431793
 20
7128.85322061422
 11
4938.707072669103
 21
6987.43186437691
  0
LINE
  5
BD
100
AcDbEntity
  8
0
  6
ByBlock
 62
    0
370
   -2
100
AcDbLine
 10
4797.285716431793
 20
8295.853220614219
 11
4938.707072669103
 21
8154.43186437691
  0
MTEXT
  5
BE
100
AcDbEntity
  8
0
  6
CONTINUOUS
 62
    0
370
   -2
100
AcDbMText
 10
4805.496394550448
 20
7641.642542495565
 30
0
 40
100
 41
233.3333333333396
 71
    5
 72
    1
  1
1167
  7
standard
210
0
220
0
230
1
 50
90
 73
    2
 44
1
  0
LINE
  5
BF
100
AcDbEntity
  8
0
  6
ByBlock
 62
    0
370
   -2
100
AcDbLine
 10
3859.264325932071
 20
7058.142542495565
 11
4892.996394550448
 21
7058.142542495565
  0
LINE
  5
C0
100
AcDbEntity
  8
0
  6
ByBlock
 62
    0
370
   -2
100
AcDbLine
 10
3687.095616385033
 20
8225.142542495565
 11
4892.996394550448
 21
8225.142542495565
  0
ENDBLK
  5
69
330
67
100
AcDbEntity
  8
0
100
AcDbBlockEnd
  0
BLOCK
  5
6B
330
6A
100
AcDbEntity
  8
0
100
AcDbBlockBegin
  2
*D6
 70
    1
 10
0
 20
0
  3
*D6
  1

  0
LINE
  5
C1
100
AcDbEntity
  8
Bemassung
  6
ByBlock
 62
    0
370
   -2
100
AcDbLine
 10
3603.172622579806
 20
6340.142542495565
 11
3603.172622579806
 21
4403.877649819763
  0
LINE
  5
C2
100
AcDbEntity
  8
Bemassung
  6
ByBlock
 62
    0
370
   -2
100
AcDbLine
 10
3673.883300698461
 20
6269.43186437691
 11
3532.461944461151
 21
6410.85322061422
  0
LINE
  5
C3
100
AcDbEntity
  8
Bemassung
  6
ByBlock
 62
    0
370
   -2
100
AcDbLine
 10
3673.883300698461
 20
4333.166971701108
 11
3532.461944461151
 21
4474.588327938418
  0
MTEXT
  5
C4
100
AcDbEntity
  8
Bemassung
  6
CONTINUOUS
 62
    0
370
   -2
100
AcDbMText
 10
3540.672622579806
 20
5372.010096157665
 30
0
 40
100
 41
450.0000000000184
 71
    5
 72
    1
  1
1936,26
  7
standard
210
0
220
0
230
1
 50
90
 73
    2
 44
1
  0
LINE
  5
C5
100
AcDbEntity
  8
Bemassung
  6
ByBlock
 62
    0
370
   -2
100
AcDbLine
 10
3777.243701915464
 20
6340.142542495565
 11
3578.172622579806
 21
6340.142542495565
  0
LINE
  5
C6
100
AcDbEntity
  8
Bemassung
  6
ByBlock
 62
    0
370
   -2
100
AcDbLine
 10
3375.461114407819
 20
4403.877649819763
 11
3628.172622579806
 21
4403.877649819763
  0
ENDBLK
  5
6C
330
6A
100
AcDbEntity
  8
0
100
AcDbBlockEnd
  0
BLOCK
  5
6E
330
6D
100
AcDbEntity
  8
0
100
AcDbBlockBegin
  2
*D9
 70
    1
 10
0
 20
0
  3
*D9
  1

  0
LINE
  5
C7
100
AcDbEntity
  8
Bemassung
  6
ByBlock
 62
    0
370
   -2
100
AcDbLine
 10
3460.627271904303
 20
-390.2044117403752
 11
4404.743701915463
 21
-390.2044117403752
  0
LINE
  5
C8
100
AcDbEntity
  8
Bemassung
  6
ByBlock
 62
    0
370
   -2
100
AcDbLine
 10
3531.337950022958
 20
-319.4937336217204
 11
3389.916593785648
 21
-460.9150898590299
  0
LINE
  5
C9
100
AcDbEntity
  8
Bemassung
  6
ByBlock
 62
    0
370
   -2
100
AcDbLine
 10
4475.454380034118
 20
-319.4937336217204
 11
4334.033023796808
 21
-460.9150898590299
  0
MTEXT
  5
CA
100
AcDbEntity
  8
Bemassung
  6
CONTINUOUS
 62
    0
370
   -2
100
AcDbMText
 10
3932.685486909883
 20
-327.7044117403752
 30
0
 40
100
 41
394.4444444444505
 71
    5
 72
    1
  1
944,12
  7
standard
210
0
220
0
230
1
 50
0
 73
    2
 44
1
  0
LINE
  5
CB
100
AcDbEntity
  8
Bemassung
  6
ByBlock
 62
    0
370
   -2
100
AcDbLine
 10
3460.627271904303
 20
-12.35745750443537
 11
3460.627271904303
 21
-415.2044117403752
  0
LINE
  5
CC
100
AcDbEntity
  8
Bemassung
  6
ByBlock
 62
    0
370
   -2
100
AcDbLine
 10
4404.743701915463
 20
-12.35745750443549
 11
4404.743701915463
 21
-415.2044117403752
  0
ENDBLK
  5
6F
330
6D
100
AcDbEntity
  8
0
100
AcDbBlockEnd
  0
BLOCK
  5
71
330
70
100
AcDbEntity
  8
0
100
AcDbBlockBegin
  2
*D1
 70
    1
 10
0
 20
0
  3
*D1
  1

  0
LINE
  5
CD
100
AcDbEntity
  8
Bemassung
  6
ByBlock
 62
    0
370
   -2
100
AcDbLine
 10
3789.743701915464
 20
5970.142542495565
 11
3789.743701915464
 21
6340.142542495565
  0
LINE
  5
CE
100
AcDbEntity
  8
Bemassung
  6
ByBlock
 62
    0
370
   -2
100
AcDbLine
 10
3719.033023796809
 20
6040.85322061422
 11
3860.454380034119
 21
5899.43186437691
  0
LINE
  5
CF
100
AcDbEntity
  8
Bemassung
  6
ByBlock
 62
    0
370
   -2
100
AcDbLine
 10
3719.033023796809
 20
6410.85322061422
 11
3860.454380034119
 21
6269.43186437691
  0
MTEXT
  5
D0
100
AcDbEntity
  8
Bemassung
  6
CONTINUOUS
 62
    0
370
   -2
100
AcDbMText
 10
3727.243701915464
 20
6155.142542495565
 30
0
 40
100
 41
200.0000000000062
 71
    5
 72
    1
  1
370
  7
standard
210
0
220
0
230
1
 50
90
 73
    2
 44
1
  0
LINE
  5
D1
100
AcDbEntity
  8
Bemassung
  6
ByBlock
 62
    0
370
   -2
100
AcDbLine
 10
3777.243701915464
 20
5970.142542495565
 11
3764.743701915464
 21
5970.142542495565
  0
LINE
  5
D2
100
AcDbEntity
  8
Bemassung
  6
ByBlock
 62
    0
370
   -2
100
AcDbLine
 10
3777.243701915464
 20
6340.142542495565
 11
3764.743701915464
 21
6340.142542495565
  0
ENDBLK
  5
72
330
70
100
AcDbEntity
  8
0
100
AcDbBlockEnd
  0
BLOCK
  5
74
330
73
100
AcDbEntity
  8
0
100
AcDbBlockBegin
  2
*D3
 70
    1
 10
0
 20
0
  3
*D3
  1

  0
LINE
  5
D3
100
AcDbEntity
  8
Bemassung
  6
ByBlock
 62
    0
370
   -2
100
AcDbLine
 10
3789.743701915464
 20
7080.142542495565
 11
3789.743701915464
 21
6710.142542495565
  0
LINE
  5
D4
100
AcDbEntity
  8
Bemassung
  6
ByBlock
 62
    0
370
   -2
100
AcDbLine
 10
3860.454380034119
 20
7009.43186437691
 11
3719.033023796809
 21
7150.85322061422
  0
LINE
  5
D5
100
AcDbEntity
  8
Bemassung
  6
ByBlock
 62
    0
370
   -2
100
AcDbLine
 10
3860.454380034119
 20
6639.43186437691
 11
3719.033023796809
 21
6780.85322061422
  0
MTEXT
  5
D6
100
AcDbEntity
  8
Bemassung
  6
CONTINUOUS
 62
    0
370
   -2
100
AcDbMText
 10
3727.243701915464
 20
6895.142542495565
 30
0
 40
100
 41
200.0000000000062
 71
    5
 72
    1
  1
370
  7
standard
210
0
220
0
230
1
 50
90
 73
    2
 44
1
  0
LINE
  5
D7
100
AcDbEntity
  8
Bemassung
  6
ByBlock
 62
    0
370
   -2
100
AcDbLine
 10
3809.025746726784
 20
7080.142542495565
 11
3764.743701915464
 21
7080.142542495565
  0
LINE
  5
D8
100
AcDbEntity
  8
Bemassung
  6
ByBlock
 62
    0
370
   -2
100
AcDbLine
 10
3777.243701915464
 20
6710.142542495565
 11
3764.743701915464
 21
6710.142542495565
  0
ENDBLK
  5
75
330
73
100
AcDbEntity
  8
0
100
AcDbBlockEnd
  0
BLOCK
  5
77
330
76
100
AcDbEntity
  8
0
100
AcDbBlockBegin
  2
*D18
 70
    1
 10
0
 20
0
  3
*D18
  1

  0
LINE
  5
D9
100
AcDbEntity
  8
0
  6
ByBlock
 62
    0
370
   -2
100
AcDbLine
 10
-0.2562980845368656
 20
-272.7786761455135
 11
4404.743701915463
 21
-272.7786761455135
  0
LINE
  5
DA
100
AcDbEntity
  8
0
  6
ByBlock
 62
    0
370
   -2
100
AcDbLine
 10
70.4543800341179
 20
-202.0679980268587
 11
-70.96697620319163
 21
-343.4893542641682
  0
LINE
  5
DB
100
AcDbEntity
  8
0
  6
ByBlock
 62
    0
370
   -2
100
AcDbLine
 10
4475.454380034118
 20
-202.0679980268587
 11
4334.033023796808
 21
-343.4893542641682
  0
MTEXT
  5
DC
100
AcDbEntity
  8
0
  6
CONTINUOUS
 62
    0
370
   -2
100
AcDbMText
 10
2202.243701915463
 20
-210.2786761455135
 30
0
 40
100
 41
300.0000000000063
 71
    5
 72
    1
  1
4405
  7
standard
210
0
220
0
230
1
 50
0
 73
    2
 44
1
  0
LINE
  5
DD
100
AcDbEntity
  8
0
  6
ByBlock
 62
    0
370
   -2
100
AcDbLine
 10
-0.256298084536841
 20
427.6425424955651
 11
-0.2562980845368703
 21
-297.7786761455135
  0
LINE
  5
DE
100
AcDbEntity
  8
0
  6
ByBlock
 62
    0
370
   -2
100
AcDbLine
 10
4404.743701915463
 20
-12.35745750443549
 11
4404.743701915463
 21
-297.7786761455135
  0
ENDBLK
  5
78
330
76
100
AcDbEntity
  8
0
100
AcDbBlockEnd
  0
BLOCK
  5
7A
330
79
100
AcDbEntity
  8
0
100
AcDbBlockBegin
  2
*D5
 70
    1
 10
0
 20
0
  3
*D5
  1

  0
LINE
  5
DF
100
AcDbEntity
  8
Bemassung
  6
ByBlock
 62
    0
370
   -2
100
AcDbLine
 10
4035.553337289383
 20
6710.142542495565
 11
4035.553337289383
 21
4403.877649819763
  0
LINE
  5
E0
100
AcDbEntity
  8
Bemassung
  6
ByBlock
 62
    0
370
   -2
100
AcDbLine
 10
4106.264015408037
 20
6639.43186437691
 11
3964.842659170728
 21
6780.85322061422
  0
LINE
  5
E1
100
AcDbEntity
  8
Bemassung
  6
ByBlock
 62
    0
370
   -2
100
AcDbLine
 10
4106.264015408037
 20
4333.166971701108
 11
3964.842659170728
 21
4474.588327938418
  0
MTEXT
  5
E2
100
AcDbEntity
  8
Bemassung
  6
CONTINUOUS
 62
    0
370
   -2
100
AcDbMText
 10
3973.053337289383
 20
5557.010096157665
 30
0
 40
100
 41
472.2222222222407
 71
    5
 72
    1
  1
2306,26
  7
standard
210
0
220
0
230
1
 50
90
 73
    2
 44
1
  0
LINE
  5
E3
100
AcDbEntity
  8
Bemassung
  6
ByBlock
 62
    0
370
   -2
100
AcDbLine
 10
3802.243701915464
 20
6710.142542495565
 11
4060.553337289383
 21
6710.142542495565
  0
LINE
  5
E4
100
AcDbEntity
  8
Bemassung
  6
ByBlock
 62
    0
370
   -2
100
AcDbLine
 10
3559.623270673009
 20
4403.877649819763
 11
4060.553337289383
 21
4403.877649819763
  0
ENDBLK
  5
7B
330
79
100
AcDbEntity
  8
0
100
AcDbBlockEnd
  0
BLOCK
  5
7D
330
7C
100
AcDbEntity
  8
0
100
AcDbBlockBegin
  2
*D2
 70
    1
 10
0
 20
0
  3
*D2
  1

  0
LINE
  5
E5
100
AcDbEntity
  8
Bemassung
  6
ByBlock
 62
    0
370
   -2
100
AcDbLine
 10
3789.743701915464
 20
6340.142542495565
 11
3789.743701915464
 21
6710.142542495565
  0
LINE
  5
E6
100
AcDbEntity
  8
Bemassung
  6
ByBlock
 62
    0
370
   -2
100
AcDbLine
 10
3719.033023796809
 20
6410.85322061422
 11
3860.454380034119
 21
6269.43186437691
  0
LINE
  5
E7
100
AcDbEntity
  8
Bemassung
  6
ByBlock
 62
    0
370
   -2
100
AcDbLine
 10
3719.033023796809
 20
6780.85322061422
 11
3860.454380034119
 21
6639.43186437691
  0
MTEXT
  5
E8
100
AcDbEntity
  8
Bemassung
  6
CONTINUOUS
 62
    0
370
   -2
100
AcDbMText
 10
3727.243701915464
 20
6525.142542495565
 30
0
 40
100
 41
200.0000000000062
 71
    5
 72
    1
  1
370
  7
standard
210
0
220
0
230
1
 50
90
 73
    2
 44
1
  0
LINE
  5
E9
100
AcDbEntity
  8
Bemassung
  6
ByBlock
 62
    0
370
   -2
100
AcDbLine
 10
3777.243701915464
 20
6340.142542495565
 11
3764.743701915464
 21
6340.142542495565
  0
LINE
  5
EA
100
AcDbEntity
  8
Bemassung
  6
ByBlock
 62
    0
370
   -2
100
AcDbLine
 10
3777.243701915464
 20
6710.142542495565
 11
3764.743701915464
 21
6710.142542495565
  0
ENDBLK
  5
7E
330
7C
100
AcDbEntity
  8
0
100
AcDbBlockEnd
  0
BLOCK
  5
80
330
7F
100
AcDbEntity
  8
0
100
AcDbBlockBegin
  2
*D20
 70
    1
 10
0
 20
0
  3
*D20
  1

  0
LINE
  5
EB
100
AcDbEntity
  8
0
  6
ByBlock
 62
    0
370
   -2
100
AcDbLine
 10
3090.776189201947
 20
6318.142542495565
 11
3090.776189201947
 21
6588.142542495565
  0
LINE
  5
EC
100
AcDbEntity
  8
0
  6
ByBlock
 62
    0
370
   -2
100
AcDbLine
 10
3020.065511083292
 20
6388.85322061422
 11
3161.486867320602
 21
6247.43186437691
  0
LINE
  5
ED
100
AcDbEntity
  8
0
  6
ByBlock
 62
    0
370
   -2
100
AcDbLine
 10
3020.065511083292
 20
6658.85322061422
 11
3161.486867320602
 21
6517.43186437691
  0
MTEXT
  5
EE
100
AcDbEntity
  8
0
  6
CONTINUOUS
 62
    0
370
   -2
100
AcDbMText
 10
3028.276189201947
 20
6453.142542495565
 30
0
 40
100
 41
200
 71
    5
 72
    1
  1
270
  7
standard
210
0
220
0
230
1
 50
90
 73
    2
 44
1
  0
LINE
  5
EF
100
AcDbEntity
  8
0
  6
ByBlock
 62
    0
370
   -2
100
AcDbLine
 10
2898.159122130648
 20
6318.142542495565
 11
3115.776189201947
 21
6318.142542495565
  0
LINE
  5
F0
100
AcDbEntity
  8
0
  6
ByBlock
 62
    0
370
   -2
100
AcDbLine
 10
2898.159122130648
 20
6588.142542495565
 11
3115.776189201947
 21
6588.142542495565
  0
ENDBLK
  5
81
330
7F
100
AcDbEntity
  8
0
100
AcDbBlockEnd
  0
BLOCK
  5
83
330
82
100
AcDbEntity
  8
0
100
AcDbBlockBegin
  2
*D7
 70
    1
 10
0
 20
0
  3
*D7
  1

  0
LINE
  5
F1
100
AcDbEntity
  8
Bemassung
  6
ByBlock
 62
    0
370
   -2
100
AcDbLine
 10
2130.726326103502
 20
-340.6546451701689
 11
2805.659122130647
 21
-340.6546451701689
  0
LINE
  5
F2
100
AcDbEntity
  8
Bemassung
  6
ByBlock
 62
    0
370
   -2
100
AcDbLine
 10
2201.437004222157
 20
-269.9439670515142
 11
2060.015647984847
 21
-411.3653232888237
  0
LINE
  5
F3
100
AcDbEntity
  8
Bemassung
  6
ByBlock
 62
    0
370
   -2
100
AcDbLine
 10
2876.369800249302
 20
-269.9439670515142
 11
2734.948444011992
 21
-411.3653232888237
  0
MTEXT
  5
F4
100
AcDbEntity
  8
Bemassung
  6
CONTINUOUS
 62
    0
370
   -2
100
AcDbMText
 10
2468.192724117074
 20
-278.1546451701689
 30
0
 40
100
 41
405.5555555555678
 71
    5
 72
    1
  1
674,93
  7
standard
210
0
220
0
230
1
 50
0
 73
    2
 44
1
  0
LINE
  5
F5
100
AcDbEntity
  8
Bemassung
  6
ByBlock
 62
    0
370
   -2
100
AcDbLine
 10
2130.726326103502
 20
-12.35745750443521
 11
2130.726326103502
 21
-365.6546451701689
  0
LINE
  5
F6
100
AcDbEntity
  8
Bemassung
  6
ByBlock
 62
    0
370
   -2
100
AcDbLine
 10
2805.659122130647
 20
-12.35745750443529
 11
2805.659122130647
 21
-365.6546451701689
  0
ENDBLK
  5
84
330
82
100
AcDbEntity
  8
0
100
AcDbBlockEnd
  0
BLOCK
  5
86
330
85
100
AcDbEntity
  8
0
100
AcDbBlockBegin
  2
*D13
 70
    1
 10
0
 20
0
  3
*D13
  1

  0
LINE
  5
F7
100
AcDbEntity
  8
Bemassung
  6
ByBlock
 62
    0
370
   -2
100
AcDbLine
 10
1556.339586807723
 20
5970.142542495565
 11
1556.339586807723
 21
4400.142542495565
  0
LINE
  5
F8
100
AcDbEntity
  8
Bemassung
  6
ByBlock
 62
    0
370
   -2
100
AcDbLine
 10
1627.050264926378
 20
5899.43186437691
 11
1485.628908689068
 21
6040.85322061422
  0
LINE
  5
F9
100
AcDbEntity
  8
Bemassung
  6
ByBlock
 62
    0
370
   -2
100
AcDbLine
 10
1627.050264926378
 20
4329.43186437691
 11
1485.628908689068
 21
4470.85322061422
  0
MTEXT
  5
FA
100
AcDbEntity
  8
Bemassung
  6
CONTINUOUS
 62
    0
370
   -2
100
AcDbMText
 10
1493.839586807723
 20
5185.142542495565
 30
0
 40
100
 41
255.5555555555617
 71
    5
 72
    1
  1
1570
  7
standard
210
0
220
0
230
1
 50
90
 73
    2
 44
1
  0
LINE
  5
FB
100
AcDbEntity
  8
Bemassung
  6
ByBlock
 62
    0
370
   -2
100
AcDbLine
 10
1607.219931971838
 20
5970.142542495565
 11
1531.339586807723
 21
5970.142542495565
  0
LINE
  5
FC
100
AcDbEntity
  8
Bemassung
  6
ByBlock
 62
    0
370
   -2
100
AcDbLine
 10
1726.938361726278
 20
4400.142542495565
 11
1531.339586807723
 21
4400.142542495565
  0
ENDBLK
  5
87
330
85
100
AcDbEntity
  8
0
100
AcDbBlockEnd
  0
BLOCK
  5
89
330
88
100
AcDbEntity
  8
0
100
AcDbBlockBegin
  2
*D12
 70
    1
 10
0
 20
0
  3
*D12
  1

  0
LINE
  5
FD
100
AcDbEntity
  8
Bemassung
  6
ByBlock
 62
    0
370
   -2
100
AcDbLine
 10
3755.515913329694
 20
3395.142542495568
 11
4404.743701915463
 21
3395.142542495568
  0
LINE
  5
FE
100
AcDbEntity
  8
Bemassung
  6
ByBlock
 62
    0
370
   -2
100
AcDbLine
 10
3826.226591448349
 20
3465.853220614223
 11
3684.805235211039
 21
3324.431864376913
  0
LINE
  5
FF
100
AcDbEntity
  8
Bemassung
  6
ByBlock
 62
    0
370
   -2
100
AcDbLine
 10
4475.454380034118
 20
3465.853220614223
 11
4334.033023796808
 21
3324.431864376913
  0
MTEXT
  5
100
100
AcDbEntity
  8
Bemassung
  6
CONTINUOUS
 62
    0
370
   -2
100
AcDbMText
 10
4080.129807622578
 20
3457.642542495568
 30
0
 40
100
 41
405.5555555555678
 71
    5
 72
    1
  1
649,23
  7
standard
210
0
220
0
230
1
 50
0
 73
    2
 44
1
  0
LINE
  5
101
100
AcDbEntity
  8
Bemassung
  6
ByBlock
 62
    0
370
   -2
100
AcDbLine
 10
3755.515913329694
 20
3407.642542495568
 11
3755.515913329694
 21
3420.142542495568
  0
LINE
  5
102
100
AcDbEntity
  8
Bemassung
  6
ByBlock
 62
    0
370
   -2
100
AcDbLine
 10
4404.743701915463
 20
3407.642542495568
 11
4404.743701915463
 21
3420.142542495568
  0
ENDBLK
  5
8A
330
88
100
AcDbEntity
  8
0
100
AcDbBlockEnd
  0
BLOCK
  5
8C
330
8B
100
AcDbEntity
  8
0
100
AcDbBlockBegin
  2
*D8
 70
    1
 10
0
 20
0
  3
*D8
  1

  0
LINE
  5
103
100
AcDbEntity
  8
Bemassung
  6
ByBlock
 62
    0
370
   -2
100
AcDbLine
 10
2805.659122130647
 20
-340.6546451701689
 11
3460.627271904303
 21
-340.6546451701689
  0
LINE
  5
104
100
AcDbEntity
  8
Bemassung
  6
ByBlock
 62
    0
370
   -2
100
AcDbLine
 10
2876.369800249302
 20
-269.9439670515142
 11
2734.948444011992
 21
-411.3653232888237
  0
LINE
  5
105
100
AcDbEntity
  8
Bemassung
  6
ByBlock
 62
    0
370
   -2
100
AcDbLine
 10
3531.337950022958
 20
-269.9439670515142
 11
3389.916593785648
 21
-411.3653232888237
  0
MTEXT
  5
106
100
AcDbEntity
  8
Bemassung
  6
CONTINUOUS
 62
    0
370
   -2
100
AcDbMText
 10
3133.143197017475
 20
-278.1546451701689
 30
0
 40
100
 41
405.555555555568
 71
    5
 72
    1
  1
654,97
  7
standard
210
0
220
0
230
1
 50
0
 73
    2
 44
1
  0
LINE
  5
107
100
AcDbEntity
  8
Bemassung
  6
ByBlock
 62
    0
370
   -2
100
AcDbLine
 10
2805.659122130647
 20
-12.35745750443529
 11
2805.659122130647
 21
-365.6546451701689
  0
LINE
  5
108
100
AcDbEntity
  8
Bemassung
  6
ByBlock
 62
    0
370
   -2
100
AcDbLine
 10
3460.627271904303
 20
-12.35745750443537
 11
3460.627271904303
 21
-365.6546451701689
  0
ENDBLK
  5
8D
330
8B
100
AcDbEntity
  8
0
100
AcDbBlockEnd
  0
BLOCK
  5
8F
330
8E
100
AcDbEntity
  8
0
100
AcDbBlockBegin
  2
*D4
 70
    1
 10
0
 20
0
  3
*D4
  1

  0
LINE
  5
109
100
AcDbEntity
  8
Bemassung
  6
ByBlock
 62
    0
370
   -2
100
AcDbLine
 10
4732.166710988145
 20
4400.142542495565
 11
4732.166710988145
 21
7080.142542495565
  0
LINE
  5
10A
100
AcDbEntity
  8
Bemassung
  6
ByBlock
 62
    0
370
   -2
100
AcDbLine
 10
4661.45603286949
 20
4470.85322061422
 11
4802.877389106799
 21
4329.43186437691
  0
LINE
  5
10B
100
AcDbEntity
  8
Bemassung
  6
ByBlock
 62
    0
370
   -2
100
AcDbLine
 10
4661.45603286949
 20
7150.85322061422
 11
4802.877389106799
 21
7009.43186437691
  0
MTEXT
  5
10C
100
AcDbEntity
  8
Bemassung
  6
CONTINUOUS
 62
    0
370
   -2
100
AcDbMText
 10
4669.666710988145
 20
5740.142542495565
 30
0
 40
100
 41
277.777777777784
 71
    5
 72
    1
  1
2680
  7
standard
210
0
220
0
230
1
 50
90
 73
    2
 44
1
  0
LINE
  5
10D
100
AcDbEntity
  8
Bemassung
  6
ByBlock
 62
    0
370
   -2
100
AcDbLine
 10
4417.243701915463
 20
4400.142542495565
 11
4757.166710988145
 21
4400.142542495565
  0
LINE
  5
10E
100
AcDbEntity
  8
Bemassung
  6
ByBlock
 62
    0
370
   -2
100
AcDbLine
 10
4417.243701915464
 20
7080.142542495565
 11
4757.166710988145
 21
7080.142542495565
  0
ENDBLK
  5
90
330
8E
100
AcDbEntity
  8
0
100
AcDbBlockEnd
  0
ENDSEC
  0
SECTION
  2
ENTITIES
  0
LINE
  5
10F
100
AcDbEntity
  8
0
  6
ByLayer
 62
  256
370
   -1
100
AcDbLine
 10
929.7437019154634
 20
3775.142542495565
 11
929.7437019154634
 21
3705.142542495565
  0
LINE
  5
110
100
AcDbEntity
  8
0
  6
ByLayer
 62
  256
370
   -1
100
AcDbLine
 10
929.7437019154634
 20
3705.142542495565
 11
529.7437019154634
 21
3705.142542495565
  0
LINE
  5
111
100
AcDbEntity
  8
0
  6
ByLayer
 62
  256
370
   -1
100
AcDbLine
 10
529.7437019154634
 20
3705.142542495565
 11
529.7437019154634
 21
3525.142542495565
  0
LINE
  5
112
100
AcDbEntity
  8
0
  6
ByLayer
 62
  256
370
   -1
100
AcDbLine
 10
529.7437019154634
 20
3525.142542495565
 11
-0.2562980845366498
 21
3525.142542495565
  0
LINE
  5
113
100
AcDbEntity
  8
objekte
  6
ByLayer
 62
  256
370
   -1
100
AcDbLine
 10
4364.743701915463
 20
3395.142542495564
 11
4364.743701915463
 21
2535.142542495564
  0
ARC
  5
114
100
AcDbEntity
  8
objekte
  6
ByLayer
 62
  256
370
   -1
100
AcDbCircle
 10
4404.743701915463
 20
400.1425424955645
 40
0
100
AcDbArc
 50
90
 51
180
  0
LINE
  5
115
100
AcDbEntity
  8
objekte
  6
ByLayer
 62
  256
370
   -1
100
AcDbLine
 10
4364.743701915463
 20
2535.142542495564
 11
4364.743701915463
 21
2475.142542495564
  0
LINE
  5
116
100
AcDbEntity
  8
objekte
  6
ByLayer
 62
  256
370
   -1
100
AcDbLine
 10
4364.743701915463
 20
3395.142542495565
 11
4364.743701915463
 21
3455.142542495565
  0
LINE
  5
117
100
AcDbEntity
  8
objekte
  6
ByLayer
 62
  256
370
   -1
100
AcDbLine
 10
4364.743701915463
 20
2475.142542495564
 11
4404.743701915463
 21
2475.142542495564
  0
LINE
  5
118
100
AcDbEntity
  8
objekte
  6
ByLayer
 62
  256
370
   -1
100
AcDbLine
 10
4404.743701915463
 20
3455.142542495565
 11
4404.743701915463
 21
2475.142542495564
  0
LINE
  5
119
100
AcDbEntity
  8
objekte
  6
ByLayer
 62
  256
370
   -1
100
AcDbLine
 10
4364.743701915463
 20
3455.142542495565
 11
4404.743701915463
 21
3455.142542495565
  0
LINE
  5
11A
100
AcDbEntity
  8
objekte
  6
ByLayer
 62
  256
370
   -1
100
AcDbLine
 10
-0.2562980845366498
 20
3525.142542495565
 11
-0.2562980845366529
 21
3475.142542495565
  0
LINE
  5
11B
100
AcDbEntity
  8
objekte
  6
ByLayer
 62
  256
370
   -1
100
AcDbLine
 10
-0.2562980845366529
 20
3475.142542495565
 11
-0.2562980845367119
 21
2510.142542495565
  0
LINE
  5
11C
100
AcDbEntity
  8
objekte
  6
ByLayer
 62
  256
370
   -1
100
AcDbLine
 10
-0.2562980845366529
 20
3475.142542495565
 11
964.7437019154634
 21
3475.142542495565
  0
ARC
  5
11D
100
AcDbEntity
  8
objekte
  6
ByLayer
 62
  256
370
   -1
100
AcDbCircle
 10
-0.2562980845366529
 20
3475.142542495565
 40
965
100
AcDbArc
 50
270
 51
360
  0
LINE
  5
11E
100
AcDbEntity
  8
objekte
  6
ByLayer
 62
  256
370
   -1
100
AcDbLine
 10
729.7437019154632
 20
2455.142542495565
 11
-0.2562980845367153
 21
2455.142542495565
  0
LINE
  5
11F
100
AcDbEntity
  8
objekte
  6
ByLayer
 62
  256
370
   -1
100
AcDbLine
 10
729.7437019154634
 20
3295.142542495565
 11
-0.2562980845366639
 21
3295.142542495565
  0
CIRCLE
  5
120
100
AcDbEntity
  8
objekte
  6
ByLayer
 62
  256
370
   -1
100
AcDbCircle
 10
599.7437019154631
 20
145.142542495565
 40
44.99999999999999
  0
CIRCLE
  5
121
100
AcDbEntity
  8
objekte
  6
ByLayer
 62
  256
370
   -1
100
AcDbCircle
 10
599.7437019154631
 20
260.142542495565
 40
45
  0
LINE
  5
122
100
AcDbEntity
  8
objekte
  6
ByLayer
 62
  256
370
   -1
100
AcDbLine
 10
639.7437019154631
 20
770.1425424955651
 11
529.7437019154631
 21
770.1425424955651
  0
LINE
  5
123
100
AcDbEntity
  8
objekte
  6
ByLayer
 62
  256
370
   -1
100
AcDbLine
 10
529.7437019154631
 20
770.1425424955651
 11
529.7437019154632
 21
1520.142542495565
  0
LINE
  5
124
100
AcDbEntity
  8
objekte
  6
ByLayer
 62
  256
370
   -1
100
AcDbLine
 10
639.7437019154631
 20
770.1425424955651
 11
639.7437019154632
 21
1520.142542495565
  0
LINE
  5
125
100
AcDbEntity
  8
objekte
  6
ByLayer
 62
  256
370
   -1
100
AcDbLine
 10
639.7437019154632
 20
1520.142542495565
 11
529.7437019154632
 21
1520.142542495565
  0
LINE
  5
126
100
AcDbEntity
  8
0
  6
ByLayer
 62
  256
370
   -1
100
AcDbLine
 10
4404.743701915463
 20
0.142542495564513
 11
529.7437019154631
 21
0.1425424955649776
  0
LINE
  5
127
100
AcDbEntity
  8
0
  6
ByLayer
 62
  256
370
   -1
100
AcDbLine
 10
529.7437019154631
 20
0.1425424955649776
 11
529.7437019154631
 21
440.142542495565
  0
LINE
  5
128
100
AcDbEntity
  8
0
  6
ByLayer
 62
  256
370
   -1
100
AcDbLine
 10
-0.2562980845366498
 20
3525.142542495565
 11
-0.2562980845368387
 21
440.1425424955651
  0
LINE
  5
129
100
AcDbEntity
  8
0
  6
ByLayer
 62
  256
370
   -1
100
AcDbLine
 10
529.7437019154631
 20
440.142542495565
 11
-0.2562980845368387
 21
440.1425424955651
  0
LINE
  5
12A
100
AcDbEntity
  8
0
  6
ByLayer
 62
  256
370
   -1
100
AcDbLine
 10
4404.743701915463
 20
4400.142542495565
 11
4404.743701915464
 21
8225.142542495565
  0
LINE
  5
12B
100
AcDbEntity
  8
0
  6
ByLayer
 62
  256
370
   -1
100
AcDbLine
 10
4404.743701915463
 20
4400.142542495565
 11
-0.2562980845365962
 21
4400.142542495565
  0
LINE
  5
12C
100
AcDbEntity
  8
0
  6
ByLayer
 62
  256
370
   -1
100
AcDbLine
 10
289.7437019154635
 20
5940.142542495565
 11
-0.2562980845365019
 21
5940.142542495565
  0
LINE
  5
12D
100
AcDbEntity
  8
0
  6
ByLayer
 62
  256
370
   -1
100
AcDbLine
 10
289.7437019154635
 20
5940.142542495565
 11
289.7437019154635
 21
5970.142542495565
  0
LINE
  5
12E
100
AcDbEntity
  8
0
  6
ByLayer
 62
  256
370
   -1
100
AcDbLine
 10
289.7437019154635
 20
5970.142542495565
 11
-0.2562980845365001
 21
5970.142542495565
  0
LINE
  5
12F
100
AcDbEntity
  8
0
  6
ByLayer
 62
  256
370
   -1
100
AcDbLine
 10
534.7437019154635
 20
5595.142542495565
 11
269.7437019154635
 21
5940.142542495565
  0
LINE
  5
130
100
AcDbEntity
  8
0
  6
ByLayer
 62
  256
370
   -1
100
AcDbLine
 10
534.7437019154636
 20
8195.142542495565
 11
-0.2562980845363638
 21
8195.142542495565
  0
LINE
  5
131
100
AcDbEntity
  8
0
  6
ByLayer
 62
  256
370
   -1
100
AcDbLine
 10
534.7437019154636
 20
8195.142542495565
 11
534.7437019154636
 21
8225.142542495565
  0
LINE
  5
132
100
AcDbEntity
  8
0
  6
ByLayer
 62
  256
370
   -1
100
AcDbLine
 10
534.7437019154634
 20
4400.142542495565
 11
534.7437019154635
 21
5595.142542495565
  0
LINE
  5
133
100
AcDbEntity
  8
0
  6
ByLayer
 62
  256
370
   -1
100
AcDbLine
 10
4404.743701915464
 20
8225.142542495565
 11
534.7437019154636
 21
8225.142542495565
  0
LINE
  5
134
100
AcDbEntity
  8
0
  6
ByLayer
 62
  256
370
   -1
100
AcDbLine
 10
-0.2562980845365962
 20
4400.142542495565
 11
-0.2562980845363638
 21
8195.142542495565
  0
LINE
  5
135
100
AcDbEntity
  8
objekte
  6
ByLayer
 62
  256
370
   -1
100
AcDbLine
 10
3474.743701915463
 20
3395.142542495569
 11
4364.743701915463
 21
3395.142542495564
  0
ARC
  5
136
100
AcDbEntity
  8
objekte
  6
ByLayer
 62
  256
370
   -1
100
AcDbCircle
 10
4364.743701915463
 20
3395.142542495564
 40
890
100
AcDbArc
 50
179.9999999999997
 51
270
  0
LINE
  5
137
100
AcDbEntity
  8
0
  6
ByLayer
 62
  256
370
   -1
100
AcDbLine
 10
4404.743701915463
 20
3775.142542495563
 11
929.7437019154634
 21
3775.142542495565
  0
LINE
  5
138
100
AcDbEntity
  8
0
  6
ByLayer
 62
  256
370
   -1
100
AcDbLine
 10
4404.743701915463
 20
0.142542495564513
 11
4404.743701915463
 21
3775.142542495563
  0
ARC
  5
139
100
AcDbEntity
  8
0
  6
ByLayer
 62
  256
370
   -1
100
AcDbCircle
 10
1141.744799070201
 20
6207.23350241471
 40
3752.090959919145
100
AcDbArc
 50
270.0000003585317
 51
319.5942621146822
  0
LINE
  5
13A
100
AcDbEntity
  8
0
  6
ByLayer
 62
  256
370
   -1
100
AcDbLine
 10
289.7437019154635
 20
2395.142542495565
 11
1141.744822924581
 21
2395.142542495565
  0
LINE
  5
13B
100
AcDbEntity
  8
0
  6
ByLayer
 62
  256
370
   -1
100
AcDbLine
 10
289.7437019154635
 20
2455.142542495565
 11
1141.744822549129
 21
2455.142542495565
  0
ARC
  5
13C
100
AcDbEntity
  8
0
  6
ByLayer
 62
  256
370
   -1
100
AcDbCircle
 10
1141.744799070201
 20
6207.23350241471
 40
3812.090959919145
100
AcDbArc
 50
270.0000003585317
 51
320.3576046518474
  0
LINE
  5
13D
100
AcDbEntity
  8
0
  6
ByLayer
 62
  256
370
   -1
100
AcDbLine
 10
289.7437019154635
 20
2455.142542495565
 11
289.7437019154635
 21
2395.142542495565
  0
LINE
  5
13E
100
AcDbEntity
  8
0
  6
ByLayer
 62
  256
370
   -1
100
AcDbLine
 10
4404.743701915463
 20
-434.8574575044349
 11
4404.743701915466
 21
-4259.857457504435
  0
LINE
  5
13F
100
AcDbEntity
  8
0
  6
ByLayer
 62
  256
370
   -1
100
AcDbLine
 10
4404.743701915463
 20
-434.8574575044349
 11
-0.2562980845365962
 21
-434.8574575044349
  0
LINE
  5
140
100
AcDbEntity
  8
0
  6
ByLayer
 62
  256
370
   -1
100
AcDbLine
 10
289.7437019154635
 20
-1974.857457504435
 11
-0.2562980845365019
 21
-1974.857457504435
  0
LINE
  5
141
100
AcDbEntity
  8
0
  6
ByLayer
 62
  256
370
   -1
100
AcDbLine
 10
289.7437019154635
 20
-1974.857457504435
 11
289.7437019154635
 21
-2004.857457504435
  0
LINE
  5
142
100
AcDbEntity
  8
0
  6
ByLayer
 62
  256
370
   -1
100
AcDbLine
 10
289.7437019154635
 20
-2004.857457504435
 11
-0.2562980845365001
 21
-2004.857457504435
  0
LINE
  5
143
100
AcDbEntity
  8
0
  6
ByLayer
 62
  256
370
   -1
100
AcDbLine
 10
534.7437019154635
 20
-1629.857457504435
 11
269.7437019154634
 21
-1974.857457504435
  0
LINE
  5
144
100
AcDbEntity
  8
0
  6
ByLayer
 62
  256
370
   -1
100
AcDbLine
 10
534.7437019154636
 20
-4229.857457504435
 11
-0.2562980845363638
 21
-4229.857457504435
  0
LINE
  5
145
100
AcDbEntity
  8
0
  6
ByLayer
 62
  256
370
   -1
100
AcDbLine
 10
534.7437019154636
 20
-4229.857457504435
 11
534.7437019154636
 21
-4259.857457504435
  0
LINE
  5
146
100
AcDbEntity
  8
0
  6
ByLayer
 62
  256
370
   -1
100
AcDbLine
 10
534.7437019154634
 20
-434.8574575044349
 11
534.7437019154635
 21
-1629.857457504435
  0
LINE
  5
147
100
AcDbEntity
  8
0
  6
ByLayer
 62
  256
370
   -1
100
AcDbLine
 10
4404.743701915466
 20
-4259.857457504435
 11
534.7437019154636
 21
-4259.857457504435
  0
LINE
  5
148
100
AcDbEntity
  8
0
  6
ByLayer
 62
  256
370
   -1
100
AcDbLine
 10
-0.2562980845365962
 20
-434.8574575044349
 11
-0.2562980845363638
 21
-4229.857457504435
  0
DIMENSION
  5
149
100
AcDbEntity
  8
Bemassung
  6
ByLayer
 62
  256
370
   -1
100
AcDbDimension
  2
*D1
 10
3789.743701915464
 20
6340.142542495565
 30
0
 11
3727.243701915464
 21
6155.142542495565
 31
0
 70
   32
 71
    5
 72
    0
  3
Standard
 53
0
210
0
220
0
230
1
100
AcDbAlignedDimension
 13
3789.743701915464
 23
5970.142542495565
 33
0
 14
3789.743701915464
 24
6340.142542495565
 34
0
 50
90
100
AcDbRotatedDimension
  0
DIMENSION
  5
14A
100
AcDbEntity
  8
Bemassung
  6
ByLayer
 62
  256
370
   -1
100
AcDbDimension
  2
*D2
 10
3789.743701915464
 20
6710.142542495565
 30
0
 11
3727.243701915464
 21
6525.142542495565
 31
0
 70
   32
 71
    5
 72
    0
  3
Standard
 53
0
210
0
220
0
230
1
100
AcDbAlignedDimension
 13
3789.743701915464
 23
6340.142542495565
 33
0
 14
3789.743701915464
 24
6710.142542495565
 34
0
 50
90
100
AcDbRotatedDimension
  0
DIMENSION
  5
14B
100
AcDbEntity
  8
Bemassung
  6
ByLayer
 62
  256
370
   -1
100
AcDbDimension
  2
*D3
 10
3789.743701915464
 20
6710.142542495565
 30
0
 11
3727.243701915464
 21
6895.142542495565
 31
0
 70
   32
 71
    5
 72
    0
  3
Standard
 53
0
210
0
220
0
230
1
100
AcDbAlignedDimension
 13
3821.525746726784
 23
7080.142542495565
 33
0
 14
3789.743701915464
 24
6710.142542495565
 34
0
 50
90
100
AcDbRotatedDimension
  0
DIMENSION
  5
14C
100
AcDbEntity
  8
Bemassung
  6
ByLayer
 62
  256
370
   -1
100
AcDbDimension
  2
*D4
 10
4732.166710988145
 20
7080.142542495565
 30
0
 11
4669.666710988145
 21
5740.142542495565
 31
0
 70
   32
 71
    5
 72
    0
  3
Standard
 53
0
210
0
220
0
230
1
100
AcDbAlignedDimension
 13
4404.743701915463
 23
4400.142542495565
 33
0
 14
4404.743701915464
 24
7080.142542495565
 34
0
 50
90
100
AcDbRotatedDimension
  0
DIMENSION
  5
14D
100
AcDbEntity
  8
Bemassung
  6
ByLayer
 62
  256
370
   -1
100
AcDbDimension
  2
*D5
 10
4035.553337289383
 20
4403.877649819763
 30
0
 11
3973.053337289383
 21
5557.010096157665
 31
0
 70
   32
 71
    5
 72
    0
  3
Standard
 53
0
210
0
220
0
230
1
100
AcDbAlignedDimension
 13
3789.743701915464
 23
6710.142542495565
 33
0
 14
3547.123270673009
 24
4403.877649819763
 34
0
 50
90
100
AcDbRotatedDimension
  0
DIMENSION
  5
14E
100
AcDbEntity
  8
Bemassung
  6
ByLayer
 62
  256
370
   -1
100
AcDbDimension
  2
*D6
 10
3603.172622579806
 20
4403.877649819763
 30
0
 11
3540.672622579806
 21
5372.010096157665
 31
0
 70
   32
 71
    5
 72
    0
  3
Standard
 53
0
210
0
220
0
230
1
100
AcDbAlignedDimension
 13
3789.743701915464
 23
6340.142542495565
 33
0
 14
3362.961114407819
 24
4403.877649819763
 34
0
 50
90
100
AcDbRotatedDimension
  0
DIMENSION
  5
14F
100
AcDbEntity
  8
Bemassung
  6
ByLayer
 62
  256
370
   -1
100
AcDbDimension
  2
*D7
 10
2805.659122130647
 20
-340.6546451701689
 30
0
 11
2468.192724117074
 21
-278.1546451701689
 31
0
 70
   32
 71
    5
  3
Standard
 53
0
210
0
220
0
230
1
100
AcDbAlignedDimension
 13
2130.726326103502
 23
0.1425424955647857
 33
0
 14
2805.659122130647
 24
0.1425424955647056
 34
0
100
AcDbRotatedDimension
  0
DIMENSION
  5
150
100
AcDbEntity
  8
Bemassung
  6
ByLayer
 62
  256
370
   -1
100
AcDbDimension
  2
*D8
 10
3460.627271904303
 20
-340.6546451701689
 30
0
 11
3133.143197017475
 21
-278.1546451701689
 31
0
 70
   32
 71
    5
  3
Standard
 53
0
210
0
220
0
230
1
100
AcDbAlignedDimension
 13
2805.659122130647
 23
0.1425424955647056
 33
0
 14
3460.627271904303
 24
0.1425424955646262
 34
0
100
AcDbRotatedDimension
  0
DIMENSION
  5
151
100
AcDbEntity
  8
Bemassung
  6
ByLayer
 62
  256
370
   -1
100
AcDbDimension
  2
*D9
 10
4404.743701915463
 20
-390.2044117403752
 30
0
 11
3932.685486909883
 21
-327.7044117403752
 31
0
 70
   32
 71
    5
  3
Standard
 53
0
210
0
220
0
230
1
100
AcDbAlignedDimension
 13
3460.627271904303
 23
0.1425424955646262
 33
0
 14
4404.743701915463
 24
0.142542495564513
 34
0
100
AcDbRotatedDimension
  0
DIMENSION
  5
152
100
AcDbEntity
  8
Bemassung
  6
ByLayer
 62
  256
370
   -1
100
AcDbDimension
  2
*D10
 10
2805.659122130647
 20
2430.970174147679
 30
0
 11
2234.409057877655
 21
2493.470174147679
 31
0
 70
   32
 71
    5
  3
Standard
 53
0
210
0
220
0
230
1
100
AcDbAlignedDimension
 13
1663.158993624662
 23
2430.970174147679
 33
0
 14
2805.659122130647
 24
2430.970174147679
 34
0
100
AcDbRotatedDimension
  0
DIMENSION
  5
153
100
AcDbEntity
  8
Bemassung
  6
ByLayer
 62
  256
370
   -1
100
AcDbDimension
  2
*D11
 10
3696.216269274403
 20
2777.448288700656
 30
0
 11
3250.937695702525
 21
2839.948288700656
 31
0
 70
   32
 71
    5
  3
Standard
 53
0
210
0
220
0
230
1
100
AcDbAlignedDimension
 13
2805.659122130647
 23
2777.448288700656
 33
0
 14
3696.216269274403
 24
2777.448288700656
 34
0
100
AcDbRotatedDimension
  0
DIMENSION
  5
154
100
AcDbEntity
  8
Bemassung
  6
ByLayer
 62
  256
370
   -1
100
AcDbDimension
  2
*D12
 10
4404.743701915463
 20
3395.142542495568
 30
0
 11
4080.129807622578
 21
3457.642542495568
 31
0
 70
   32
 71
    5
  3
Standard
 53
0
210
0
220
0
230
1
100
AcDbAlignedDimension
 13
3755.515913329694
 23
3395.142542495568
 33
0
 14
4404.743701915463
 24
3395.142542495568
 34
0
100
AcDbRotatedDimension
  0
DIMENSION
  5
155
100
AcDbEntity
  8
Bemassung
  6
ByLayer
 62
  256
370
   -1
100
AcDbDimension
  2
*D13
 10
1556.339586807723
 20
4400.142542495565
 30
0
 11
1493.839586807723
 21
5185.142542495565
 31
0
 70
   32
 71
    5
  3
Standard
 53
0
210
0
220
0
230
1
100
AcDbAlignedDimension
 13
1619.719931971838
 23
5970.142542495565
 33
0
 14
1739.438361726278
 24
4400.142542495565
 34
0
 50
90
100
AcDbRotatedDimension
  0
DIMENSION
  5
156
100
AcDbEntity
  8
Bemassung
  6
ByLayer
 62
  256
370
   -1
100
AcDbDimension
  2
*D14
 10
5105.638915998186
 20
8225.142542495565
 30
0
 11
5043.138915998186
 21
7652.642542495565
 31
0
 70
   32
 71
    5
  3
Standard
 53
0
210
0
220
0
230
1
100
AcDbAlignedDimension
 13
4380.286076897754
 23
7080.142542495565
 33
0
 14
4330.99025288122
 24
8225.142542495565
 34
0
 50
90
100
AcDbRotatedDimension
  0
DIMENSION
  5
157
100
AcDbEntity
  8
Bemassung
  6
ByLayer
 62
  256
370
   -1
100
AcDbDimension
  2
*D15
 10
2246.481123039202
 20
8225.142542495565
 30
0
 11
2183.981123039202
 21
7467.642542495565
 31
0
 70
   32
 71
    5
  3
Standard
 53
0
210
0
220
0
230
1
100
AcDbAlignedDimension
 13
3070.425610172702
 23
6710.142542495565
 33
0
 14
3077.467870746493
 24
8225.142542495565
 34
0
 50
90
100
AcDbRotatedDimension
  0
LINE
  5
158
100
AcDbEntity
  8
0
  6
ByLayer
 62
  256
370
   -1
100
AcDbLine
 10
4324.743701915463
 20
0.1425424955645228
 11
4324.743701915463
 21
3775.142542495563
  0
LINE
  5
159
100
AcDbEntity
  8
0
  6
ByLayer
 62
  256
370
   -1
100
AcDbLine
 10
2212.192810937224
 20
0.1425424955647759
 11
1742.358729700925
 21
2442.754734639604
  0
LINE
  5
15A
100
AcDbEntity
  8
0
  6
ByLayer
 62
  256
370
   -1
100
AcDbLine
 10
2805.659122130647
 20
0.1425424955647047
 11
2805.659122130647
 21
2777.448288700654
  0
LINE
  5
15B
100
AcDbEntity
  8
0
  6
ByLayer
 62
  256
370
   -1
100
AcDbLine
 10
2885.659122130647
 20
0.1425424955646951
 11
2885.659122130647
 21
2817.425200973182
  0
LINE
  5
15C
100
AcDbEntity
  8
0
  6
ByLayer
 62
  256
370
   -1
100
AcDbLine
 10
3759.031687698896
 20
3435.619021771775
 11
3460.627271904303
 21
0.1425424955646262
  0
LINE
  5
15D
100
AcDbEntity
  8
0
  6
ByLayer
 62
  256
370
   -1
100
AcDbLine
 10
3846.764325932071
 20
3521.175638929029
 11
3540.928489048095
 21
0.1425424955646166
  0
LINE
  5
15E
100
AcDbEntity
  8
0
  6
ByLayer
 62
  256
370
   -1
100
AcDbLine
 10
2130.726326103502
 20
0.1425424955647857
 11
1663.158993624663
 21
2430.970174147678
  0
LINE
  5
15F
100
AcDbEntity
  8
Hilfslinie
  6
ByLayer
 62
  256
370
   -1
100
AcDbLine
 10
1663.158993624663
 20
2430.97017414768
 11
1663.158993624663
 21
7430.97017414768
  0
LINE
  5
160
100
AcDbEntity
  8
Hilfslinie
  6
ByLayer
 62
  256
370
   -1
100
AcDbLine
 10
1742.358729700924
 20
2442.754734639604
 11
1742.358729700925
 21
7442.754734639604
  0
LINE
  5
161
100
AcDbEntity
  8
Hilfslinie
  6
ByLayer
 62
  256
370
   -1
100
AcDbLine
 10
2805.659122130647
 20
2777.448288700654
 11
2805.659122130648
 21
7777.448288700654
  0
LINE
  5
162
100
AcDbEntity
  8
Hilfslinie
  6
ByLayer
 62
  256
370
   -1
100
AcDbLine
 10
2885.659122130647
 20
2817.425200973182
 11
2885.659122130648
 21
7817.425200973183
  0
LINE
  5
163
100
AcDbEntity
  8
Hilfslinie
  6
ByLayer
 62
  256
370
   -1
100
AcDbLine
 10
3759.031687698896
 20
3435.619021771775
 11
3759.031687698896
 21
8435.619021771776
  0
LINE
  5
164
100
AcDbEntity
  8
Hilfslinie
  6
ByLayer
 62
  256
370
   -1
100
AcDbLine
 10
3846.764325932071
 20
3521.175638929029
 11
3846.764325932072
 21
8521.175638929029
  0
LINE
  5
165
100
AcDbEntity
  8
Hilfslinie
  6
ByLayer
 62
  256
370
   -1
100
AcDbLine
 10
4077.212572590603
 20
3775.142542495561
 11
4077.212572590603
 21
8775.142542495561
  0
LINE
  5
166
100
AcDbEntity
  8
0
  6
ByLayer
 62
  256
370
   -1
100
AcDbLine
 10
1663.158993624663
 20
5848.142542495565
 11
1663.158993624663
 21
5948.142542495565
  0
LINE
  5
167
100
AcDbEntity
  8
0
  6
ByLayer
 62
  256
370
   -1
100
AcDbLine
 10
1742.358729700924
 20
5848.142542495565
 11
1742.358729700924
 21
5948.142542495565
  0
LINE
  5
168
100
AcDbEntity
  8
0
  6
ByLayer
 62
  256
370
   -1
100
AcDbLine
 10
1663.158993624663
 20
6218.142542495565
 11
1663.158993624663
 21
6318.142542495565
  0
LINE
  5
169
100
AcDbEntity
  8
0
  6
ByLayer
 62
  256
370
   -1
100
AcDbLine
 10
1742.358729700924
 20
6218.142542495565
 11
1742.358729700924
 21
6318.142542495565
  0
LINE
  5
16A
100
AcDbEntity
  8
0
  6
ByLayer
 62
  256
370
   -1
100
AcDbLine
 10
2805.659122130648
 20
6218.142542495565
 11
2805.659122130648
 21
6318.142542495565
  0
LINE
  5
16B
100
AcDbEntity
  8
0
  6
ByLayer
 62
  256
370
   -1
100
AcDbLine
 10
2885.659122130648
 20
6318.142542495565
 11
2885.659122130648
 21
6218.142542495565
  0
LINE
  5
16C
100
AcDbEntity
  8
0
  6
ByLayer
 62
  256
370
   -1
100
AcDbLine
 10
2805.659122130648
 20
6588.142542495565
 11
2805.659122130648
 21
6688.142542495565
  0
LINE
  5
16D
100
AcDbEntity
  8
0
  6
ByLayer
 62
  256
370
   -1
100
AcDbLine
 10
2885.659122130648
 20
6688.142542495565
 11
2885.659122130648
 21
6588.142542495565
  0
LINE
  5
16E
100
AcDbEntity
  8
0
  6
ByLayer
 62
  256
370
   -1
100
AcDbLine
 10
3759.031687698896
 20
6688.142542495565
 11
3759.031687698896
 21
6588.142542495565
  0
LINE
  5
16F
100
AcDbEntity
  8
0
  6
ByLayer
 62
  256
370
   -1
100
AcDbLine
 10
3846.764325932071
 20
6688.142542495565
 11
3846.764325932071
 21
6588.142542495565
  0
LINE
  5
170
100
AcDbEntity
  8
0
  6
ByLayer
 62
  256
370
   -1
100
AcDbLine
 10
3759.031687698896
 20
6958.142542495565
 11
3759.031687698896
 21
7058.142542495565
  0
LINE
  5
171
100
AcDbEntity
  8
0
  6
ByLayer
 62
  256
370
   -1
100
AcDbLine
 10
3846.764325932071
 20
7058.142542495565
 11
3846.764325932071
 21
6958.142542495565
  0
LINE
  5
172
100
AcDbEntity
  8
Hilfslinie
  6
ByLayer
 62
  256
370
   -1
100
AcDbLine
 10
289.7437019154635
 20
5970.142542495565
 11
3789.743701915464
 21
5970.142542495565
  0
LINE
  5
173
100
AcDbEntity
  8
Hilfslinie
  6
ByLayer
 62
  256
370
   -1
100
AcDbLine
 10
4404.743701915464
 20
7080.142542495565
 11
534.7437019154634
 21
7080.142542495565
  0
LINE
  5
174
100
AcDbEntity
  8
Hilfslinie
  6
ByLayer
 62
  256
370
   -1
100
AcDbLine
 10
289.7437019154635
 20
6340.142542495565
 11
3789.743701915464
 21
6340.142542495565
  0
LINE
  5
175
100
AcDbEntity
  8
Hilfslinie
  6
ByLayer
 62
  256
370
   -1
100
AcDbLine
 10
289.7437019154635
 20
-2004.857457504435
 11
3789.743701915463
 21
-2004.857457504435
  0
LINE
  5
176
100
AcDbEntity
  8
Hilfslinie
  6
ByLayer
 62
  256
370
   -1
100
AcDbLine
 10
4404.743701915466
 20
-3114.857457504435
 11
534.7437019154634
 21
-3114.857457504435
  0
LINE
  5
177
100
AcDbEntity
  8
Hilfslinie
  6
ByLayer
 62
  256
370
   -1
100
AcDbLine
 10
289.7437019154635
 20
-2374.857457504435
 11
3789.743701915463
 21
-2374.857457504435
  0
LINE
  5
178
100
AcDbEntity
  8
Hilfslinie
  6
ByLayer
 62
  256
370
   -1
100
AcDbLine
 10
289.7437019154635
 20
-2744.857457504435
 11
3789.743701915463
 21
-2744.857457504435
  0
LINE
  5
179
100
AcDbEntity
  8
Hilfslinie
  6
ByLayer
 62
  256
370
   -1
100
AcDbLine
 10
4404.743701915464
 20
7058.142542495565
 11
534.7437019154634
 21
7058.142542495565
  0
LINE
  5
17A
100
AcDbEntity
  8
Hilfslinie
  6
ByLayer
 62
  256
370
   -1
100
AcDbLine
 10
289.7437019154635
 20
6318.142542495565
 11
3789.743701915464
 21
6318.142542495565
  0
LINE
  5
17B
100
AcDbEntity
  8
Hilfslinie
  6
ByLayer
 62
  256
370
   -1
100
AcDbLine
 10
289.7437019154635
 20
5948.142542495565
 11
3789.743701915464
 21
5948.142542495565
  0
LINE
  5
17C
100
AcDbEntity
  8
Hilfslinie
  6
ByLayer
 62
  256
370
   -1
100
AcDbLine
 10
4404.743701915466
 20
-3092.857457504435
 11
534.7437019154634
 21
-3092.857457504435
  0
LINE
  5
17D
100
AcDbEntity
  8
Hilfslinie
  6
ByLayer
 62
  256
370
   -1
100
AcDbLine
 10
289.7437019154635
 20
-2722.857457504435
 11
3789.743701915463
 21
-2722.857457504435
  0
LINE
  5
17E
100
AcDbEntity
  8
Hilfslinie
  6
ByLayer
 62
  256
370
   -1
100
AcDbLine
 10
289.7437019154635
 20
-2352.857457504435
 11
3789.743701915463
 21
-2352.857457504435
  0
LINE
  5
17F
100
AcDbEntity
  8
Hilfslinie
  6
ByLayer
 62
  256
370
   -1
100
AcDbLine
 10
289.7437019154635
 20
-1982.857457504435
 11
3789.743701915463
 21
-1982.857457504435
  0
LINE
  5
180
100
AcDbEntity
  8
Hilfslinie
  6
ByLayer
 62
  256
370
   -1
100
AcDbLine
 10
4404.743701915464
 20
6958.142542495565
 11
534.7437019154634
 21
6958.142542495565
  0
LINE
  5
181
100
AcDbEntity
  8
Hilfslinie
  6
ByLayer
 62
  256
370
   -1
100
AcDbLine
 10
289.7437019154635
 20
6218.142542495565
 11
3789.743701915464
 21
6218.142542495565
  0
LINE
  5
182
100
AcDbEntity
  8
Hilfslinie
  6
ByLayer
 62
  256
370
   -1
100
AcDbLine
 10
289.7437019154635
 20
5848.142542495565
 11
3789.743701915464
 21
5848.142542495565
  0
LINE
  5
183
100
AcDbEntity
  8
Hilfslinie
  6
ByLayer
 62
  256
370
   -1
100
AcDbLine
 10
4404.743701915466
 20
-2992.857457504435
 11
534.7437019154634
 21
-2992.857457504435
  0
LINE
  5
184
100
AcDbEntity
  8
Hilfslinie
  6
ByLayer
 62
  256
370
   -1
100
AcDbLine
 10
289.7437019154635
 20
-2622.857457504435
 11
3789.743701915463
 21
-2622.857457504435
  0
LINE
  5
185
100
AcDbEntity
  8
Hilfslinie
  6
ByLayer
 62
  256
370
   -1
100
AcDbLine
 10
289.7437019154635
 20
-2252.857457504435
 11
3789.743701915463
 21
-2252.857457504435
  0
LINE
  5
186
100
AcDbEntity
  8
Hilfslinie
  6
ByLayer
 62
  256
370
   -1
100
AcDbLine
 10
289.7437019154635
 20
-1882.857457504435
 11
3789.743701915463
 21
-1882.857457504435
  0
LINE
  5
187
100
AcDbEntity
  8
Hilfslinie
  6
ByLayer
 62
  256
370
   -1
100
AcDbLine
 10
289.7437019154635
 20
6688.142542495565
 11
3846.764325932071
 21
6688.142542495565
  0
LINE
  5
188
100
AcDbEntity
  8
Hilfslinie
  6
ByLayer
 62
  256
370
   -1
100
AcDbLine
 10
289.7437019154635
 20
6588.142542495565
 11
3846.764325932071
 21
6588.142542495565
  0
LINE
  5
189
100
AcDbEntity
  8
Hilfslinie
  6
ByLayer
 62
  256
370
   -1
100
AcDbLine
 10
289.7437019154635
 20
6710.142542495565
 11
3846.764325932071
 21
6710.142542495565
  0
LINE
  5
18A
100
AcDbEntity
  8
Hilfslinie
  6
ByLayer
 62
  256
370
   -1
100
AcDbLine
 10
369.7437019154639
 20
5848.142542495565
 11
369.7437019154635
 21
5948.142542495565
  0
LINE
  5
18B
100
AcDbEntity
  8
0
  6
ByLayer
 62
  256
370
   -1
100
AcDbLine
 10
340.4103685821301
 20
5848.142542495565
 11
369.7437019154639
 21
5848.142542495565
  0
LINE
  5
18C
100
AcDbEntity
  8
0
  6
ByLayer
 62
  256
370
   -1
100
AcDbLine
 10
369.7437019154635
 20
5948.142542495565
 11
289.7437019154635
 21
5948.142542495565
  0
LINE
  5
18D
100
AcDbEntity
  8
0
  6
ByLayer
 62
  256
370
   -1
100
AcDbLine
 10
369.7437019154635
 20
5948.142542495565
 11
369.7437019154639
 21
5848.142542495565
  0
LINE
  5
18E
100
AcDbEntity
  8
0
  6
ByLayer
 62
  256
370
   -1
100
AcDbLine
 10
289.7437019154635
 20
5948.142542495565
 11
289.743701915464
 21
5914.104806646508
  0
LINE
  5
18F
100
AcDbEntity
  8
0
  6
ByLayer
 62
  256
370
   -1
100
AcDbLine
 10
1663.158993624663
 20
6318.142542495565
 11
1742.358729700924
 21
6318.142542495565
  0
LINE
  5
190
100
AcDbEntity
  8
0
  6
ByLayer
 62
  256
370
   -1
100
AcDbLine
 10
2805.659122130648
 20
6318.142542495565
 11
2885.659122130648
 21
6318.142542495565
  0
LINE
  5
191
100
AcDbEntity
  8
0
  6
ByLayer
 62
  256
370
   -1
100
AcDbLine
 10
2805.659122130648
 20
6218.142542495565
 11
2885.659122130648
 21
6218.142542495565
  0
LINE
  5
192
100
AcDbEntity
  8
0
  6
ByLayer
 62
  256
370
   -1
100
AcDbLine
 10
2805.659122130648
 20
6688.142542495565
 11
2885.659122130648
 21
6688.142542495565
  0
LINE
  5
193
100
AcDbEntity
  8
0
  6
ByLayer
 62
  256
370
   -1
100
AcDbLine
 10
2805.659122130648
 20
6588.142542495565
 11
2885.659122130648
 21
6588.142542495565
  0
LINE
  5
194
100
AcDbEntity
  8
0
  6
ByLayer
 62
  256
370
   -1
100
AcDbLine
 10
1663.158993624663
 20
6218.142542495565
 11
1742.358729700924
 21
6218.142542495565
  0
LINE
  5
195
100
AcDbEntity
  8
0
  6
ByLayer
 62
  256
370
   -1
100
AcDbLine
 10
1663.158993624663
 20
5848.142542495565
 11
1742.358729700924
 21
5848.142542495565
  0
LINE
  5
196
100
AcDbEntity
  8
0
  6
ByLayer
 62
  256
370
   -1
100
AcDbLine
 10
1742.358729700924
 20
5948.142542495565
 11
1663.158993624663
 21
5948.142542495565
  0
LINE
  5
197
100
AcDbEntity
  8
0
  6
ByLayer
 62
  256
370
   -1
100
AcDbLine
 10
3759.031687698896
 20
7058.142542495565
 11
3846.764325932071
 21
7058.142542495565
  0
LINE
  5
198
100
AcDbEntity
  8
0
  6
ByLayer
 62
  256
370
   -1
100
AcDbLine
 10
3846.764325932071
 20
6958.142542495565
 11
3759.031687698896
 21
6958.142542495565
  0
LINE
  5
199
100
AcDbEntity
  8
0
  6
ByLayer
 62
  256
370
   -1
100
AcDbLine
 10
3846.764325932071
 20
6688.142542495565
 11
3759.031687698896
 21
6688.142542495565
  0
LINE
  5
19A
100
AcDbEntity
  8
0
  6
ByLayer
 62
  256
370
   -1
100
AcDbLine
 10
3759.031687698896
 20
6588.142542495565
 11
3846.764325932071
 21
6588.142542495565
  0
CIRCLE
  5
19B
100
AcDbEntity
  8
Hilfslinie
  6
ByLayer
 62
  256
370
   -1
100
AcDbCircle
 10
1742.358729700924
 20
5848.142542495565
 40
100
  0
CIRCLE
  5
19C
100
AcDbEntity
  8
Hilfslinie
  6
ByLayer
 62
  256
370
   -1
100
AcDbCircle
 10
2885.659122130647
 20
6218.142542495565
 40
100
  0
CIRCLE
  5
19D
100
AcDbEntity
  8
Hilfslinie
  6
ByLayer
 62
  256
370
   -1
100
AcDbCircle
 10
3846.764325932071
 20
6588.142542495565
 40
100
  0
LINE
  5
19E
100
AcDbEntity
  8
0
  6
ByLayer
 62
  256
370
   -1
100
AcDbLine
 10
1753.297629458499
 20
5747.805091282767
 11
534.7437019154635
 21
5443.667423541691
  0
ARC
  5
19F
100
AcDbEntity
  8
0
  6
ByLayer
 62
  256
370
   -1
100
AcDbCircle
 10
1632.21747680406
 20
6232.923217756287
 40
500
100
AcDbArc
 50
284.0140784797264
 51
287.9328507387073
  0
LINE
  5
1A0
100
AcDbEntity
  8
0
  6
ByLayer
 62
  256
370
   -1
100
AcDbLine
 10
3941.328360479409
 20
6495.400675653504
 11
4077.212572590603
 21
6506.291030430664
  0
LINE
  5
1A1
100
AcDbEntity
  8
0
  6
ByLayer
 62
  256
370
   -1
100
AcDbLine
 10
3801.63738338477
 20
6463.615559268825
 11
2921.586139186011
 21
6124.819182903748
  0
ARC
  5
1A2
100
AcDbEntity
  8
0
  6
ByLayer
 62
  256
370
   -1
100
AcDbCircle
 10
3981.272468661587
 20
5996.998761309738
 40
500
100
AcDbArc
 50
94.582140440104
 51
111.0553814695199
  0
LINE
  5
1A3
100
AcDbEntity
  8
objekte
  6
ByLayer
 62
  256
370
   -1
100
AcDbLine
 10
729.7437019154634
 20
3295.142542495565
 11
729.7437019154632
 21
2455.142542495565
  0
CIRCLE
  5
1A4
100
AcDbEntity
  8
Hilfslinie
  6
ByLayer
 62
  256
370
   -1
100
AcDbCircle
 10
3759.031687698896
 20
7058.142542495565
 40
50
  0
CIRCLE
  5
1A5
100
AcDbEntity
  8
Hilfslinie
  6
ByLayer
 62
  256
370
   -1
100
AcDbCircle
 10
2805.659122130648
 20
6688.142542495565
 40
50
  0
CIRCLE
  5
1A6
100
AcDbEntity
  8
Hilfslinie
  6
ByLayer
 62
  256
370
   -1
100
AcDbCircle
 10
1663.158993624663
 20
6318.142542495565
 40
50
  0
LINE
  5
1A7
100
AcDbEntity
  8
Hilfslinie
  6
ByLayer
 62
  256
370
   -1
100
AcDbLine
 10
1229.743701915463
 20
2455.142542495565
 11
1229.743701915463
 21
7455.142542495565
  0
ARC
  5
1A8
100
AcDbEntity
  8
0
  6
ByLayer
 62
  256
370
   -1
100
AcDbCircle
 10
1900.554128319004
 20
5922.013599107788
 40
500
100
AcDbArc
 50
107.9446066118127
 51
133.9228556421255
  0
ARC
  5
1A9
100
AcDbEntity
  8
0
  6
ByLayer
 62
  256
370
   -1
100
AcDbCircle
 10
1905.016079482082
 20
5926.310860169908
 40
500
100
AcDbArc
 50
109.4468466272475
 51
133.9228556421255
  0
LINE
  5
1AA
100
AcDbEntity
  8
0
  6
ByLayer
 62
  256
370
   -1
100
AcDbLine
 10
1558.171476776856
 20
6286.448086202226
 11
1258.78828905855
 21
5998.115097289101
  0
LINE
  5
1AB
100
AcDbEntity
  8
0
  6
ByLayer
 62
  256
370
   -1
100
AcDbLine
 10
289.7437019154635
 20
5970.142542495565
 11
1189.419368517504
 21
5970.142542495565
  0
ARC
  5
1AC
100
AcDbEntity
  8
0
  6
ByLayer
 62
  256
370
   -1
100
AcDbCircle
 10
1189.419368517504
 20
6070.142542495565
 40
100
100
AcDbArc
 50
270
 51
313.9228556421254
  0
LINE
  5
1AD
100
AcDbEntity
  8
0
  6
ByLayer
 62
  256
370
   -1
100
AcDbLine
 10
2802.460790619157
 20
6739.663385193595
 11
1746.505442566233
 21
6397.691013347569
  0
ARC
  5
1AE
100
AcDbEntity
  8
0
  6
ByLayer
 62
  256
370
   -1
100
AcDbCircle
 10
2956.509476371928
 20
6263.985970953814
 40
500
100
AcDbArc
 50
107.9446066118127
 51
111.2110295265417
  0
LINE
  5
1AF
100
AcDbEntity
  8
0
  6
ByLayer
 62
  256
370
   -1
100
AcDbLine
 10
3732.203046452341
 20
7101.36389838113
 11
2775.607457791745
 21
6730.113056278853
  0
ARC
  5
1B0
100
AcDbEntity
  8
0
  6
ByLayer
 62
  256
370
   -1
100
AcDbCircle
 10
3768.383450168378
 20
7008.138481316123
 40
100
100
AcDbArc
 50
89.9751470464484
 51
111.2110295265418
  0
LINE
  5
1B1
100
AcDbEntity
  8
0
  6
ByLayer
 62
  256
370
   -1
100
AcDbLine
 10
3767.632234078953
 20
7108.138816575684
 11
4077.212572590603
 21
7108.004531182913
  0
LINE
  5
1B2
100
AcDbEntity
  8
0
  6
ByLayer
 62
  256
370
   -1
100
AcDbLine
 10
1738.549966521595
 20
6397.786239416615
 11
3734.295634901384
 21
7102.433901832667
  0
ARC
  5
1B3
100
AcDbEntity
  8
0
  6
ByLayer
 62
  256
370
   -1
100
AcDbCircle
 10
3767.588857493482
 20
7008.138825983326
 40
100
100
AcDbArc
 50
89.9751470464484
 51
109.4468466272476
  0
LINE
  5
1B4
100
AcDbEntity
  8
0
  6
ByLayer
 62
  256
370
   -1
100
AcDbLine
 10
1213.183757014541
 20
5438.017610993551
 11
534.7437019154635
 21
5319.990151871414
  0
ARC
  5
1B5
100
AcDbEntity
  8
0
  6
ByLayer
 62
  256
370
   -1
100
AcDbCircle
 10
1196.044299669771
 20
5536.537857653448
 40
100
100
AcDbArc
 50
279.8689124017275
 51
299.6994014051791
  0
LINE
  5
1B6
100
AcDbEntity
  8
0
  6
ByLayer
 62
  256
370
   -1
100
AcDbLine
 10
534.7437019154635
 20
5443.667423541691
 11
1213.949547773001
 21
5507.5417838105
  0
ARC
  5
1B7
100
AcDbEntity
  8
0
  6
ByLayer
 62
  256
370
   -1
100
AcDbCircle
 10
1204.586588511431
 20
5607.102493901711
 40
100
100
AcDbArc
 50
275.3724496771436
 51
294.1428607837086
  0
LINE
  5
1B8
100
AcDbEntity
  8
0
  6
ByLayer
 62
  256
370
   -1
100
AcDbLine
 10
1774.001966164111
 20
5751.068158848826
 11
1245.589259011832
 21
5449.674188586377
  0
ARC
  5
1B9
100
AcDbEntity
  8
0
  6
ByLayer
 62
  256
370
   -1
100
AcDbCircle
 10
1823.546925506173
 20
5664.204489781755
 40
100
100
AcDbArc
 50
107.9328507387072
 51
119.6994014051791
  0
LINE
  5
1BA
100
AcDbEntity
  8
0
  6
ByLayer
 62
  256
370
   -1
100
AcDbLine
 10
1752.72820974421
 20
5748.681626133248
 11
510.8816293057196
 21
5619.210635882522
  0
ARC
  5
1BB
100
AcDbEntity
  8
0
  6
ByLayer
 62
  256
370
   -1
100
AcDbCircle
 10
1742.358729700929
 20
5848.142542495565
 40
100
100
AcDbArc
 50
275.9519736430028
 51
287.9328507387074
  0
LINE
  5
1BC
100
AcDbEntity
  8
0
  6
ByLayer
 62
  256
370
   -1
100
AcDbLine
 10
2916.449338858873
 20
6123.0007401486
 11
1783.471008977037
 21
5756.341212318473
  0
LINE
  5
1BD
100
AcDbEntity
  8
0
  6
ByLayer
 62
  256
370
   -1
100
AcDbLine
 10
1773.359905461127
 20
5752.452256514982
 11
1245.487908755567
 21
5515.849647358238
  0
ARC
  5
1BE
100
AcDbEntity
  8
0
  6
ByLayer
 62
  256
370
   -1
100
AcDbCircle
 10
1814.261225705262
 20
5661.19940997151
 40
100
100
AcDbArc
 50
107.9328507387074
 51
114.1428607837086
  0
LINE
  5
1BF
100
AcDbEntity
  8
0
  6
ByLayer
 62
  256
370
   -1
100
AcDbLine
 10
4077.212572590603
 20
7108.004531182913
 11
4077.212572590603
 21
6506.291030430664
  0
LINE
  5
1C0
100
AcDbEntity
  8
objekte
  6
ByLayer
 62
  256
370
   -1
100
AcDbLine
 10
729.7437019154634
 20
3295.142542495565
 11
729.7437019154632
 21
2455.142542495565
  0
LINE
  5
1C1
100
AcDbEntity
  8
0
  6
ByLayer
 62
  256
370
   -1
100
AcDbLine
 10
7915.186884646837
 20
5747.805079978564
 11
6696.6329571038
 21
5443.667412237489
  0
LINE
  5
1C2
100
AcDbEntity
  8
0
  6
ByLayer
 62
  256
370
   -1
100
AcDbLine
 10
6451.6329571038
 20
5970.142531191363
 11
7351.308623705841
 21
5970.142531191363
  0
ARC
  5
1C3
100
AcDbEntity
  8
0
  6
ByLayer
 62
  256
370
   -1
100
AcDbCircle
 10
7351.308623705841
 20
6070.142531191363
 40
100
100
AcDbArc
 50
270
 51
313.9228556421254
  0
LINE
  5
1C4
100
AcDbEntity
  8
0
  6
ByLayer
 62
  256
370
   -1
100
AcDbLine
 10
6696.6329571038
 20
5443.667412237489
 11
7375.838802961338
 21
5507.541772506297
  0
ARC
  5
1C5
100
AcDbEntity
  8
0
  6
ByLayer
 62
  256
370
   -1
100
AcDbCircle
 10
7366.475843699768
 20
5607.102482597508
 40
100
100
AcDbArc
 50
275.3724496771436
 51
294.1428607837086
  0
LINE
  5
1C6
100
AcDbEntity
  8
0
  6
ByLayer
 62
  256
370
   -1
100
AcDbLine
 10
7914.617464932548
 20
5748.681614829045
 11
6672.770884494057
 21
5619.21062457832
  0
LINE
  5
1C7
100
AcDbEntity
  8
0
  6
ByLayer
 62
  256
370
   -1
100
AcDbLine
 10
7935.249160649464
 20
5752.452245210779
 11
7407.377163943904
 21
5515.849636054036
  0
LINE
  5
1C8
100
AcDbEntity
  8
AbwicklungAnsicht
  6
ByLayer
 62
  256
370
   -1
100
AcDbLine
 10
6451.632957103809
 20
3470.142531191363
 11
6451.632957103809
 21
8470.142531191363
  0
LINE
  5
1C9
100
AcDbEntity
  8
AbwicklungAnsicht
  6
ByLayer
 62
  256
370
   -1
100
AcDbLine
 10
6651.632957103809
 20
3470.142531191363
 11
6651.632957103809
 21
8470.142531191363
  0
LINE
  5
1CA
100
AcDbEntity
  8
AbwicklungAnsicht
  6
ByLayer
 62
  256
370
   -1
100
AcDbLine
 10
6851.632957103809
 20
3470.142531191363
 11
6851.632957103809
 21
8470.142531191363
  0
LINE
  5
1CB
100
AcDbEntity
  8
AbwicklungAnsicht
  6
ByLayer
 62
  256
370
   -1
100
AcDbLine
 10
7051.632957103809
 20
3470.142531191363
 11
7051.632957103809
 21
8470.142531191363
  0
LINE
  5
1CC
100
AcDbEntity
  8
AbwicklungAnsicht
  6
ByLayer
 62
  256
370
   -1
100
AcDbLine
 10
7251.632957103809
 20
3470.142531191363
 11
7251.632957103809
 21
8470.142531191363
  0
LINE
  5
1CD
100
AcDbEntity
  8
AbwicklungAnsicht
  6
ByLayer
 62
  256
370
   -1
100
AcDbLine
 10
7451.632957103809
 20
3470.142531191362
 11
7451.632957103809
 21
8470.142531191363
  0
LINE
  5
1CE
100
AcDbEntity
  8
AbwicklungAnsicht
  6
ByLayer
 62
  256
370
   -1
100
AcDbLine
 10
7651.632957103809
 20
3470.142531191362
 11
7651.632957103809
 21
8470.142531191363
  0
LINE
  5
1CF
100
AcDbEntity
  8
AbwicklungAnsicht
  6
ByLayer
 62
  256
370
   -1
100
AcDbLine
 10
7851.632957103809
 20
3470.142531191362
 11
7851.632957103809
 21
8470.142531191363
  0
LINE
  5
1D0
100
AcDbEntity
  8
AbwicklungAnsicht
  6
ByLayer
 62
  256
370
   -1
100
AcDbLine
 10
8051.632957103809
 20
3470.142531191362
 11
8051.632957103809
 21
8470.142531191363
  0
LINE
  5
1D1
100
AcDbEntity
  8
AbwicklungAnsicht
  6
ByLayer
 62
  256
370
   -1
100
AcDbLine
 10
8251.632957103808
 20
3470.142531191362
 11
8251.632957103808
 21
8470.142531191363
  0
LINE
  5
1D2
100
AcDbEntity
  8
AbwicklungAnsicht
  6
ByLayer
 62
  256
370
   -1
100
AcDbLine
 10
8451.632957103808
 20
3470.142531191362
 11
8451.632957103808
 21
8470.142531191363
  0
LINE
  5
1D3
100
AcDbEntity
  8
AbwicklungAnsicht
  6
ByLayer
 62
  256
370
   -1
100
AcDbLine
 10
8651.632957103808
 20
3470.142531191362
 11
8651.632957103808
 21
8470.142531191363
  0
LINE
  5
1D4
100
AcDbEntity
  8
AbwicklungAnsicht
  6
ByLayer
 62
  256
370
   -1
100
AcDbLine
 10
8851.632957103808
 20
3470.142531191362
 11
8851.632957103808
 21
8470.142531191363
  0
LINE
  5
1D5
100
AcDbEntity
  8
AbwicklungAnsicht
  6
ByLayer
 62
  256
370
   -1
100
AcDbLine
 10
9051.632957103808
 20
3470.142531191362
 11
9051.632957103808
 21
8470.142531191363
  0
LINE
  5
1D6
100
AcDbEntity
  8
AbwicklungAnsicht
  6
ByLayer
 62
  256
370
   -1
100
AcDbLine
 10
9251.632957103808
 20
3470.142531191362
 11
9251.632957103808
 21
8470.142531191363
  0
LINE
  5
1D7
100
AcDbEntity
  8
AbwicklungAnsicht
  6
ByLayer
 62
  256
370
   -1
100
AcDbLine
 10
9451.632957103808
 20
3470.142531191362
 11
9451.632957103808
 21
8470.142531191363
  0
LINE
  5
1D8
100
AcDbEntity
  8
AbwicklungAnsicht
  6
ByLayer
 62
  256
370
   -1
100
AcDbLine
 10
9651.632957103808
 20
3470.142531191362
 11
9651.632957103808
 21
8470.142531191363
  0
LINE
  5
1D9
100
AcDbEntity
  8
AbwicklungAnsicht
  6
ByLayer
 62
  256
370
   -1
100
AcDbLine
 10
9851.632957103808
 20
3470.142531191362
 11
9851.632957103808
 21
8470.142531191363
  0
LINE
  5
1DA
100
AcDbEntity
  8
AbwicklungAnsicht
  6
ByLayer
 62
  256
370
   -1
100
AcDbLine
 10
10051.63295710381
 20
3470.142531191362
 11
10051.63295710381
 21
8470.142531191363
  0
LINE
  5
1DB
100
AcDbEntity
  8
AbwicklungAnsicht
  6
ByLayer
 62
  256
370
   -1
100
AcDbLine
 10
10251.63295710381
 20
3470.142531191362
 11
10251.63295710381
 21
8470.142531191361
  0
LINE
  5
1DC
100
AcDbEntity
  8
AbwicklungAnsicht
  6
ByLayer
 62
  256
370
   -1
100
AcDbLine
 10
10451.63295710381
 20
3470.142531191362
 11
10451.63295710381
 21
8470.142531191361
  0
CIRCLE
  5
1DD
100
AcDbEntity
  8
AbwicklungGrund
  6
ByLayer
 62
  256
370
   -1
100
AcDbCircle
 10
6451.632957103809
 20
2395.142531191363
 40
200
  0
CIRCLE
  5
1DE
100
AcDbEntity
  8
AbwicklungGrund
  6
ByLayer
 62
  256
370
   -1
100
AcDbCircle
 10
6651.632957103809
 20
2395.142531191363
 40
200
  0
CIRCLE
  5
1DF
100
AcDbEntity
  8
AbwicklungGrund
  6
ByLayer
 62
  256
370
   -1
100
AcDbCircle
 10
6851.632957103809
 20
2395.142531191363
 40
200
  0
CIRCLE
  5
1E0
100
AcDbEntity
  8
AbwicklungGrund
  6
ByLayer
 62
  256
370
   -1
100
AcDbCircle
 10
7051.632957103796
 20
2395.142531191363
 40
200
  0
CIRCLE
  5
1E1
100
AcDbEntity
  8
AbwicklungGrund
  6
ByLayer
 62
  256
370
   -1
100
AcDbCircle
 10
7251.632957103784
 20
2395.142531191363
 40
200
  0
CIRCLE
  5
1E2
100
AcDbEntity
  8
AbwicklungGrund
  6
ByLayer
 62
  256
370
   -1
100
AcDbCircle
 10
7451.632957103784
 20
2395.142531191363
 40
200
  0
CIRCLE
  5
1E3
100
AcDbEntity
  8
AbwicklungGrund
  6
ByLayer
 62
  256
370
   -1
100
AcDbCircle
 10
7651.00314465168
 20
2411.002175484875
 40
200
  0
CIRCLE
  5
1E4
100
AcDbEntity
  8
AbwicklungGrund
  6
ByLayer
 62
  256
370
   -1
100
AcDbCircle
 10
7849.624461574527
 20
2434.445137410263
 40
200
  0
CIRCLE
  5
1E5
100
AcDbEntity
  8
AbwicklungGrund
  6
ByLayer
 62
  256
370
   -1
100
AcDbCircle
 10
8046.742918605039
 20
2468.272846435715
 40
200
  0
CIRCLE
  5
1E6
100
AcDbEntity
  8
AbwicklungGrund
  6
ByLayer
 62
  256
370
   -1
100
AcDbCircle
 10
8241.815939501696
 20
2512.3921904727
 40
200
  0
CIRCLE
  5
1E7
100
AcDbEntity
  8
AbwicklungGrund
  6
ByLayer
 62
  256
370
   -1
100
AcDbCircle
 10
8434.306578165708
 20
2566.681729305893
 40
200
  0
CIRCLE
  5
1E8
100
AcDbEntity
  8
AbwicklungGrund
  6
ByLayer
 62
  256
370
   -1
100
AcDbCircle
 10
8623.684996606116
 20
2630.99202886211
 40
200
  0
CIRCLE
  5
1E9
100
AcDbEntity
  8
AbwicklungGrund
  6
ByLayer
 62
  256
370
   -1
100
AcDbCircle
 10
8809.429923339516
 20
2705.146072533416
 40
200
  0
CIRCLE
  5
1EA
100
AcDbEntity
  8
AbwicklungGrund
  6
ByLayer
 62
  256
370
   -1
100
AcDbCircle
 10
8991.030088210138
 20
2788.939748422248
 40
200
  0
CIRCLE
  5
1EB
100
AcDbEntity
  8
AbwicklungGrund
  6
ByLayer
 62
  256
370
   -1
100
AcDbCircle
 10
9167.985629680923
 20
2882.142411167378
 40
200
  0
CIRCLE
  5
1EC
100
AcDbEntity
  8
AbwicklungGrund
  6
ByLayer
 62
  256
370
   -1
100
AcDbCircle
 10
9339.809470721872
 20
2984.497516804255
 40
200
  0
CIRCLE
  5
1ED
100
AcDbEntity
  8
AbwicklungGrund
  6
ByLayer
 62
  256
370
   -1
100
AcDbCircle
 10
9506.028659508578
 20
3095.723328912282
 40
200
  0
CIRCLE
  5
1EE
100
AcDbEntity
  8
AbwicklungGrund
  6
ByLayer
 62
  256
370
   -1
100
AcDbCircle
 10
9666.185671240575
 20
3215.513694105302
 40
200
  0
LINE
  5
1EF
100
AcDbEntity
  8
AbwicklungGrund
  6
ByLayer
 62
  256
370
   -1
100
AcDbLine
 10
7451.632957103784
 20
2395.142531191363
 11
7451.632957103784
 21
7395.142531191363
  0
LINE
  5
1F0
100
AcDbEntity
  8
AbwicklungGrund
  6
ByLayer
 62
  256
370
   -1
100
AcDbLine
 10
7651.00314465168
 20
2411.002175484875
 11
7651.00314465168
 21
7411.002175484875
  0
LINE
  5
1F1
100
AcDbEntity
  8
AbwicklungGrund
  6
ByLayer
 62
  256
370
   -1
100
AcDbLine
 10
7849.624461574527
 20
2434.445137410263
 11
7849.624461574527
 21
7434.445137410263
  0
LINE
  5
1F2
100
AcDbEntity
  8
AbwicklungGrund
  6
ByLayer
 62
  256
370
   -1
100
AcDbLine
 10
8046.742918605039
 20
2468.272846435715
 11
8046.742918605039
 21
7468.272846435715
  0
LINE
  5
1F3
100
AcDbEntity
  8
AbwicklungGrund
  6
ByLayer
 62
  256
370
   -1
100
AcDbLine
 10
8241.815939501696
 20
2512.3921904727
 11
8241.815939501696
 21
7512.3921904727
  0
LINE
  5
1F4
100
AcDbEntity
  8
AbwicklungGrund
  6
ByLayer
 62
  256
370
   -1
100
AcDbLine
 10
8434.306578165708
 20
2566.681729305893
 11
8434.306578165708
 21
7566.681729305893
  0
LINE
  5
1F5
100
AcDbEntity
  8
AbwicklungGrund
  6
ByLayer
 62
  256
370
   -1
100
AcDbLine
 10
8623.684996606116
 20
2630.99202886211
 11
8623.684996606118
 21
7630.99202886211
  0
LINE
  5
1F6
100
AcDbEntity
  8
AbwicklungGrund
  6
ByLayer
 62
  256
370
   -1
100
AcDbLine
 10
8809.429923339516
 20
2705.146072533416
 11
8809.429923339516
 21
7705.146072533416
  0
LINE
  5
1F7
100
AcDbEntity
  8
AbwicklungGrund
  6
ByLayer
 62
  256
370
   -1
100
AcDbLine
 10
8991.030088210138
 20
2788.939748422248
 11
8991.030088210138
 21
7788.939748422248
  0
LINE
  5
1F8
100
AcDbEntity
  8
AbwicklungGrund
  6
ByLayer
 62
  256
370
   -1
100
AcDbLine
 10
9167.985629680923
 20
2882.142411167378
 11
9167.985629680923
 21
7882.142411167378
  0
LINE
  5
1F9
100
AcDbEntity
  8
AbwicklungGrund
  6
ByLayer
 62
  256
370
   -1
100
AcDbLine
 10
9339.809470721872
 20
2984.497516804255
 11
9339.809470721872
 21
7984.497516804255
  0
LINE
  5
1FA
100
AcDbEntity
  8
AbwicklungGrund
  6
ByLayer
 62
  256
370
   -1
100
AcDbLine
 10
9506.028659508578
 20
3095.723328912282
 11
9506.028659508578
 21
8095.723328912281
  0
LINE
  5
1FB
100
AcDbEntity
  8
AbwicklungGrund
  6
ByLayer
 62
  256
370
   -1
100
AcDbLine
 10
9666.185671240575
 20
3215.513694105302
 11
9666.185671240575
 21
8215.513694105302
  0
LINE
  5
1FC
100
AcDbEntity
  8
AbwicklungGrund
  6
ByLayer
 62
  256
370
   -1
100
AcDbLine
 10
9819.839667496199
 20
3343.538884730735
 11
9819.839667496199
 21
8343.538884730735
  0
LINE
  5
1FD
100
AcDbEntity
  8
AbwicklungGrund
  6
ByLayer
 62
  256
370
   -1
100
AcDbLine
 10
10105.96592306541
 20
3622.86246825665
 11
10105.96592306541
 21
8622.86246825665
  0
LINE
  5
1FE
100
AcDbEntity
  8
AbwicklungAnsicht
  6
ByLayer
 62
  256
370
   -1
100
AcDbLine
 10
8809.429923339516
 20
6718.728011030675
 11
8849.429923339516
 21
6718.728011030675
  0
LINE
  5
1FF
100
AcDbEntity
  8
AbwicklungAnsicht
  6
ByLayer
 62
  256
370
   -1
100
AcDbLine
 10
9819.839667496199
 20
6408.299876914065
 11
10019.8396674962
 21
6408.299876914065
  0
LINE
  5
200
100
AcDbEntity
  8
AbwicklungAnsicht
  6
ByLayer
 62
  256
370
   -1
100
AcDbLine
 10
10237.65060870027
 20
6506.174712085485
 11
10651.63295710381
 21
6506.174712085485
  0
LINE
  5
201
100
AcDbEntity
  8
AbwicklungAnsicht
  6
ByLayer
 62
  256
370
   -1
100
AcDbLine
 10
9966.56770965752
 20
7108.122735884519
 11
10651.63295710381
 21
7108.122735884519
  0
LINE
  5
202
100
AcDbEntity
  8
AbwicklungAnsicht
  6
ByLayer
 62
  256
370
   -1
100
AcDbLine
 10
10651.63295710381
 20
6506.174712085485
 11
10651.63295710381
 21
7108.122735884519
  0
CIRCLE
  5
203
100
AcDbEntity
  8
AbwicklungGrund
  6
CONTINUOUS
 62
  256
370
   -1
100
AcDbCircle
 10
9819.839667496199
 20
3343.538884730735
 40
200
  0
CIRCLE
  5
204
100
AcDbEntity
  8
AbwicklungGrund
  6
CONTINUOUS
 62
  256
370
   -1
100
AcDbCircle
 10
9966.56770965752
 20
3479.446506457798
 40
200
  0
CIRCLE
  5
205
100
AcDbEntity
  8
AbwicklungGrund
  6
CONTINUOUS
 62
  256
370
   -1
100
AcDbCircle
 10
10105.96592306541
 20
3622.86246825665
 40
200
  0
LINE
  5
206
100
AcDbEntity
  8
AbwicklungGrund
  6
CONTINUOUS
 62
  256
370
   -1
100
AcDbLine
 10
9966.56770965752
 20
3479.446506457798
 11
9966.567709657522
 21
8479.446506457798
  0
LINE
  5
207
100
AcDbEntity
  8
AbwicklungGrund
  6
CONTINUOUS
 62
  256
370
   -1
100
AcDbLine
 10
10237.65060870027
 20
3773.392012098542
 11
10237.65060870027
 21
8773.392012098542
  0
CIRCLE
  5
208
100
AcDbEntity
  8
AbwicklungGrund
  6
CONTINUOUS
 62
  256
370
   -1
100
AcDbCircle
 10
7825.048248813007
 20
2430.970162843476
 40
24.82067045708375
  0
CIRCLE
  5
209
100
AcDbEntity
  8
AbwicklungGrund
  6
CONTINUOUS
 62
  256
370
   -1
100
AcDbCircle
 10
7904.24798488927
 20
2442.754723335401
 40
55.2519548753565
  0
CIRCLE
  5
20A
100
AcDbEntity
  8
AbwicklungGrund
  6
CONTINUOUS
 62
  256
370
   -1
100
AcDbCircle
 10
8967.548377318992
 20
2777.448277396451
 40
26.14277438819886
  0
CIRCLE
  5
20B
100
AcDbEntity
  8
AbwicklungGrund
  6
CONTINUOUS
 62
  256
370
   -1
100
AcDbCircle
 10
9047.548377318992
 20
2817.42518966898
 40
63.29089481759467
  0
CIRCLE
  5
20C
100
AcDbEntity
  8
AbwicklungGrund
  6
CONTINUOUS
 62
  256
370
   -1
100
AcDbCircle
 10
9920.920942887242
 20
3435.619010467573
 40
63.28093489632842
  0
CIRCLE
  5
20D
100
AcDbEntity
  8
AbwicklungGrund
  6
CONTINUOUS
 62
  256
370
   -1
100
AcDbCircle
 10
10008.65358112042
 20
3521.175627624827
 40
59.26668651244336
  0
CIRCLE
  5
20E
100
AcDbEntity
  8
AbwicklungGrund
  6
CONTINUOUS
 62
  256
370
   -1
100
AcDbCircle
 10
10239.10182777895
 20
3775.142531191359
 40
2.273841223265484
  0
LINE
  5
20F
100
AcDbEntity
  8
AbwicklungGrund
  6
CONTINUOUS
 62
  256
370
   -1
100
AcDbLine
 10
10239.10182777895
 20
3775.142531191359
 11
10239.10182777895
 21
6775.142531191359
  0
LINE
  5
210
100
AcDbEntity
  8
AbwicklungGrund
  6
CONTINUOUS
 62
  256
370
   -1
100
AcDbLine
 10
7904.24798488927
 20
2442.754723335401
 11
7904.24798488927
 21
6318.142542495565
  0
LINE
  5
211
100
AcDbEntity
  8
AbwicklungGrund
  6
CONTINUOUS
 62
  256
370
   -1
100
AcDbLine
 10
7825.048248813007
 20
2430.970162843476
 11
7825.048248813007
 21
6318.142542495565
  0
LINE
  5
212
100
AcDbEntity
  8
AbwicklungGrund
  6
CONTINUOUS
 62
  256
370
   -1
100
AcDbLine
 10
8967.548377318992
 20
2777.448277396451
 11
8967.548377318992
 21
6688.142542495565
  0
LINE
  5
213
100
AcDbEntity
  8
AbwicklungGrund
  6
CONTINUOUS
 62
  256
370
   -1
100
AcDbLine
 10
9047.548377318992
 20
2817.42518966898
 11
9047.548377318992
 21
6688.142542495565
  0
LINE
  5
214
100
AcDbEntity
  8
AbwicklungGrund
  6
CONTINUOUS
 62
  256
370
   -1
100
AcDbLine
 10
10008.65358112042
 20
3521.175627624827
 11
10008.65358112042
 21
7058.142542495565
  0
LINE
  5
215
100
AcDbEntity
  8
AbwicklungGrund
  6
CONTINUOUS
 62
  256
370
   -1
100
AcDbLine
 10
9920.920942887242
 20
3435.619010467573
 11
9920.920942887242
 21
7058.142542495565
  0
LINE
  5
216
100
AcDbEntity
  8
AbwicklungAnsicht
  6
ByLayer
 62
  256
370
   -1
100
AcDbLine
 10
9819.839667496199
 20
7075.478310221061
 11
10051.63295710381
 21
7075.478310221061
  0
LINE
  5
217
100
AcDbEntity
  8
AbwicklungAnsicht
  6
ByLayer
 62
  256
370
   -1
100
AcDbLine
 10
9819.839667496199
 20
7072.546742944943
 11
10051.63295710381
 21
7072.546742944943
  0
LINE
  5
218
100
AcDbEntity
  8
AbwicklungAnsicht
  6
ByLayer
 62
  256
370
   -1
100
AcDbLine
 10
9819.839667496199
 20
6408.299876914065
 11
10051.63295710381
 21
6408.299876914065
  0
LINE
  5
219
100
AcDbEntity
  8
AbwicklungAnsicht
  6
ByLayer
 62
  256
370
   -1
100
AcDbLine
 10
9966.567709657522
 20
6464.774929552363
 11
10251.63295710381
 21
6464.774929552363
  0
LINE
  5
21A
100
AcDbEntity
  8
AbwicklungAnsicht
  6
ByLayer
 62
  256
370
   -1
100
AcDbLine
 10
10105.96592306541
 20
6495.62092571839
 11
10451.63295710381
 21
6495.62092571839
  0
LINE
  5
21B
100
AcDbEntity
  8
AbwicklungAnsicht
  6
ByLayer
 62
  256
370
   -1
100
AcDbLine
 10
9666.185671240575
 20
7021.226943928326
 11
9851.632957103808
 21
7021.226943928327
  0
LINE
  5
21C
100
AcDbEntity
  8
AbwicklungAnsicht
  6
ByLayer
 62
  256
370
   -1
100
AcDbLine
 10
9666.185671240575
 20
7012.914254379789
 11
9851.632957103808
 21
7012.91425437979
  0
LINE
  5
21D
100
AcDbEntity
  8
AbwicklungAnsicht
  6
ByLayer
 62
  256
370
   -1
100
AcDbLine
 10
9666.185671240575
 20
6349.147165650287
 11
9851.632957103808
 21
6349.147165650287
  0
LINE
  5
21E
100
AcDbEntity
  8
AbwicklungAnsicht
  6
ByLayer
 62
  256
370
   -1
100
AcDbLine
 10
9506.028659508578
 20
6964.679526226496
 11
9651.632957103808
 21
6964.679526226496
  0
LINE
  5
21F
100
AcDbEntity
  8
AbwicklungAnsicht
  6
ByLayer
 62
  256
370
   -1
100
AcDbLine
 10
9506.028659508578
 20
6950.75797206059
 11
9651.632957103808
 21
6950.75797206059
  0
LINE
  5
220
100
AcDbEntity
  8
AbwicklungAnsicht
  6
ByLayer
 62
  256
370
   -1
100
AcDbLine
 10
9506.028659508578
 20
6287.490965989253
 11
9651.632957103808
 21
6287.490965989253
  0
LINE
  5
221
100
AcDbEntity
  8
AbwicklungAnsicht
  6
ByLayer
 62
  256
370
   -1
100
AcDbLine
 10
9339.809470721872
 20
6223.500989025411
 11
9451.632957103808
 21
6223.500989025411
  0
LINE
  5
222
100
AcDbEntity
  8
AbwicklungAnsicht
  6
ByLayer
 62
  256
370
   -1
100
AcDbLine
 10
9339.809470721872
 20
6886.248983578816
 11
9451.632957103808
 21
6886.248983578816
  0
LINE
  5
223
100
AcDbEntity
  8
AbwicklungAnsicht
  6
ByLayer
 62
  256
370
   -1
100
AcDbLine
 10
9167.985629680923
 20
6845.325024028089
 11
9251.632957103808
 21
6845.325024028089
  0
LINE
  5
224
100
AcDbEntity
  8
AbwicklungAnsicht
  6
ByLayer
 62
  256
370
   -1
100
AcDbLine
 10
9167.985629680923
 20
6819.564852441417
 11
9251.632957103808
 21
6819.564852441417
  0
LINE
  5
225
100
AcDbEntity
  8
AbwicklungAnsicht
  6
ByLayer
 62
  256
370
   -1
100
AcDbLine
 10
9167.985629680923
 20
6845.32502402809
 11
9251.632957103808
 21
6845.32502402809
  0
LINE
  5
226
100
AcDbEntity
  8
AbwicklungAnsicht
  6
ByLayer
 62
  256
370
   -1
100
AcDbLine
 10
9167.985629680923
 20
6157.353369666265
 11
9251.632957103808
 21
6157.353369666266
  0
LINE
  5
227
100
AcDbEntity
  8
AbwicklungAnsicht
  6
ByLayer
 62
  256
370
   -1
100
AcDbLine
 10
8991.030088210138
 20
6782.846467454201
 11
9051.632957103808
 21
6782.846467454201
  0
LINE
  5
228
100
AcDbEntity
  8
AbwicklungAnsicht
  6
ByLayer
 62
  256
370
   -1
100
AcDbLine
 10
8991.030088210138
 20
6750.889129320346
 11
9051.632957103808
 21
6750.889129320346
  0
LINE
  5
229
100
AcDbEntity
  8
AbwicklungAnsicht
  6
ByLayer
 62
  256
370
   -1
100
AcDbLine
 10
8991.030088210138
 20
6094.745558660236
 11
9051.632957103808
 21
6094.745558660236
  0
LINE
  5
22A
100
AcDbEntity
  8
AbwicklungAnsicht
  6
ByLayer
 62
  256
370
   -1
100
AcDbLine
 10
8809.429923339516
 20
6718.728011030675
 11
8851.632957103808
 21
6718.728011030676
  0
LINE
  5
22B
100
AcDbEntity
  8
AbwicklungAnsicht
  6
ByLayer
 62
  256
370
   -1
100
AcDbLine
 10
8809.429923339516
 20
6689.492311424732
 11
8851.632957103808
 21
6689.492311424732
  0
LINE
  5
22C
100
AcDbEntity
  8
AbwicklungAnsicht
  6
ByLayer
 62
  256
370
   -1
100
AcDbLine
 10
8809.429923339516
 20
6035.975298939312
 11
8851.632957103808
 21
6035.975298939312
  0
LINE
  5
22D
100
AcDbEntity
  8
AbwicklungAnsicht
  6
ByLayer
 62
  256
370
   -1
100
AcDbLine
 10
8623.684996606116
 20
5975.863692797637
 11
8651.632957103808
 21
5975.863692797637
  0
LINE
  5
22E
100
AcDbEntity
  8
AbwicklungAnsicht
  6
ByLayer
 62
  256
370
   -1
100
AcDbLine
 10
8623.684996606116
 20
6653.14614330973
 11
8651.632957103808
 21
6653.14614330973
  0
LINE
  5
22F
100
AcDbEntity
  8
AbwicklungAnsicht
  6
ByLayer
 62
  256
370
   -1
100
AcDbLine
 10
8623.684996606116
 20
6629.338600123861
 11
8651.632957103808
 21
6629.338600123862
  0
LINE
  5
230
100
AcDbEntity
  8
AbwicklungAnsicht
  6
ByLayer
 62
  256
370
   -1
100
AcDbLine
 10
8434.306578165708
 20
6586.281380940275
 11
8451.632957103808
 21
6586.281380940275
  0
LINE
  5
231
100
AcDbEntity
  8
AbwicklungAnsicht
  6
ByLayer
 62
  256
370
   -1
100
AcDbLine
 10
8434.306578165708
 20
6568.008178293117
 11
8451.632957103808
 21
6568.008178293117
  0
LINE
  5
232
100
AcDbEntity
  8
AbwicklungAnsicht
  6
ByLayer
 62
  256
370
   -1
100
AcDbLine
 10
8434.306578165708
 20
5914.576199775755
 11
8451.632957103808
 21
5914.576199775755
  0
LINE
  5
233
100
AcDbEntity
  8
AbwicklungAnsicht
  6
ByLayer
 62
  256
370
   -1
100
AcDbLine
 10
8241.815939501696
 20
5852.281516088709
 11
8251.632957103808
 21
5852.281516088709
  0
LINE
  5
234
100
AcDbEntity
  8
AbwicklungAnsicht
  6
ByLayer
 62
  256
370
   -1
100
AcDbLine
 10
8241.815939501696
 20
6518.317771788772
 11
8251.632957103808
 21
6518.317771788772
  0
LINE
  5
235
100
AcDbEntity
  8
AbwicklungAnsicht
  6
ByLayer
 62
  256
370
   -1
100
AcDbLine
 10
8241.815939501696
 20
6505.669860310764
 11
8251.632957103808
 21
6505.669860310764
  0
LINE
  5
236
100
AcDbEntity
  8
AbwicklungAnsicht
  6
ByLayer
 62
  256
370
   -1
100
AcDbLine
 10
8046.742918605039
 20
6449.442388340309
 11
8051.632957103809
 21
6449.442388340309
  0
LINE
  5
237
100
AcDbEntity
  8
AbwicklungAnsicht
  6
ByLayer
 62
  256
370
   -1
100
AcDbLine
 10
8046.742918605039
 20
6442.495234828537
 11
8051.632957103809
 21
6442.495234828537
  0
LINE
  5
238
100
AcDbEntity
  8
AbwicklungAnsicht
  6
ByLayer
 62
  256
370
   -1
100
AcDbLine
 10
8046.742918605039
 20
5789.151110283133
 11
8051.632957103809
 21
5789.151110283133
  0
LINE
  5
239
100
AcDbEntity
  8
AbwicklungAnsicht
  6
ByLayer
 62
  256
370
   -1
100
AcDbLine
 10
7849.624461574527
 20
6376.631870123509
 11
7851.632957103809
 21
6376.631870123509
  0
LINE
  5
23A
100
AcDbEntity
  8
AbwicklungAnsicht
  6
ByLayer
 62
  256
370
   -1
100
AcDbLine
 10
7849.624461574527
 20
6374.46038740254
 11
7851.632957103809
 21
6374.46038740254
  0
LINE
  5
23B
100
AcDbEntity
  8
Hilfslinie
  6
ByLayer
 62
  256
370
   -1
100
AcDbLine
 10
7826.632957103809
 20
3470.142531191362
 11
7826.632957103809
 21
8470.142531191363
  0
LINE
  5
23C
100
AcDbEntity
  8
Hilfslinie
  6
ByLayer
 62
  256
370
   -1
100
AcDbLine
 10
7906.632957103809
 20
3470.142531191362
 11
7906.632957103809
 21
8470.142531191363
  0
LINE
  5
23D
100
AcDbEntity
  8
Hilfslinie
  6
ByLayer
 62
  256
370
   -1
100
AcDbLine
 10
9025.632957103808
 20
3470.142531191362
 11
9025.632957103808
 21
8470.142531191363
  0
LINE
  5
23E
100
AcDbEntity
  8
Hilfslinie
  6
ByLayer
 62
  256
370
   -1
100
AcDbLine
 10
9114.632957103808
 20
3470.142531191362
 11
9114.632957103808
 21
8470.142531191363
  0
LINE
  5
23F
100
AcDbEntity
  8
Hilfslinie
  6
ByLayer
 62
  256
370
   -1
100
AcDbLine
 10
10188.63295710381
 20
3470.142531191362
 11
10188.63295710381
 21
8470.142531191361
  0
LINE
  5
240
100
AcDbEntity
  8
Hilfslinie
  6
ByLayer
 62
  256
370
   -1
100
AcDbLine
 10
10310.63295710381
 20
3470.142531191362
 11
10310.63295710381
 21
8470.142531191361
  0
LINE
  5
241
100
AcDbEntity
  8
0
  6
ByLayer
 62
  256
370
   -1
100
AcDbLine
 10
10188.63295710381
 20
7058.142542495565
 11
10310.63295710381
 21
7058.142542495565
  0
LINE
  5
242
100
AcDbEntity
  8
0
  6
ByLayer
 62
  256
370
   -1
100
AcDbLine
 10
9025.632957103808
 20
6688.142542495565
 11
9114.632957103808
 21
6688.142542495565
  0
LINE
  5
243
100
AcDbEntity
  8
0
  6
ByLayer
 62
  256
370
   -1
100
AcDbLine
 10
7826.632957103809
 20
6318.142542495565
 11
7906.632957103809
 21
6318.142542495565
  0
LINE
  5
244
100
AcDbEntity
  8
0
  6
ByLayer
 62
  256
370
   -1
100
AcDbLine
 10
7826.632957103809
 20
5948.142542495565
 11
7906.632957103809
 21
5948.142542495565
  0
LINE
  5
245
100
AcDbEntity
  8
0
  6
ByLayer
 62
  256
370
   -1
100
AcDbLine
 10
9025.632957103808
 20
6318.142542495565
 11
9114.632957103808
 21
6318.142542495565
  0
LINE
  5
246
100
AcDbEntity
  8
0
  6
ByLayer
 62
  256
370
   -1
100
AcDbLine
 10
10188.63295710381
 20
6688.142542495565
 11
10310.63295710381
 21
6688.142542495565
  0
LINE
  5
247
100
AcDbEntity
  8
0
  6
ByLayer
 62
  256
370
   -1
100
AcDbLine
 10
7826.632957103809
 20
6218.142542495565
 11
7906.632957103809
 21
6218.142542495565
  0
LINE
  5
248
100
AcDbEntity
  8
0
  6
ByLayer
 62
  256
370
   -1
100
AcDbLine
 10
7826.632957103809
 20
5848.142542495565
 11
7906.632957103809
 21
5848.142542495565
  0
LINE
  5
249
100
AcDbEntity
  8
0
  6
ByLayer
 62
  256
370
   -1
100
AcDbLine
 10
9025.632957103808
 20
6218.142542495565
 11
9114.632957103808
 21
6218.142542495565
  0
LINE
  5
24A
100
AcDbEntity
  8
0
  6
ByLayer
 62
  256
370
   -1
100
AcDbLine
 10
9025.632957103808
 20
6588.142542495565
 11
9114.632957103808
 21
6588.142542495565
  0
LINE
  5
24B
100
AcDbEntity
  8
0
  6
ByLayer
 62
  256
370
   -1
100
AcDbLine
 10
10188.63295710381
 20
6958.142542495565
 11
10310.63295710381
 21
6958.142542495565
  0
LINE
  5
24C
100
AcDbEntity
  8
0
  6
ByLayer
 62
  256
370
   -1
100
AcDbLine
 10
10188.63295710381
 20
6588.142542495565
 11
10310.63295710381
 21
6588.142542495565
  0
LINE
  5
24D
100
AcDbEntity
  8
0
  6
ByLayer
 62
  256
370
   -1
100
AcDbLine
 10
10251.63295710381
 20
7108.122735884518
 11
10651.63295710381
 21
7108.122735884519
  0
LINE
  5
24E
100
AcDbEntity
  8
0
  6
ByLayer
 62
  256
370
   -1
100
AcDbLine
 10
6451.632957103809
 20
5940.142531191363
 11
6451.632957103809
 21
5970.142531191363
  0
LINE
  5
24F
100
AcDbEntity
  8
0
  6
ByLayer
 62
  256
370
   -1
100
AcDbLine
 10
6696.632957103809
 20
5595.142531191363
 11
6431.632957103809
 21
5940.142531191363
  0
LINE
  5
250
100
AcDbEntity
  8
0
  6
ByLayer
 62
  256
370
   -1
100
AcDbLine
 10
6502.299623770476
 20
5848.142531191363
 11
6531.632957103809
 21
5848.142531191363
  0
LINE
  5
251
100
AcDbEntity
  8
0
  6
ByLayer
 62
  256
370
   -1
100
AcDbLine
 10
6531.632957103809
 20
5948.142531191363
 11
6451.632957103809
 21
5948.142531191363
  0
LINE
  5
252
100
AcDbEntity
  8
0
  6
ByLayer
 62
  256
370
   -1
100
AcDbLine
 10
6531.632957103809
 20
5948.142531191363
 11
6531.632957103809
 21
5848.142531191363
  0
LINE
  5
253
100
AcDbEntity
  8
0
  6
ByLayer
 62
  256
370
   -1
100
AcDbLine
 10
6451.632957103809
 20
5948.142531191363
 11
6451.63295710381
 21
5914.104795342306
  0
LINE
  5
254
100
AcDbEntity
  8
0
  6
ByLayer
 62
  256
370
   -1
100
AcDbLine
 10
7826.632957103809
 20
6318.142542495565
 11
7826.632957103809
 21
6218.142542495565
  0
LINE
  5
255
100
AcDbEntity
  8
0
  6
ByLayer
 62
  256
370
   -1
100
AcDbLine
 10
7906.632957103809
 20
6318.142542495565
 11
7906.632957103809
 21
6218.142542495565
  0
LINE
  5
256
100
AcDbEntity
  8
0
  6
ByLayer
 62
  256
370
   -1
100
AcDbLine
 10
7826.632957103809
 20
5948.142542495565
 11
7826.632957103809
 21
5848.142542495565
  0
LINE
  5
257
100
AcDbEntity
  8
0
  6
ByLayer
 62
  256
370
   -1
100
AcDbLine
 10
7906.632957103809
 20
5948.142542495565
 11
7906.632957103809
 21
5848.142542495565
  0
LINE
  5
258
100
AcDbEntity
  8
0
  6
ByLayer
 62
  256
370
   -1
100
AcDbLine
 10
9025.632957103808
 20
6688.142542495565
 11
9025.632957103808
 21
6588.142542495565
  0
LINE
  5
259
100
AcDbEntity
  8
0
  6
ByLayer
 62
  256
370
   -1
100
AcDbLine
 10
9114.632957103808
 20
6688.142542495565
 11
9114.632957103808
 21
6588.142542495565
  0
LINE
  5
25A
100
AcDbEntity
  8
0
  6
ByLayer
 62
  256
370
   -1
100
AcDbLine
 10
9025.632957103808
 20
6318.142542495565
 11
9025.632957103808
 21
6218.142542495565
  0
LINE
  5
25B
100
AcDbEntity
  8
0
  6
ByLayer
 62
  256
370
   -1
100
AcDbLine
 10
9114.632957103808
 20
6318.142542495565
 11
9114.632957103808
 21
6218.142542495565
  0
LINE
  5
25C
100
AcDbEntity
  8
0
  6
ByLayer
 62
  256
370
   -1
100
AcDbLine
 10
10188.63295710381
 20
7058.142542495565
 11
10188.63295710381
 21
6958.142542495565
  0
LINE
  5
25D
100
AcDbEntity
  8
0
  6
ByLayer
 62
  256
370
   -1
100
AcDbLine
 10
10310.63295710381
 20
7058.142542495565
 11
10310.63295710381
 21
6958.142542495565
  0
LINE
  5
25E
100
AcDbEntity
  8
0
  6
ByLayer
 62
  256
370
   -1
100
AcDbLine
 10
10188.63295710381
 20
6688.142542495565
 11
10188.63295710381
 21
6588.142542495565
  0
LINE
  5
25F
100
AcDbEntity
  8
0
  6
ByLayer
 62
  256
370
   -1
100
AcDbLine
 10
10310.63295710381
 20
6688.142542495565
 11
10310.63295710381
 21
6588.142542495565
  0
LINE
  5
260
100
AcDbEntity
  8
0
  6
ByLayer
 62
  256
370
   -1
100
AcDbLine
 10
6696.632957103809
 20
5595.142531191363
 11
6696.632957103809
 21
4595.142531191363
  0
LINE
  5
261
100
AcDbEntity
  8
Hilfslinie
  6
ByLayer
 62
  256
370
   -1
100
AcDbLine
 10
3540.928489048095
 20
0.1425424955646166
 11
3540.928489048095
 21
-3499.857457504435
  0
LINE
  5
262
100
AcDbEntity
  8
Hilfslinie
  6
ByLayer
 62
  256
370
   -1
100
AcDbLine
 10
3460.627271904303
 20
0.1425424955646262
 11
3460.627271904303
 21
-3499.857457504435
  0
LINE
  5
263
100
AcDbEntity
  8
Hilfslinie
  6
ByLayer
 62
  256
370
   -1
100
AcDbLine
 10
2885.659122130647
 20
0.1425424955646951
 11
2885.659122130647
 21
-3499.857457504435
  0
LINE
  5
264
100
AcDbEntity
  8
Hilfslinie
  6
ByLayer
 62
  256
370
   -1
100
AcDbLine
 10
2805.659122130647
 20
0.1425424955647047
 11
2805.659122130647
 21
-3499.857457504435
  0
LINE
  5
265
100
AcDbEntity
  8
Hilfslinie
  6
ByLayer
 62
  256
370
   -1
100
AcDbLine
 10
2212.192810937224
 20
0.1425424955647759
 11
2212.192810937224
 21
-3499.857457504435
  0
LINE
  5
266
100
AcDbEntity
  8
Hilfslinie
  6
ByLayer
 62
  256
370
   -1
100
AcDbLine
 10
2130.726326103502
 20
0.1425424955647857
 11
2130.726326103502
 21
-3499.857457504435
  0
LINE
  5
267
100
AcDbEntity
  8
0
  6
ByLayer
 62
  256
370
   -1
100
AcDbLine
 10
4404.743701915465
 20
-3092.857457504434
 11
3460.627271904303
 21
-3092.857457504434
  0
LINE
  5
268
100
AcDbEntity
  8
0
  6
ByLayer
 62
  256
370
   -1
100
AcDbLine
 10
3460.627271904303
 20
-3092.857457504434
 11
3460.627271904303
 21
-2992.857457504435
  0
LINE
  5
269
100
AcDbEntity
  8
0
  6
ByLayer
 62
  256
370
   -1
100
AcDbLine
 10
3460.627271904303
 20
-2992.857457504435
 11
4404.743701915465
 21
-2992.857457504435
  0
LINE
  5
26A
100
AcDbEntity
  8
0
  6
ByLayer
 62
  256
370
   -1
100
AcDbLine
 10
4404.743701915465
 20
-2992.857457504435
 11
4404.743701915465
 21
-3092.857457504434
  0
LINE
  5
26B
100
AcDbEntity
  8
0
  6
ByLayer
 62
  256
370
   -1
100
AcDbLine
 10
3540.928489048095
 20
-2722.857457504435
 11
3540.928489048095
 21
-2622.857457504435
  0
LINE
  5
26C
100
AcDbEntity
  8
0
  6
ByLayer
 62
  256
370
   -1
100
AcDbLine
 10
3540.928489048095
 20
-2622.857457504435
 11
2805.659122130647
 21
-2622.857457504435
  0
LINE
  5
26D
100
AcDbEntity
  8
0
  6
ByLayer
 62
  256
370
   -1
100
AcDbLine
 10
2805.659122130647
 20
-2622.857457504435
 11
2805.659122130647
 21
-2722.857457504435
  0
LINE
  5
26E
100
AcDbEntity
  8
0
  6
ByLayer
 62
  256
370
   -1
100
AcDbLine
 10
2805.659122130647
 20
-2722.857457504435
 11
3540.928489048095
 21
-2722.857457504435
  0
LINE
  5
26F
100
AcDbEntity
  8
0
  6
ByLayer
 62
  256
370
   -1
100
AcDbLine
 10
2885.659122130647
 20
-2352.857457504435
 11
2885.659122130647
 21
-2252.857457504435
  0
LINE
  5
270
100
AcDbEntity
  8
0
  6
ByLayer
 62
  256
370
   -1
100
AcDbLine
 10
2885.659122130647
 20
-2252.857457504435
 11
2130.726326103502
 21
-2252.857457504435
  0
LINE
  5
271
100
AcDbEntity
  8
0
  6
ByLayer
 62
  256
370
   -1
100
AcDbLine
 10
2130.726326103502
 20
-2252.857457504435
 11
2130.726326103502
 21
-2352.857457504435
  0
LINE
  5
272
100
AcDbEntity
  8
0
  6
ByLayer
 62
  256
370
   -1
100
AcDbLine
 10
2130.726326103502
 20
-2352.857457504435
 11
2885.659122130647
 21
-2352.857457504435
  0
LINE
  5
273
100
AcDbEntity
  8
0
  6
ByLayer
 62
  256
370
   -1
100
AcDbLine
 10
2212.192810937224
 20
-1982.857457504435
 11
2212.192810937224
 21
-1882.857457504435
  0
LINE
  5
274
100
AcDbEntity
  8
0
  6
ByLayer
 62
  256
370
   -1
100
AcDbLine
 10
2212.192810937224
 20
-1882.857457504435
 11
340.4103685821301
 21
-1882.857457504435
  0
LINE
  5
275
100
AcDbEntity
  8
0
  6
ByLayer
 62
  256
370
   -1
100
AcDbLine
 10
289.7437019154635
 20
-1982.857457504435
 11
2212.192810937224
 21
-1982.857457504435
  0
LINE
  5
276
100
AcDbEntity
  8
0
  6
ByLayer
 62
  256
370
   20
100
AcDbLine
 10
7811.684705426228
 20
6365.855745823194
 11
10173.68470542623
 21
7105.855745823194
  0
LINE
  5
277
100
AcDbEntity
  8
0
  6
ByLayer
 62
  256
370
   20
100
AcDbLine
 10
7792.025530325265
 20
6354.230296814278
 11
7420.677544246887
 21
5998.115085984899
  0
LINE
  5
278
100
AcDbEntity
  8
0
  6
ByLayer
 62
  256
370
   20
100
AcDbLine
 10
10188.64867859724
 20
7108.142540023911
 11
10251.63295710381
 21
7108.122735884518
  0
LINE
  5
279
100
AcDbEntity
  8
0
  6
ByLayer
 62
  256
370
   -1
100
AcDbLine
 10
10651.63295710381
 20
7108.122735884519
 11
10651.63295710381
 21
6488.142542495565
  0
LINE
  5
27A
100
AcDbEntity
  8
0
  6
ByLayer
 62
  256
370
   20
100
AcDbLine
 10
10340.71843880632
 20
6488.142542495565
 11
10651.63295710381
 21
6488.142542495565
  0
LINE
  5
27B
100
AcDbEntity
  8
0
  6
ByLayer
 62
  256
370
   20
100
AcDbLine
 10
10311.29867934277
 20
6483.7170043204
 11
7936.05271656736
 21
5752.568080670731
  0
ARC
  5
27C
100
AcDbEntity
  8
0
  6
ByLayer
 62
  256
370
   20
100
AcDbCircle
 10
10340.71843880632
 20
6388.142542495566
 40
100
100
AcDbArc
 50
90
 51
107.1094278792891
  0
ARC
  5
27D
100
AcDbEntity
  8
0
  6
ByLayer
 62
  256
370
   20
100
AcDbCircle
 10
10188.63295710381
 20
7058.142542495565
 40
50
100
AcDbArc
 50
89.98198449527982
 51
107.3956065549829
  0
ARC
  5
27E
100
AcDbEntity
  8
0
  6
ByLayer
 62
  256
370
   20
100
AcDbCircle
 10
7826.632957103809
 20
6318.142542495565
 40
50
100
AcDbArc
 50
107.3954512506897
 51
133.8004464024001
  0
LINE
  5
27F
100
AcDbEntity
  8
0
  6
ByLayer
 62
  256
370
   -1
100
AcDbLine
 10
6624.989548925338
 20
5208.125515793679
 11
10905.75323562268
 21
6549.262318569306
  0
LINE
  5
280
100
AcDbEntity
  8
0
  6
ByLayer
 62
  256
370
   -1
100
AcDbLine
 10
6385.817522084046
 20
5971.53676903575
 11
10666.58120878139
 21
7312.673571811377
  0
DIMENSION
  5
281
100
AcDbEntity
  8
0
  6
ByLayer
 62
  256
370
   -1
100
AcDbDimension
  2
*D16
 10
4404.743701915464
 20
8225.142542495565
 30
0
 11
4342.243701915464
 21
6312.642542495565
 31
0
 70
   32
 71
    5
  3
Standard
 53
0
210
0
220
0
230
1
100
AcDbAlignedDimension
 13
4404.743701915463
 23
4400.142542495565
 33
0
 14
4404.743701915464
 24
8225.142542495565
 34
0
 50
90
100
AcDbRotatedDimension
  0
DIMENSION
  5
282
100
AcDbEntity
  8
0
  6
ByLayer
 62
  256
370
   -1
100
AcDbDimension
  2
*D17
 10
4714.79910527218
 20
0.1425424955644751
 30
0
 11
4652.29910527218
 21
1887.642542495564
 31
0
 70
   32
 71
    5
  3
Standard
 53
0
210
0
220
0
230
1
100
AcDbAlignedDimension
 13
4404.743701915463
 23
3775.142542495563
 33
0
 14
4404.743701915463
 24
0.142542495564513
 34
0
 50
90
100
AcDbRotatedDimension
  0
DIMENSION
  5
283
100
AcDbEntity
  8
0
  6
ByLayer
 62
  256
370
   -1
100
AcDbDimension
  2
*D18
 10
4404.743701915463
 20
-272.7786761455135
 30
0
 11
2202.243701915463
 21
-210.2786761455135
 31
0
 70
   32
 71
    5
  3
Standard
 53
0
210
0
220
0
230
1
100
AcDbAlignedDimension
 13
-0.2562980845368387
 23
440.1425424955651
 33
0
 14
4404.743701915463
 24
0.142542495564513
 34
0
100
AcDbRotatedDimension
  0
DIMENSION
  5
284
100
AcDbEntity
  8
0
  6
ByLayer
 62
  256
370
   -1
100
AcDbDimension
  2
*D19
 10
-298.0506085909461
 20
5970.142542495565
 30
0
 11
-360.5506085909461
 21
5185.142542495565
 31
0
 70
   32
 71
    5
  3
Standard
 53
0
210
0
220
0
230
1
100
AcDbAlignedDimension
 13
-0.2562980845365962
 23
4400.142542495565
 33
0
 14
-0.2562980845365001
 24
5970.142542495565
 34
0
 50
90
100
AcDbRotatedDimension
  0
DIMENSION
  5
285
100
AcDbEntity
  8
0
  6
ByLayer
 62
  256
370
   -1
100
AcDbDimension
  2
*D20
 10
3090.776189201947
 20
6588.142542495565
 30
0
 11
3028.276189201947
 21
6453.142542495565
 31
0
 70
   32
 71
    5
  3
Standard
 53
0
210
0
220
0
230
1
100
AcDbAlignedDimension
 13
2885.659122130648
 23
6318.142542495565
 33
0
 14
2885.659122130648
 24
6588.142542495565
 34
0
 50
90
100
AcDbRotatedDimension
  0
DIMENSION
  5
286
100
AcDbEntity
  8
0
  6
ByLayer
 62
  256
370
   -1
100
AcDbDimension
  2
*D21
 10
4867.996394550448
 20
8225.142542495565
 30
0
 11
4805.496394550448
 21
7641.642542495565
 31
0
 70
   32
 71
    5
  3
Standard
 53
0
210
0
220
0
230
1
100
AcDbAlignedDimension
 13
3846.764325932071
 23
7058.142542495565
 33
0
 14
3674.595616385033
 24
8225.142542495565
 34
0
 50
90
100
AcDbRotatedDimension
  0
ENDSEC
  0
SECTION
  2
OBJECTS
  0
DICTIONARY
  5
C
330
0
100
AcDbDictionary
281
    1
  3
ACAD_GROUP
350
D
  0
DICTIONARY
  5
D
330
C
100
AcDbDictionary
281
    1
  0
ENDSEC
  0
EOF
