999
dxfrw 0.6.3
  0
SECTION
  2
HEADER
  9
$ACADVER
  1
AC1021
  9
$DWGCODEPAGE
  3
ANSI_1252
  9
$INSBASE
 10
0
 20
0
 30
0
  9
$EXTMIN
 10
-0.2562980845368387
 20
-1796.291596527364
 30
0
  9
$EXTMAX
 10
5143.138915998186
 20
8225.142542495565
 30
0
  9
$LIMMIN
 10
0
 20
0
  9
$LIMMAX
 10
420
 20
297
  9
$ORTHOMODE
 70
    0
  9
$REGENMODE
 70
    1
  9
$FILLMODE
 70
    1
  9
$QTEXTMODE
 70
    0
  9
$MIRRTEXT
 70
    0
  9
$LTSCALE
 40
1
  9
$ATTMODE
 70
    0
  9
$TEXTSIZE
 40
2.5
  9
$TRACEWID
 40
15.68
  9
$TEXTSTYLE
  7
STANDARD
  9
$CLAYER
  8
0
  9
$CELTYPE
  6
BYLAYER
  9
$CECOLOR
 62
  256
  9
$CELTSCALE
 40
1
  9
$DISPSILH
 70
    0
  9
$DIMSCALE
 40
30
  9
$DIMASZ
 40
2.5
  9
$DIMEXO
 40
0.625
  9
$DIMDLI
 40
3.75
  9
$DIMRND
 40
0
  9
$DIMDLE
 40
0
  9
$DIMEXE
 40
1.25
  9
$DIMTP
 40
0
  9
$DIMTM
 40
0
  9
$DIMTXT
 40
5
  9
$DIMCEN
 40
2.5
  9
$DIMTSZ
 40
0
  9
$DIMTOL
 70
    0
  9
$DIMLIM
 70
    0
  9
$DIMTIH
 70
    0
  9
$DIMTOH
 70
    0
  9
$DIMSE1
 70
    0
  9
$DIMSE2
 70
    0
  9
$DIMTAD
 70
    1
  9
$DIMZIN
 70
    8
  9
$DIMBLK
  1

  9
$DIMASO
 70
    1
  9
$DIMSHO
 70
    1
  9
$DIMPOST
  1

  9
$DIMAPOST
  1

  9
$DIMALT
 70
    0
  9
$DIMALTD
 70
    3
  9
$DIMALTF
 40
0.03937
  9
$DIMLFAC
 40
1
  9
$DIMTOFL
 70
    1
  9
$DIMTVP
 40
0
  9
$DIMTIX
 70
    0
  9
$DIMSOXD
 70
    0
  9
$DIMSAH
 70
    0
  9
$DIMBLK1
  1

  9
$DIMBLK2
  1

  9
$DIMSTYLE
  2
STANDARD
  9
$DIMCLRD
 70
    0
  9
$DIMCLRE
 70
    0
  9
$DIMCLRT
 70
    0
  9
$DIMTFAC
 40
1
  9
$DIMGAP
 40
0.625
  9
$DIMJUST
 70
    0
  9
$DIMSD1
 70
    0
  9
$DIMSD2
 70
    0
  9
$DIMTOLJ
 70
    0
  9
$DIMTZIN
 70
    8
  9
$DIMALTZ
 70
    0
  9
$DIMALTTZ
 70
    0
  9
$DIMUPT
 70
    0
  9
$DIMDEC
 70
    2
  9
$DIMTDEC
 70
    2
  9
$DIMALTU
 70
    2
  9
$DIMALTTD
 70
    3
  9
$DIMTXSTY
  7
standard
  9
$DIMAUNIT
 70
    0
  9
$DIMADEC
 70
    0
  9
$DIMALTRND
 40
0
  9
$DIMAZIN
 70
    0
  9
$DIMDSEP
 70
   44
  9
$DIMATFIT
 70
    3
  9
$DIMFRAC
 70
    0
  9
$DIMLDRBLK
  1
STANDARD
  9
$DIMLUNIT
 70
    2
  9
$DIMLWD
 70
   -2
  9
$DIMLWE
 70
   -2
  9
$DIMTMOVE
 70
    0
  9
$DIMFXL
 40
1
  9
$DIMFXLON
 70
    0
  9
$DIMJOGANG
 40
0.7854
  9
$DIMTFILL
 70
    0
  9
$DIMTFILLCLR
 70
    0
  9
$DIMARCSYM
 70
    0
  9
$DIMLTYPE
  6

  9
$DIMLTEX1
  6

  9
$DIMLTEX2
  6

  9
$LUNITS
 70
    2
  9
$LUPREC
 70
    0
  9
$SKETCHINC
 40
1
  9
$FILLETRAD
 40
0
  9
$AUNITS
 70
    0
  9
$AUPREC
 70
    2
  9
$MENU
  1
.
  9
$ELEVATION
 40
0
  9
$PELEVATION
 40
0
  9
$THICKNESS
 40
0
  9
$LIMCHECK
 70
    0
  9
$CHAMFERA
 40
0
  9
$CHAMFERB
 40
0
  9
$CHAMFERC
 40
0
  9
$CHAMFERD
 40
0
  9
$SKPOLY
 70
    0
  9
$USRTIMER
 70
    1
  9
$ANGBASE
 50
0
  9
$ANGDIR
 70
    0
  9
$PDMODE
 70
   34
  9
$PDSIZE
 40
0
  9
$PLINEWID
 40
0
  9
$SPLFRAME
 70
    0
  9
$SPLINETYPE
 70
    2
  9
$SPLINESEGS
 70
    8
  9
$HANDSEED
  5
20000
  9
$SURFTAB1
 70
    6
  9
$SURFTAB2
 70
    6
  9
$SURFTYPE
 70
    6
  9
$SURFU
 70
    6
  9
$SURFV
 70
    6
  9
$UCSBASE
  2

  9
$UCSNAME
  2

  9
$UCSORG
 10
0
 20
0
 30
0
  9
$UCSXDIR
 10
1
 20
0
 30
0
  9
$UCSYDIR
 10
0
 20
1
 30
0
  9
$UCSORTHOREF
  2

  9
$UCSORTHOVIEW
 70
    0
  9
$UCSORGTOP
 10
0
 20
0
 30
0
  9
$UCSORGBOTTOM
 10
0
 20
0
 30
0
  9
$UCSORGLEFT
 10
0
 20
0
 30
0
  9
$UCSORGRIGHT
 10
0
 20
0
 30
0
  9
$UCSORGFRONT
 10
0
 20
0
 30
0
  9
$UCSORGBACK
 10
0
 20
0
 30
0
  9
$PUCSBASE
  2

  9
$PUCSNAME
  2

  9
$PUCSORG
 10
0
 20
0
 30
0
  9
$PUCSXDIR
 10
1
 20
0
 30
0
  9
$PUCSYDIR
 10
0
 20
1
 30
0
  9
$PUCSORTHOREF
  2

  9
$PUCSORTHOVIEW
 70
    0
  9
$PUCSORGTOP
 10
0
 20
0
 30
0
  9
$PUCSORGBOTTOM
 10
0
 20
0
 30
0
  9
$PUCSORGLEFT
 10
0
 20
0
 30
0
  9
$PUCSORGRIGHT
 10
0
 20
0
 30
0
  9
$PUCSORGFRONT
 10
0
 20
0
 30
0
  9
$PUCSORGBACK
 10
0
 20
0
 30
0
  9
$USERI1
 70
    0
  9
$USERI2
 70
    0
  9
$USERI3
 70
    0
  9
$USERI4
 70
    0
  9
$USERI5
 70
    0
  9
$USERR1
 40
0
  9
$USERR2
 40
0
  9
$USERR3
 40
0
  9
$USERR4
 40
0
  9
$USERR5
 40
0
  9
$WORLDVIEW
 70
    1
  9
$SHADEDGE
 70
    3
  9
$SHADEDIF
 70
   70
  9
$TILEMODE
 70
    1
  9
$MAXACTVP
 70
   64
  9
$PINSBASE
 10
0
 20
0
 30
0
  9
$PLIMCHECK
 70
    0
  9
$PEXTMIN
 10
0
 20
0
 30
0
  9
$PEXTMAX
 10
0
 20
0
 30
0
  9
$GRIDMODE
 70
    1
  9
$SNAPSTYLE
 70
    0
  9
$GRIDUNIT
 10
0
 20
0
  9
$PLIMMIN
 10
0
 20
0
  9
$PLIMMAX
 10
297
 20
210
  9
$UNITMODE
 70
    0
  9
$VISRETAIN
 70
    1
  9
$PLINEGEN
 70
    0
  9
$PSLTSCALE
 70
    1
  9
$TREEDEPTH
 70
 3020
  9
$CMLSTYLE
  2
Standard
  9
$CMLJUST
 70
    0
  9
$CMLSCALE
 40
20
  9
$PROXYGRAPHICS
 70
    1
  9
$MEASUREMENT
 70
    1
  9
$CELWEIGHT
370
   -1
  9
$ENDCAPS
280
    0
  9
$JOINSTYLE
280
    0
  9
$LWDISPLAY
290
    0
  9
$INSUNITS
 70
    4
  9
$HYPERLINKBASE
  1

  9
$STYLESHEET
  1

  9
$XEDIT
290
    1
  9
$CEPSNTYPE
380
    0
  9
$PSTYLEMODE
290
    1
  9
$EXTNAMES
290
    1
  9
$PSVPSCALE
 40
1
  9
$OLESTARTUP
290
    0
  9
$SORTENTS
280
  127
  9
$INDEXCTL
280
    0
  9
$HIDETEXT
280
    1
  9
$XCLIPFRAME
290
    0
  9
$HALOGAP
280
    0
  9
$OBSCOLOR
 70
  257
  9
$OBSLTYPE
280
    0
  9
$INTERSECTIONDISPLAY
280
    0
  9
$INTERSECTIONCOLOR
 70
  257
  9
$DIMASSOC
280
    1
  9
$PROJECTNAME
  1

  9
$CAMERADISPLAY
290
    0
  9
$LENSLENGTH
 40
50
  9
$CAMERAHEIGHT
 40
0
  9
$STEPSPERSEC
 40
2
  9
$STEPSIZE
 40
50
  9
$3DDWFPREC
 40
2
  9
$PSOLWIDTH
 40
5
  9
$PSOLHEIGHT
 40
80
  9
$LOFTANG1
 40
1.570796326794897
  9
$LOFTANG2
 40
1.570796326794897
  9
$LOFTMAG1
 40
0
  9
$LOFTMAG2
 40
0
  9
$LOFTPARAM
 70
    7
  9
$LOFTNORMALS
280
    1
  9
$LATITUDE
 40
1
  9
$LONGITUDE
 40
1
  9
$NORTHDIRECTION
 40
0
  9
$TIMEZONE
 70
-8000
  9
$LIGHTGLYPHDISPLAY
280
    1
  9
$TILEMODELIGHTSYNCH
280
    1
  9
$SOLIDHIST
280
    1
  9
$SHOWHIST
280
    1
  9
$DWFFRAME
280
    2
  9
$DGNFRAME
280
    0
  9
$REALWORLDSCALE
290
    1
  9
$INTERFERECOLOR
 62
    1
  9
$CSHADOW
280
    0
  9
$SHADOWPLANELOCATION
 40
0
  0
ENDSEC
  0
SECTION
  2
CLASSES
  0
ENDSEC
  0
SECTION
  2
TABLES
  0
TABLE
  2
VPORT
  5
8
330
0
100
AcDbSymbolTable
 70
    1
  0
VPORT
  5
31
330
2
100
AcDbSymbolTableRecord
100
AcDbViewportTableRecord
  2
*ACTIVE
 70
    0
 10
0
 20
0
 11
1
 21
1
 12
3964.792703044109
 22
2383.805204228119
 13
0
 23
0
 14
10
 24
10
 15
10
 25
10
 16
0
 26
0
 36
1
 17
0
 27
0
 37
0
 40
5683.104283049016
 41
1.670384138785626
 42
50
 43
0
 44
0
 50
0
 51
0
 71
    0
 72
  100
 73
    1
 74
    3
 75
    0
 76
    1
 77
    0
 78
    0
281
    0
 65
    1
110
0
120
0
130
0
111
1
121
0
131
0
112
0
122
1
132
0
 79
    0
146
0
348
10020
 60
    7
 61
    5
292
1
282
    1
141
0
142
0
 63
  250
421
3358443
  0
ENDTAB
  0
TABLE
  2
LTYPE
  5
5
330
0
100
AcDbSymbolTable
 70
    4
  0
LTYPE
  5
14
330
5
100
AcDbSymbolTableRecord
100
AcDbLinetypeTableRecord
  2
ByBlock
 70
    0
  3

 72
   65
 73
    0
 40
0
  0
LTYPE
  5
15
330
5
100
AcDbSymbolTableRecord
100
AcDbLinetypeTableRecord
  2
ByLayer
 70
    0
  3

 72
   65
 73
    0
 40
0
  0
LTYPE
  5
16
330
5
100
AcDbSymbolTableRecord
100
AcDbLinetypeTableRecord
  2
Continuous
 70
    0
  3
Solid line
 72
   65
 73
    0
 40
0
  0
LTYPE
  5
32
330
5
100
AcDbSymbolTableRecord
100
AcDbLinetypeTableRecord
  2
DOT
 70
    0
  3
Dot . . . . . . . . . . . . . . . . . . . . . .
 72
   65
 73
    2
 40
6.35
 49
0
 74
    0
 49
-6.35
 74
    0
  0
LTYPE
  5
33
330
5
100
AcDbSymbolTableRecord
100
AcDbLinetypeTableRecord
  2
DOTTINY
 70
    0
  3
Dot (.15x) .....................................
 72
   65
 73
    2
 40
0.9525
 49
0
 74
    0
 49
-0.9525
 74
    0
  0
LTYPE
  5
34
330
5
100
AcDbSymbolTableRecord
100
AcDbLinetypeTableRecord
  2
DOT2
 70
    0
  3
Dot (.5x) .....................................
 72
   65
 73
    2
 40
3.175
 49
0
 74
    0
 49
-3.175
 74
    0
  0
LTYPE
  5
35
330
5
100
AcDbSymbolTableRecord
100
AcDbLinetypeTableRecord
  2
DOTX2
 70
    0
  3
Dot (2x) .  .  .  .  .  .  .  .  .  .  .  .  .
 72
   65
 73
    2
 40
12.7
 49
0
 74
    0
 49
-12.7
 74
    0
  0
LTYPE
  5
36
330
5
100
AcDbSymbolTableRecord
100
AcDbLinetypeTableRecord
  2
DASHED
 70
    0
  3
Dashed _ _ _ _ _ _ _ _ _ _ _ _ _ _ _ _ _
 72
   65
 73
    2
 40
19.05
 49
12.7
 74
    0
 49
-6.35
 74
    0
  0
LTYPE
  5
37
330
5
100
AcDbSymbolTableRecord
100
AcDbLinetypeTableRecord
  2
DASHEDTINY
 70
    0
  3
Dashed (.15x) _ _ _ _ _ _ _ _ _ _ _ _ _ _ _ _ _
 72
   65
 73
    2
 40
2.8575
 49
1.905
 74
    0
 49
-0.9525
 74
    0
  0
LTYPE
  5
38
330
5
100
AcDbSymbolTableRecord
100
AcDbLinetypeTableRecord
  2
DASHED2
 70
    0
  3
Dashed (.5x) _ _ _ _ _ _ _ _ _ _ _ _ _ _ _ _ _
 72
   65
 73
    2
 40
9.524999999999999
 49
6.35
 74
    0
 49
-3.175
 74
    0
  0
LTYPE
  5
39
330
5
100
AcDbSymbolTableRecord
100
AcDbLinetypeTableRecord
  2
DASHEDX2
 70
    0
  3
Dashed (2x) ____  ____  ____  ____  ____  ___
 72
   65
 73
    2
 40
38.09999999999999
 49
25.4
 74
    0
 49
-12.7
 74
    0
  0
LTYPE
  5
3A
330
5
100
AcDbSymbolTableRecord
100
AcDbLinetypeTableRecord
  2
DASHDOT
 70
    0
  3
Dash dot __ . __ . __ . __ . __ . __ . __ . __
 72
   65
 73
    4
 40
25.4
 49
12.7
 74
    0
 49
-6.35
 74
    0
 49
0
 74
    0
 49
-6.35
 74
    0
  0
LTYPE
  5
3B
330
5
100
AcDbSymbolTableRecord
100
AcDbLinetypeTableRecord
  2
DASHDOTTINY
 70
    0
  3
Dash dot (.15x) _._._._._._._._._._._._._._._.
 72
   65
 73
    4
 40
3.81
 49
1.905
 74
    0
 49
-0.9525
 74
    0
 49
0
 74
    0
 49
-0.9525
 74
    0
  0
LTYPE
  5
3C
330
5
100
AcDbSymbolTableRecord
100
AcDbLinetypeTableRecord
  2
DASHDOT2
 70
    0
  3
Dash dot (.5x) _._._._._._._._._._._._._._._.
 72
   65
 73
    4
 40
12.7
 49
6.35
 74
    0
 49
-3.175
 74
    0
 49
0
 74
    0
 49
-3.175
 74
    0
  0
LTYPE
  5
3D
330
5
100
AcDbSymbolTableRecord
100
AcDbLinetypeTableRecord
  2
DASHDOTX2
 70
    0
  3
Dash dot (2x) ____  .  ____  .  ____  .  ___
 72
   65
 73
    4
 40
50.8
 49
25.4
 74
    0
 49
-12.7
 74
    0
 49
0
 74
    0
 49
-12.7
 74
    0
  0
LTYPE
  5
3E
330
5
100
AcDbSymbolTableRecord
100
AcDbLinetypeTableRecord
  2
DIVIDE
 70
    0
  3
Divide ____ . . ____ . . ____ . . ____ . . ____
 72
   65
 73
    6
 40
31.75
 49
12.7
 74
    0
 49
-6.35
 74
    0
 49
0
 74
    0
 49
-6.35
 74
    0
 49
0
 74
    0
 49
-6.35
 74
    0
  0
LTYPE
  5
3F
330
5
100
AcDbSymbolTableRecord
100
AcDbLinetypeTableRecord
  2
DIVIDETINY
 70
    0
  3
Divide (.15x) __..__..__..__..__..__..__..__.._
 72
   65
 73
    6
 40
4.7625
 49
1.905
 74
    0
 49
-0.9525
 74
    0
 49
0
 74
    0
 49
-0.9525
 74
    0
 49
0
 74
    0
 49
-0.9525
 74
    0
  0
LTYPE
  5
40
330
5
100
AcDbSymbolTableRecord
100
AcDbLinetypeTableRecord
  2
DIVIDE2
 70
    0
  3
Divide (.5x) __..__..__..__..__..__..__..__.._
 72
   65
 73
    6
 40
15.875
 49
6.35
 74
    0
 49
-3.175
 74
    0
 49
0
 74
    0
 49
-3.175
 74
    0
 49
0
 74
    0
 49
-3.175
 74
    0
  0
LTYPE
  5
41
330
5
100
AcDbSymbolTableRecord
100
AcDbLinetypeTableRecord
  2
DIVIDEX2
 70
    0
  3
Divide (2x) ________  .  .  ________  .  .  _
 72
   65
 73
    6
 40
63.5
 49
25.4
 74
    0
 49
-12.7
 74
    0
 49
0
 74
    0
 49
-12.7
 74
    0
 49
0
 74
    0
 49
-12.7
 74
    0
  0
LTYPE
  5
42
330
5
100
AcDbSymbolTableRecord
100
AcDbLinetypeTableRecord
  2
BORDER
 70
    0
  3
Border __ __ . __ __ . __ __ . __ __ . __ __ .
 72
   65
 73
    6
 40
44.45
 49
12.7
 74
    0
 49
-6.35
 74
    0
 49
12.7
 74
    0
 49
-6.35
 74
    0
 49
0
 74
    0
 49
-6.35
 74
    0
  0
LTYPE
  5
43
330
5
100
AcDbSymbolTableRecord
100
AcDbLinetypeTableRecord
  2
BORDERTINY
 70
    0
  3
Border (.15x) __.__.__.__.__.__.__.__.__.__.__.
 72
   65
 73
    6
 40
6.6675
 49
1.905
 74
    0
 49
-0.9525
 74
    0
 49
1.905
 74
    0
 49
-0.9525
 74
    0
 49
0
 74
    0
 49
-0.9525
 74
    0
  0
LTYPE
  5
44
330
5
100
AcDbSymbolTableRecord
100
AcDbLinetypeTableRecord
  2
BORDER2
 70
    0
  3
Border (.5x) __.__.__.__.__.__.__.__.__.__.__.
 72
   65
 73
    6
 40
22.225
 49
6.35
 74
    0
 49
-3.175
 74
    0
 49
6.35
 74
    0
 49
-3.175
 74
    0
 49
0
 74
    0
 49
-3.175
 74
    0
  0
LTYPE
  5
45
330
5
100
AcDbSymbolTableRecord
100
AcDbLinetypeTableRecord
  2
BORDERX2
 70
    0
  3
Border (2x) ____  ____  .  ____  ____  .  ___
 72
   65
 73
    6
 40
88.89999999999999
 49
25.4
 74
    0
 49
-12.7
 74
    0
 49
25.4
 74
    0
 49
-12.7
 74
    0
 49
0
 74
    0
 49
-12.7
 74
    0
  0
LTYPE
  5
46
330
5
100
AcDbSymbolTableRecord
100
AcDbLinetypeTableRecord
  2
CENTER
 70
    0
  3
Center ____ _ ____ _ ____ _ ____ _ ____ _ ____
 72
   65
 73
    4
 40
50.8
 49
31.75
 74
    0
 49
-6.35
 74
    0
 49
6.35
 74
    0
 49
-6.35
 74
    0
  0
LTYPE
  5
47
330
5
100
AcDbSymbolTableRecord
100
AcDbLinetypeTableRecord
  2
CENTERTINY
 70
    0
  3
Center (.15x) ___ _ ___ _ ___ _ ___ _ ___ _ ___
 72
   65
 73
    4
 40
7.619999999999999
 49
4.7625
 74
    0
 49
-0.9525
 74
    0
 49
0.9525
 74
    0
 49
-0.9525
 74
    0
  0
LTYPE
  5
48
330
5
100
AcDbSymbolTableRecord
100
AcDbLinetypeTableRecord
  2
CENTER2
 70
    0
  3
Center (.5x) ___ _ ___ _ ___ _ ___ _ ___ _ ___
 72
   65
 73
    4
 40
28.575
 49
19.05
 74
    0
 49
-3.175
 74
    0
 49
3.175
 74
    0
 49
-3.175
 74
    0
  0
LTYPE
  5
49
330
5
100
AcDbSymbolTableRecord
100
AcDbLinetypeTableRecord
  2
CENTERX2
 70
    0
  3
Center (2x) ________  __  ________  __  _____
 72
   65
 73
    4
 40
101.6
 49
63.5
 74
    0
 49
-12.7
 74
    0
 49
12.7
 74
    0
 49
-12.7
 74
    0
  0
ENDTAB
  0
TABLE
  2
LAYER
  5
2
330
0
100
AcDbSymbolTable
 70
    1
  0
LAYER
  5
10
330
2
100
AcDbSymbolTableRecord
100
AcDbLayerTableRecord
  2
0
 70
    0
 62
    7
  6
CONTINUOUS
370
    0
390
F
  0
LAYER
  5
4A
330
2
100
AcDbSymbolTableRecord
100
AcDbLayerTableRecord
  2
objekte
 70
    0
 62
  253
420
10526884
  6
CONTINUOUS
370
    0
390
F
  0
ENDTAB
  0
TABLE
  2
STYLE
  5
3
330
0
100
AcDbSymbolTable
 70
    3
  0
STYLE
  5
4B
330
2
100
AcDbSymbolTableRecord
100
AcDbTextStyleTableRecord
  2
Standard
 70
    0
 40
0
 41
1
 50
0
 71
    0
 42
1
  3
txt
  4

  0
ENDTAB
  0
TABLE
  2
VIEW
  5
6
330
0
100
AcDbSymbolTable
 70
    0
  0
ENDTAB
  0
TABLE
  2
UCS
  5
7
330
0
100
AcDbSymbolTable
 70
    0
  0
ENDTAB
  0
TABLE
  2
APPID
  5
9
330
0
100
AcDbSymbolTable
 70
    1
  0
APPID
  5
12
330
9
100
AcDbSymbolTableRecord
100
AcDbRegAppTableRecord
  2
ACAD
 70
    0
  0
APPID
  5
4C
330
9
100
AcDbSymbolTableRecord
100
AcDbRegAppTableRecord
  2
LibreCad
 70
    0
  0
ENDTAB
  0
TABLE
  2
DIMSTYLE
  5
A
330
0
100
AcDbSymbolTable
 70
    1
100
AcDbDimStyleTable
 71
    1
  0
DIMSTYLE
105
4D
330
A
100
AcDbSymbolTableRecord
100
AcDbDimStyleTableRecord
  2
Standard
 70
    0
 40
30
 41
2.5
 42
0.625
 43
0.38
 44
1.25
 45
0
 46
0
 47
0
 48
0
 49
1
140
5
141
0.09
142
0
143
25.4
144
1
145
0
146
1
147
0.625
148
0
 71
    0
 72
    0
 73
    0
 74
    1
 75
    0
 76
    0
 77
    0
 78
    8
 79
    0
170
    0
171
    2
172
    0
173
    0
174
    0
175
    0
176
    0
177
    0
178
    0
179
    0
271
    2
272
    4
273
    2
274
    2
275
    0
276
    0
277
    2
278
   44
279
    0
280
    0
281
    0
282
    0
283
    1
284
    0
285
    0
286
    0
288
    0
289
    3
340
standard
341

371
   -2
372
   -2
  0
ENDTAB
  0
TABLE
  2
BLOCK_RECORD
  5
1
330
0
100
AcDbSymbolTable
 70
    2
  0
BLOCK_RECORD
  5
1F
330
1
100
AcDbSymbolTableRecord
100
AcDbBlockTableRecord
  2
*Model_Space
 70
    0
280
    1
281
    0
  0
BLOCK_RECORD
  5
1E
330
1
100
AcDbSymbolTableRecord
100
AcDbBlockTableRecord
  2
*Paper_Space
 70
    0
280
    1
281
    0
  0
BLOCK_RECORD
  5
4E
330
1
100
AcDbSymbolTableRecord
100
AcDbBlockTableRecord
  2
*D7
 70
    0
280
    1
281
    0
  0
BLOCK_RECORD
  5
51
330
1
100
AcDbSymbolTableRecord
100
AcDbBlockTableRecord
  2
*D13
 70
    0
280
    1
281
    0
  0
BLOCK_RECORD
  5
54
330
1
100
AcDbSymbolTableRecord
100
AcDbBlockTableRecord
  2
*D15
 70
    0
280
    1
281
    0
  0
BLOCK_RECORD
  5
57
330
1
100
AcDbSymbolTableRecord
100
AcDbBlockTableRecord
  2
*D5
 70
    0
280
    1
281
    0
  0
BLOCK_RECORD
  5
5A
330
1
100
AcDbSymbolTableRecord
100
AcDbBlockTableRecord
  2
*D11
 70
    0
280
    1
281
    0
  0
BLOCK_RECORD
  5
5D
330
1
100
AcDbSymbolTableRecord
100
AcDbBlockTableRecord
  2
*D14
 70
    0
280
    1
281
    0
  0
BLOCK_RECORD
  5
60
330
1
100
AcDbSymbolTableRecord
100
AcDbBlockTableRecord
  2
*D4
 70
    0
280
    1
281
    0
  0
BLOCK_RECORD
  5
63
330
1
100
AcDbSymbolTableRecord
100
AcDbBlockTableRecord
  2
*D9
 70
    0
280
    1
281
    0
  0
BLOCK_RECORD
  5
66
330
1
100
AcDbSymbolTableRecord
100
AcDbBlockTableRecord
  2
*D12
 70
    0
280
    1
281
    0
  0
BLOCK_RECORD
  5
69
330
1
100
AcDbSymbolTableRecord
100
AcDbBlockTableRecord
  2
*D2
 70
    0
280
    1
281
    0
  0
BLOCK_RECORD
  5
6C
330
1
100
AcDbSymbolTableRecord
100
AcDbBlockTableRecord
  2
*D6
 70
    0
280
    1
281
    0
  0
BLOCK_RECORD
  5
6F
330
1
100
AcDbSymbolTableRecord
100
AcDbBlockTableRecord
  2
*D1
 70
    0
280
    1
281
    0
  0
BLOCK_RECORD
  5
72
330
1
100
AcDbSymbolTableRecord
100
AcDbBlockTableRecord
  2
*D10
 70
    0
280
    1
281
    0
  0
BLOCK_RECORD
  5
75
330
1
100
AcDbSymbolTableRecord
100
AcDbBlockTableRecord
  2
*D3
 70
    0
280
    1
281
    0
  0
BLOCK_RECORD
  5
78
330
1
100
AcDbSymbolTableRecord
100
AcDbBlockTableRecord
  2
*D8
 70
    0
280
    1
281
    0
  0
ENDTAB
  0
ENDSEC
  0
SECTION
  2
BLOCKS
  0
BLOCK
  5
20
330
1F
100
AcDbEntity
  8
0
100
AcDbBlockBegin
  2
*Model_Space
 70
    0
 10
0
 20
0
 30
0
  3
*Model_Space
  1

  0
ENDBLK
  5
21
330
1F
100
AcDbEntity
  8
0
100
AcDbBlockEnd
  0
BLOCK
  5
1C
330
1B
100
AcDbEntity
  8
0
100
AcDbBlockBegin
  2
*Paper_Space
 70
    0
 10
0
 20
0
 30
0
  3
*Paper_Space
  1

  0
ENDBLK
  5
1D
330
1F
100
AcDbEntity
  8
0
100
AcDbBlockEnd
  0
BLOCK
  5
4F
330
4E
100
AcDbEntity
  8
0
100
AcDbBlockBegin
  2
*D7
 70
    1
 10
0
 20
0
  3
*D7
  1

  0
LINE
  5
7B
100
AcDbEntity
  8
0
  6
ByBlock
 62
    0
370
   -2
100
AcDbLine
 10
2130.726326103502
 20
-340.6546451701689
 11
2805.659122130647
 21
-340.6546451701689
  0
SOLID
  5
7C
100
AcDbEntity
  8
0
  6
ByBlock
 62
    0
370
   -2
100
AcDbTrace
 10
2130.726326103502
 20
-340.6546451701689
 30
0
 11
2205.726326103502
 21
-328.1661054369837
 31
0
 12
2205.726326103502
 22
-353.1431849033541
 32
0
 13
2205.726326103502
 23
-353.1431849033541
 33
0
  0
SOLID
  5
7D
100
AcDbEntity
  8
0
  6
ByBlock
 62
    0
370
   -2
100
AcDbTrace
 10
2805.659122130647
 20
-340.6546451701689
 30
0
 11
2730.659122130647
 21
-353.1431849033541
 31
0
 12
2730.659122130647
 22
-328.1661054369836
 32
0
 13
2730.659122130647
 23
-328.1661054369836
 33
0
  0
MTEXT
  5
7E
100
AcDbEntity
  8
0
  6
CONTINUOUS
 62
    0
370
   -2
100
AcDbMText
 10
2468.192724117075
 20
-246.9046451701689
 30
0
 40
150
 41
608.3333333333518
 71
    5
 72
    1
  1
674,93
  7
standard
210
0
220
0
230
1
 50
0
 73
    2
 44
1
  0
LINE
  5
7F
100
AcDbEntity
  8
0
  6
ByBlock
 62
    0
370
   -2
100
AcDbLine
 10
2130.726326103502
 20
-18.60745750443521
 11
2130.726326103502
 21
-378.1546451701689
  0
LINE
  5
80
100
AcDbEntity
  8
0
  6
ByBlock
 62
    0
370
   -2
100
AcDbLine
 10
2805.659122130647
 20
-18.6074575044353
 11
2805.659122130647
 21
-378.1546451701689
  0
ENDBLK
  5
50
330
4E
100
AcDbEntity
  8
0
100
AcDbBlockEnd
  0
BLOCK
  5
52
330
51
100
AcDbEntity
  8
0
100
AcDbBlockBegin
  2
*D13
 70
    1
 10
0
 20
0
  3
*D13
  1

  0
LINE
  5
81
100
AcDbEntity
  8
0
  6
ByBlock
 62
    0
370
   -2
100
AcDbLine
 10
1556.339586807723
 20
5970.142542495565
 11
1556.339586807723
 21
4400.142542495565
  0
SOLID
  5
82
100
AcDbEntity
  8
0
  6
ByBlock
 62
    0
370
   -2
100
AcDbTrace
 10
1556.339586807723
 20
5970.142542495565
 30
0
 11
1568.828126540908
 21
5895.142542495565
 31
0
 12
1543.851047074538
 22
5895.142542495565
 32
0
 13
1543.851047074538
 23
5895.142542495565
 33
0
  0
SOLID
  5
83
100
AcDbEntity
  8
0
  6
ByBlock
 62
    0
370
   -2
100
AcDbTrace
 10
1556.339586807723
 20
4400.142542495565
 30
0
 11
1543.851047074538
 21
4475.142542495565
 31
0
 12
1568.828126540908
 22
4475.142542495565
 32
0
 13
1568.828126540908
 23
4475.142542495565
 33
0
  0
MTEXT
  5
84
100
AcDbEntity
  8
0
  6
CONTINUOUS
 62
    0
370
   -2
100
AcDbMText
 10
1462.589586807723
 20
5185.142542495565
 30
0
 40
150
 41
383.3333333333427
 71
    5
 72
    1
  1
1570
  7
standard
210
0
220
0
230
1
 50
90
 73
    2
 44
1
  0
LINE
  5
85
100
AcDbEntity
  8
0
  6
ByBlock
 62
    0
370
   -2
100
AcDbLine
 10
1600.969931971838
 20
5970.142542495565
 11
1518.839586807723
 21
5970.142542495565
  0
LINE
  5
86
100
AcDbEntity
  8
0
  6
ByBlock
 62
    0
370
   -2
100
AcDbLine
 10
1720.688361726278
 20
4400.142542495565
 11
1518.839586807723
 21
4400.142542495565
  0
ENDBLK
  5
53
330
51
100
AcDbEntity
  8
0
100
AcDbBlockEnd
  0
BLOCK
  5
55
330
54
100
AcDbEntity
  8
0
100
AcDbBlockBegin
  2
*D15
 70
    1
 10
0
 20
0
  3
*D15
  1

  0
LINE
  5
87
100
AcDbEntity
  8
0
  6
ByBlock
 62
    0
370
   -2
100
AcDbLine
 10
2246.481123039202
 20
6710.142542495565
 11
2246.481123039202
 21
8225.142542495565
  0
SOLID
  5
88
100
AcDbEntity
  8
0
  6
ByBlock
 62
    0
370
   -2
100
AcDbTrace
 10
2246.481123039202
 20
6710.142542495565
 30
0
 11
2233.992583306017
 21
6785.142542495565
 31
0
 12
2258.969662772387
 22
6785.142542495565
 32
0
 13
2258.969662772387
 23
6785.142542495565
 33
0
  0
SOLID
  5
89
100
AcDbEntity
  8
0
  6
ByBlock
 62
    0
370
   -2
100
AcDbTrace
 10
2246.481123039202
 20
8225.142542495565
 30
0
 11
2258.969662772387
 21
8150.142542495565
 31
0
 12
2233.992583306017
 22
8150.142542495565
 32
0
 13
2233.992583306017
 23
8150.142542495565
 33
0
  0
MTEXT
  5
8A
100
AcDbEntity
  8
0
  6
CONTINUOUS
 62
    0
370
   -2
100
AcDbMText
 10
2152.731123039202
 20
7467.642542495565
 30
0
 40
150
 41
350.0000000000186
 71
    5
 72
    1
  1
1515
  7
standard
210
0
220
0
230
1
 50
90
 73
    2
 44
1
  0
LINE
  5
8B
100
AcDbEntity
  8
0
  6
ByBlock
 62
    0
370
   -2
100
AcDbLine
 10
3051.675610172702
 20
6710.142542495565
 11
2208.981123039202
 21
6710.142542495565
  0
LINE
  5
8C
100
AcDbEntity
  8
0
  6
ByBlock
 62
    0
370
   -2
100
AcDbLine
 10
3058.717870746493
 20
8225.142542495565
 11
2208.981123039202
 21
8225.142542495565
  0
ENDBLK
  5
56
330
54
100
AcDbEntity
  8
0
100
AcDbBlockEnd
  0
BLOCK
  5
58
330
57
100
AcDbEntity
  8
0
100
AcDbBlockBegin
  2
*D5
 70
    1
 10
0
 20
0
  3
*D5
  1

  0
LINE
  5
8D
100
AcDbEntity
  8
0
  6
ByBlock
 62
    0
370
   -2
100
AcDbLine
 10
4035.553337289383
 20
6710.142542495565
 11
4035.553337289383
 21
4403.877649819763
  0
SOLID
  5
8E
100
AcDbEntity
  8
0
  6
ByBlock
 62
    0
370
   -2
100
AcDbTrace
 10
4035.553337289383
 20
6710.142542495565
 30
0
 11
4048.041877022568
 21
6635.142542495565
 31
0
 12
4023.064797556198
 22
6635.142542495565
 32
0
 13
4023.064797556198
 23
6635.142542495565
 33
0
  0
SOLID
  5
8F
100
AcDbEntity
  8
0
  6
ByBlock
 62
    0
370
   -2
100
AcDbTrace
 10
4035.553337289383
 20
4403.877649819763
 30
0
 11
4023.064797556198
 21
4478.877649819763
 31
0
 12
4048.041877022568
 22
4478.877649819763
 32
0
 13
4048.041877022568
 23
4478.877649819763
 33
0
  0
MTEXT
  5
90
100
AcDbEntity
  8
0
  6
CONTINUOUS
 62
    0
370
   -2
100
AcDbMText
 10
3941.803337289383
 20
5557.010096157665
 30
0
 40
150
 41
708.3333333333612
 71
    5
 72
    1
  1
2306,26
  7
standard
210
0
220
0
230
1
 50
90
 73
    2
 44
1
  0
LINE
  5
91
100
AcDbEntity
  8
0
  6
ByBlock
 62
    0
370
   -2
100
AcDbLine
 10
3808.493701915464
 20
6710.142542495565
 11
4073.053337289383
 21
6710.142542495565
  0
LINE
  5
92
100
AcDbEntity
  8
0
  6
ByBlock
 62
    0
370
   -2
100
AcDbLine
 10
3565.873270673009
 20
4403.877649819763
 11
4073.053337289383
 21
4403.877649819763
  0
ENDBLK
  5
59
330
57
100
AcDbEntity
  8
0
100
AcDbBlockEnd
  0
BLOCK
  5
5B
330
5A
100
AcDbEntity
  8
0
100
AcDbBlockBegin
  2
*D11
 70
    1
 10
0
 20
0
  3
*D11
  1

  0
LINE
  5
93
100
AcDbEntity
  8
0
  6
ByBlock
 62
    0
370
   -2
100
AcDbLine
 10
2805.659122130647
 20
2777.448288700656
 11
3696.216269274403
 21
2777.448288700656
  0
SOLID
  5
94
100
AcDbEntity
  8
0
  6
ByBlock
 62
    0
370
   -2
100
AcDbTrace
 10
2805.659122130647
 20
2777.448288700656
 30
0
 11
2880.659122130647
 21
2789.936828433841
 31
0
 12
2880.659122130647
 22
2764.959748967471
 32
0
 13
2880.659122130647
 23
2764.959748967471
 33
0
  0
SOLID
  5
95
100
AcDbEntity
  8
0
  6
ByBlock
 62
    0
370
   -2
100
AcDbTrace
 10
3696.216269274403
 20
2777.448288700656
 30
0
 11
3621.216269274403
 21
2764.959748967471
 31
0
 12
3621.216269274403
 22
2789.936828433841
 32
0
 13
3621.216269274403
 23
2789.936828433841
 33
0
  0
MTEXT
  5
96
100
AcDbEntity
  8
0
  6
CONTINUOUS
 62
    0
370
   -2
100
AcDbMText
 10
3250.937695702525
 20
2871.198288700656
 30
0
 40
150
 41
591.6666666666852
 71
    5
 72
    1
  1
890,56
  7
standard
210
0
220
0
230
1
 50
0
 73
    2
 44
1
  0
LINE
  5
97
100
AcDbEntity
  8
0
  6
ByBlock
 62
    0
370
   -2
100
AcDbLine
 10
2805.659122130647
 20
2796.198288700656
 11
2805.659122130647
 21
2814.948288700656
  0
LINE
  5
98
100
AcDbEntity
  8
0
  6
ByBlock
 62
    0
370
   -2
100
AcDbLine
 10
3696.216269274403
 20
2796.198288700656
 11
3696.216269274403
 21
2814.948288700656
  0
ENDBLK
  5
5C
330
5A
100
AcDbEntity
  8
0
100
AcDbBlockEnd
  0
BLOCK
  5
5E
330
5D
100
AcDbEntity
  8
0
100
AcDbBlockBegin
  2
*D14
 70
    1
 10
0
 20
0
  3
*D14
  1

  0
LINE
  5
99
100
AcDbEntity
  8
0
  6
ByBlock
 62
    0
370
   -2
100
AcDbLine
 10
5105.638915998186
 20
7080.142542495565
 11
5105.638915998186
 21
8225.142542495565
  0
SOLID
  5
9A
100
AcDbEntity
  8
0
  6
ByBlock
 62
    0
370
   -2
100
AcDbTrace
 10
5105.638915998186
 20
7080.142542495565
 30
0
 11
5093.150376265001
 21
7155.142542495565
 31
0
 12
5118.127455731372
 22
7155.142542495565
 32
0
 13
5118.127455731372
 23
7155.142542495565
 33
0
  0
SOLID
  5
9B
100
AcDbEntity
  8
0
  6
ByBlock
 62
    0
370
   -2
100
AcDbTrace
 10
5105.638915998186
 20
8225.142542495565
 30
0
 11
5118.127455731372
 21
8150.142542495565
 31
0
 12
5093.150376265001
 22
8150.142542495565
 32
0
 13
5093.150376265001
 23
8150.142542495565
 33
0
  0
MTEXT
  5
9C
100
AcDbEntity
  8
0
  6
CONTINUOUS
 62
    0
370
   -2
100
AcDbMText
 10
5011.888915998186
 20
7652.642542495565
 30
0
 40
150
 41
366.666666666676
 71
    5
 72
    1
  1
1145
  7
standard
210
0
220
0
230
1
 50
90
 73
    2
 44
1
  0
LINE
  5
9D
100
AcDbEntity
  8
0
  6
ByBlock
 62
    0
370
   -2
100
AcDbLine
 10
4399.036076897754
 20
7080.142542495565
 11
5143.138915998186
 21
7080.142542495565
  0
LINE
  5
9E
100
AcDbEntity
  8
0
  6
ByBlock
 62
    0
370
   -2
100
AcDbLine
 10
4349.74025288122
 20
8225.142542495565
 11
5143.138915998186
 21
8225.142542495565
  0
ENDBLK
  5
5F
330
5D
100
AcDbEntity
  8
0
100
AcDbBlockEnd
  0
BLOCK
  5
61
330
60
100
AcDbEntity
  8
0
100
AcDbBlockBegin
  2
*D4
 70
    1
 10
0
 20
0
  3
*D4
  1

  0
LINE
  5
9F
100
AcDbEntity
  8
0
  6
ByBlock
 62
    0
370
   -2
100
AcDbLine
 10
4732.166710988145
 20
4400.142542495565
 11
4732.166710988145
 21
7080.142542495565
  0
SOLID
  5
A0
100
AcDbEntity
  8
0
  6
ByBlock
 62
    0
370
   -2
100
AcDbTrace
 10
4732.166710988145
 20
4400.142542495565
 30
0
 11
4719.678171254959
 21
4475.142542495565
 31
0
 12
4744.65525072133
 22
4475.142542495565
 32
0
 13
4744.65525072133
 23
4475.142542495565
 33
0
  0
SOLID
  5
A1
100
AcDbEntity
  8
0
  6
ByBlock
 62
    0
370
   -2
100
AcDbTrace
 10
4732.166710988145
 20
7080.142542495565
 30
0
 11
4744.65525072133
 21
7005.142542495565
 31
0
 12
4719.678171254959
 22
7005.142542495565
 32
0
 13
4719.678171254959
 23
7005.142542495565
 33
0
  0
MTEXT
  5
A2
100
AcDbEntity
  8
0
  6
CONTINUOUS
 62
    0
370
   -2
100
AcDbMText
 10
4638.416710988145
 20
5740.142542495565
 30
0
 40
150
 41
416.6666666666761
 71
    5
 72
    1
  1
2680
  7
standard
210
0
220
0
230
1
 50
90
 73
    2
 44
1
  0
LINE
  5
A3
100
AcDbEntity
  8
0
  6
ByBlock
 62
    0
370
   -2
100
AcDbLine
 10
4423.493701915463
 20
4400.142542495565
 11
4769.666710988145
 21
4400.142542495565
  0
LINE
  5
A4
100
AcDbEntity
  8
0
  6
ByBlock
 62
    0
370
   -2
100
AcDbLine
 10
4423.493701915464
 20
7080.142542495565
 11
4769.666710988145
 21
7080.142542495565
  0
ENDBLK
  5
62
330
60
100
AcDbEntity
  8
0
100
AcDbBlockEnd
  0
BLOCK
  5
64
330
63
100
AcDbEntity
  8
0
100
AcDbBlockBegin
  2
*D9
 70
    1
 10
0
 20
0
  3
*D9
  1

  0
LINE
  5
A5
100
AcDbEntity
  8
0
  6
ByBlock
 62
    0
370
   -2
100
AcDbLine
 10
3460.627271904303
 20
-390.2044117403752
 11
4404.743701915463
 21
-390.2044117403752
  0
SOLID
  5
A6
100
AcDbEntity
  8
0
  6
ByBlock
 62
    0
370
   -2
100
AcDbTrace
 10
3460.627271904303
 20
-390.2044117403752
 30
0
 11
3535.627271904303
 21
-377.71587200719
 31
0
 12
3535.627271904303
 22
-402.6929514735604
 32
0
 13
3535.627271904303
 23
-402.6929514735604
 33
0
  0
SOLID
  5
A7
100
AcDbEntity
  8
0
  6
ByBlock
 62
    0
370
   -2
100
AcDbTrace
 10
4404.743701915463
 20
-390.2044117403752
 30
0
 11
4329.743701915463
 21
-402.6929514735604
 31
0
 12
4329.743701915463
 22
-377.7158720071899
 32
0
 13
4329.743701915463
 23
-377.7158720071899
 33
0
  0
MTEXT
  5
A8
100
AcDbEntity
  8
0
  6
CONTINUOUS
 62
    0
370
   -2
100
AcDbMText
 10
3932.685486909883
 20
-296.4544117403752
 30
0
 40
150
 41
591.6666666666758
 71
    5
 72
    1
  1
944,12
  7
standard
210
0
220
0
230
1
 50
0
 73
    2
 44
1
  0
LINE
  5
A9
100
AcDbEntity
  8
0
  6
ByBlock
 62
    0
370
   -2
100
AcDbLine
 10
3460.627271904303
 20
-18.60745750443537
 11
3460.627271904303
 21
-427.7044117403752
  0
LINE
  5
AA
100
AcDbEntity
  8
0
  6
ByBlock
 62
    0
370
   -2
100
AcDbLine
 10
4404.743701915463
 20
-18.60745750443549
 11
4404.743701915463
 21
-427.7044117403752
  0
ENDBLK
  5
65
330
63
100
AcDbEntity
  8
0
100
AcDbBlockEnd
  0
BLOCK
  5
67
330
66
100
AcDbEntity
  8
0
100
AcDbBlockBegin
  2
*D12
 70
    1
 10
0
 20
0
  3
*D12
  1

  0
LINE
  5
AB
100
AcDbEntity
  8
0
  6
ByBlock
 62
    0
370
   -2
100
AcDbLine
 10
3755.515913329694
 20
3395.142542495568
 11
4404.743701915463
 21
3395.142542495568
  0
SOLID
  5
AC
100
AcDbEntity
  8
0
  6
ByBlock
 62
    0
370
   -2
100
AcDbTrace
 10
3755.515913329694
 20
3395.142542495568
 30
0
 11
3830.515913329694
 21
3407.631082228753
 31
0
 12
3830.515913329694
 22
3382.654002762383
 32
0
 13
3830.515913329694
 23
3382.654002762383
 33
0
  0
SOLID
  5
AD
100
AcDbEntity
  8
0
  6
ByBlock
 62
    0
370
   -2
100
AcDbTrace
 10
4404.743701915463
 20
3395.142542495568
 30
0
 11
4329.743701915463
 21
3382.654002762383
 31
0
 12
4329.743701915463
 22
3407.631082228753
 32
0
 13
4329.743701915463
 23
3407.631082228753
 33
0
  0
MTEXT
  5
AE
100
AcDbEntity
  8
0
  6
CONTINUOUS
 62
    0
370
   -2
100
AcDbMText
 10
4080.129807622578
 20
3488.892542495568
 30
0
 40
150
 41
608.3333333333517
 71
    5
 72
    1
  1
649,23
  7
standard
210
0
220
0
230
1
 50
0
 73
    2
 44
1
  0
LINE
  5
AF
100
AcDbEntity
  8
0
  6
ByBlock
 62
    0
370
   -2
100
AcDbLine
 10
3755.515913329694
 20
3413.892542495568
 11
3755.515913329694
 21
3432.642542495568
  0
LINE
  5
B0
100
AcDbEntity
  8
0
  6
ByBlock
 62
    0
370
   -2
100
AcDbLine
 10
4404.743701915463
 20
3413.892542495568
 11
4404.743701915463
 21
3432.642542495568
  0
ENDBLK
  5
68
330
66
100
AcDbEntity
  8
0
100
AcDbBlockEnd
  0
BLOCK
  5
6A
330
69
100
AcDbEntity
  8
0
100
AcDbBlockBegin
  2
*D2
 70
    1
 10
0
 20
0
  3
*D2
  1

  0
LINE
  5
B1
100
AcDbEntity
  8
0
  6
ByBlock
 62
    0
370
   -2
100
AcDbLine
 10
3789.743701915464
 20
6340.142542495565
 11
3789.743701915464
 21
6710.142542495565
  0
SOLID
  5
B2
100
AcDbEntity
  8
0
  6
ByBlock
 62
    0
370
   -2
100
AcDbTrace
 10
3789.743701915464
 20
6340.142542495565
 30
0
 11
3777.255162182279
 21
6415.142542495565
 31
0
 12
3802.232241648649
 22
6415.142542495565
 32
0
 13
3802.232241648649
 23
6415.142542495565
 33
0
  0
SOLID
  5
B3
100
AcDbEntity
  8
0
  6
ByBlock
 62
    0
370
   -2
100
AcDbTrace
 10
3789.743701915464
 20
6710.142542495565
 30
0
 11
3802.232241648649
 21
6635.142542495565
 31
0
 12
3777.255162182279
 22
6635.142542495565
 32
0
 13
3777.255162182279
 23
6635.142542495565
 33
0
  0
MTEXT
  5
B4
100
AcDbEntity
  8
0
  6
CONTINUOUS
 62
    0
370
   -2
100
AcDbMText
 10
3695.993701915464
 20
6525.142542495565
 30
0
 40
150
 41
300.0000000000093
 71
    5
 72
    1
  1
370
  7
standard
210
0
220
0
230
1
 50
90
 73
    2
 44
1
  0
LINE
  5
B5
100
AcDbEntity
  8
0
  6
ByBlock
 62
    0
370
   -2
100
AcDbLine
 10
3770.993701915464
 20
6340.142542495565
 11
3752.243701915464
 21
6340.142542495565
  0
LINE
  5
B6
100
AcDbEntity
  8
0
  6
ByBlock
 62
    0
370
   -2
100
AcDbLine
 10
3770.993701915464
 20
6710.142542495565
 11
3752.243701915464
 21
6710.142542495565
  0
ENDBLK
  5
6B
330
69
100
AcDbEntity
  8
0
100
AcDbBlockEnd
  0
BLOCK
  5
6D
330
6C
100
AcDbEntity
  8
0
100
AcDbBlockBegin
  2
*D6
 70
    1
 10
0
 20
0
  3
*D6
  1

  0
LINE
  5
B7
100
AcDbEntity
  8
0
  6
ByBlock
 62
    0
370
   -2
100
AcDbLine
 10
3603.172622579806
 20
6340.142542495565
 11
3603.172622579806
 21
4403.877649819763
  0
SOLID
  5
B8
100
AcDbEntity
  8
0
  6
ByBlock
 62
    0
370
   -2
100
AcDbTrace
 10
3603.172622579806
 20
6340.142542495565
 30
0
 11
3615.661162312991
 21
6265.142542495565
 31
0
 12
3590.684082846621
 22
6265.142542495565
 32
0
 13
3590.684082846621
 23
6265.142542495565
 33
0
  0
SOLID
  5
B9
100
AcDbEntity
  8
0
  6
ByBlock
 62
    0
370
   -2
100
AcDbTrace
 10
3603.172622579806
 20
4403.877649819763
 30
0
 11
3590.684082846621
 21
4478.877649819763
 31
0
 12
3615.661162312991
 22
4478.877649819763
 32
0
 13
3615.661162312991
 23
4478.877649819763
 33
0
  0
MTEXT
  5
BA
100
AcDbEntity
  8
0
  6
CONTINUOUS
 62
    0
370
   -2
100
AcDbMText
 10
3509.422622579806
 20
5372.010096157665
 30
0
 40
150
 41
675.0000000000277
 71
    5
 72
    1
  1
1936,26
  7
standard
210
0
220
0
230
1
 50
90
 73
    2
 44
1
  0
LINE
  5
BB
100
AcDbEntity
  8
0
  6
ByBlock
 62
    0
370
   -2
100
AcDbLine
 10
3770.993701915464
 20
6340.142542495565
 11
3565.672622579806
 21
6340.142542495565
  0
LINE
  5
BC
100
AcDbEntity
  8
0
  6
ByBlock
 62
    0
370
   -2
100
AcDbLine
 10
3381.711114407819
 20
4403.877649819763
 11
3640.672622579806
 21
4403.877649819763
  0
ENDBLK
  5
6E
330
6C
100
AcDbEntity
  8
0
100
AcDbBlockEnd
  0
BLOCK
  5
70
330
6F
100
AcDbEntity
  8
0
100
AcDbBlockBegin
  2
*D1
 70
    1
 10
0
 20
0
  3
*D1
  1

  0
LINE
  5
BD
100
AcDbEntity
  8
0
  6
ByBlock
 62
    0
370
   -2
100
AcDbLine
 10
3789.743701915464
 20
5970.142542495565
 11
3789.743701915464
 21
6340.142542495565
  0
SOLID
  5
BE
100
AcDbEntity
  8
0
  6
ByBlock
 62
    0
370
   -2
100
AcDbTrace
 10
3789.743701915464
 20
5970.142542495565
 30
0
 11
3777.255162182279
 21
6045.142542495565
 31
0
 12
3802.232241648649
 22
6045.142542495565
 32
0
 13
3802.232241648649
 23
6045.142542495565
 33
0
  0
SOLID
  5
BF
100
AcDbEntity
  8
0
  6
ByBlock
 62
    0
370
   -2
100
AcDbTrace
 10
3789.743701915464
 20
6340.142542495565
 30
0
 11
3802.232241648649
 21
6265.142542495565
 31
0
 12
3777.255162182279
 22
6265.142542495565
 32
0
 13
3777.255162182279
 23
6265.142542495565
 33
0
  0
MTEXT
  5
C0
100
AcDbEntity
  8
0
  6
CONTINUOUS
 62
    0
370
   -2
100
AcDbMText
 10
3695.993701915464
 20
6155.142542495565
 30
0
 40
150
 41
300.0000000000093
 71
    5
 72
    1
  1
370
  7
standard
210
0
220
0
230
1
 50
90
 73
    2
 44
1
  0
LINE
  5
C1
100
AcDbEntity
  8
0
  6
ByBlock
 62
    0
370
   -2
100
AcDbLine
 10
3770.993701915464
 20
5970.142542495565
 11
3752.243701915464
 21
5970.142542495565
  0
LINE
  5
C2
100
AcDbEntity
  8
0
  6
ByBlock
 62
    0
370
   -2
100
AcDbLine
 10
3770.993701915464
 20
6340.142542495565
 11
3752.243701915464
 21
6340.142542495565
  0
ENDBLK
  5
71
330
6F
100
AcDbEntity
  8
0
100
AcDbBlockEnd
  0
BLOCK
  5
73
330
72
100
AcDbEntity
  8
0
100
AcDbBlockBegin
  2
*D10
 70
    1
 10
0
 20
0
  3
*D10
  1

  0
LINE
  5
C3
100
AcDbEntity
  8
0
  6
ByBlock
 62
    0
370
   -2
100
AcDbLine
 10
1663.158993624662
 20
2430.970174147679
 11
2805.659122130647
 21
2430.970174147679
  0
SOLID
  5
C4
100
AcDbEntity
  8
0
  6
ByBlock
 62
    0
370
   -2
100
AcDbTrace
 10
1663.158993624662
 20
2430.970174147679
 30
0
 11
1738.158993624662
 21
2443.458713880864
 31
0
 12
1738.158993624662
 22
2418.481634414494
 32
0
 13
1738.158993624662
 23
2418.481634414494
 33
0
  0
SOLID
  5
C5
100
AcDbEntity
  8
0
  6
ByBlock
 62
    0
370
   -2
100
AcDbTrace
 10
2805.659122130647
 20
2430.970174147679
 30
0
 11
2730.659122130647
 21
2418.481634414494
 31
0
 12
2730.659122130647
 22
2443.458713880864
 32
0
 13
2730.659122130647
 23
2443.458713880864
 33
0
  0
MTEXT
  5
C6
100
AcDbEntity
  8
0
  6
CONTINUOUS
 62
    0
370
   -2
100
AcDbMText
 10
2234.409057877654
 20
2524.720174147679
 30
0
 40
150
 41
541.6666666666758
 71
    5
 72
    1
  1
1142,5
  7
standard
210
0
220
0
230
1
 50
0
 73
    2
 44
1
  0
LINE
  5
C7
100
AcDbEntity
  8
0
  6
ByBlock
 62
    0
370
   -2
100
AcDbLine
 10
1663.158993624662
 20
2449.720174147679
 11
1663.158993624662
 21
2468.470174147679
  0
LINE
  5
C8
100
AcDbEntity
  8
0
  6
ByBlock
 62
    0
370
   -2
100
AcDbLine
 10
2805.659122130647
 20
2449.720174147679
 11
2805.659122130647
 21
2468.470174147679
  0
ENDBLK
  5
74
330
72
100
AcDbEntity
  8
0
100
AcDbBlockEnd
  0
BLOCK
  5
76
330
75
100
AcDbEntity
  8
0
100
AcDbBlockBegin
  2
*D3
 70
    1
 10
0
 20
0
  3
*D3
  1

  0
LINE
  5
C9
100
AcDbEntity
  8
0
  6
ByBlock
 62
    0
370
   -2
100
AcDbLine
 10
3789.743701915464
 20
7080.142542495565
 11
3789.743701915464
 21
6710.142542495565
  0
SOLID
  5
CA
100
AcDbEntity
  8
0
  6
ByBlock
 62
    0
370
   -2
100
AcDbTrace
 10
3789.743701915464
 20
7080.142542495565
 30
0
 11
3802.232241648649
 21
7005.142542495565
 31
0
 12
3777.255162182279
 22
7005.142542495565
 32
0
 13
3777.255162182279
 23
7005.142542495565
 33
0
  0
SOLID
  5
CB
100
AcDbEntity
  8
0
  6
ByBlock
 62
    0
370
   -2
100
AcDbTrace
 10
3789.743701915464
 20
6710.142542495565
 30
0
 11
3777.255162182279
 21
6785.142542495565
 31
0
 12
3802.232241648649
 22
6785.142542495565
 32
0
 13
3802.232241648649
 23
6785.142542495565
 33
0
  0
MTEXT
  5
CC
100
AcDbEntity
  8
0
  6
CONTINUOUS
 62
    0
370
   -2
100
AcDbMText
 10
3695.993701915464
 20
6895.142542495565
 30
0
 40
150
 41
300.0000000000093
 71
    5
 72
    1
  1
370
  7
standard
210
0
220
0
230
1
 50
90
 73
    2
 44
1
  0
LINE
  5
CD
100
AcDbEntity
  8
0
  6
ByBlock
 62
    0
370
   -2
100
AcDbLine
 10
3802.775746726784
 20
7080.142542495565
 11
3752.243701915464
 21
7080.142542495565
  0
LINE
  5
CE
100
AcDbEntity
  8
0
  6
ByBlock
 62
    0
370
   -2
100
AcDbLine
 10
3770.993701915464
 20
6710.142542495565
 11
3752.243701915464
 21
6710.142542495565
  0
ENDBLK
  5
77
330
75
100
AcDbEntity
  8
0
100
AcDbBlockEnd
  0
BLOCK
  5
79
330
78
100
AcDbEntity
  8
0
100
AcDbBlockBegin
  2
*D8
 70
    1
 10
0
 20
0
  3
*D8
  1

  0
LINE
  5
CF
100
AcDbEntity
  8
0
  6
ByBlock
 62
    0
370
   -2
100
AcDbLine
 10
2805.659122130647
 20
-340.6546451701689
 11
3460.627271904303
 21
-340.6546451701689
  0
SOLID
  5
D0
100
AcDbEntity
  8
0
  6
ByBlock
 62
    0
370
   -2
100
AcDbTrace
 10
2805.659122130647
 20
-340.6546451701689
 30
0
 11
2880.659122130647
 21
-328.1661054369837
 31
0
 12
2880.659122130647
 22
-353.1431849033542
 32
0
 13
2880.659122130647
 23
-353.1431849033542
 33
0
  0
SOLID
  5
D1
100
AcDbEntity
  8
0
  6
ByBlock
 62
    0
370
   -2
100
AcDbTrace
 10
3460.627271904303
 20
-340.6546451701689
 30
0
 11
3385.627271904303
 21
-353.1431849033542
 31
0
 12
3385.627271904303
 22
-328.1661054369837
 32
0
 13
3385.627271904303
 23
-328.1661054369837
 33
0
  0
MTEXT
  5
D2
100
AcDbEntity
  8
0
  6
CONTINUOUS
 62
    0
370
   -2
100
AcDbMText
 10
3133.143197017475
 20
-246.9046451701689
 30
0
 40
150
 41
608.333333333352
 71
    5
 72
    1
  1
654,97
  7
standard
210
0
220
0
230
1
 50
0
 73
    2
 44
1
  0
LINE
  5
D3
100
AcDbEntity
  8
0
  6
ByBlock
 62
    0
370
   -2
100
AcDbLine
 10
2805.659122130647
 20
-18.6074575044353
 11
2805.659122130647
 21
-378.1546451701689
  0
LINE
  5
D4
100
AcDbEntity
  8
0
  6
ByBlock
 62
    0
370
   -2
100
AcDbLine
 10
3460.627271904303
 20
-18.60745750443537
 11
3460.627271904303
 21
-378.1546451701689
  0
ENDBLK
  5
7A
330
78
100
AcDbEntity
  8
0
100
AcDbBlockEnd
  0
ENDSEC
  0
SECTION
  2
ENTITIES
  0
LINE
  5
D5
100
AcDbEntity
  8
0
  6
ByLayer
 62
  256
370
   -1
100
AcDbLine
 10
929.7437019154634
 20
3775.142542495565
 11
929.7437019154634
 21
3705.142542495565
  0
LINE
  5
D6
100
AcDbEntity
  8
0
  6
ByLayer
 62
  256
370
   -1
100
AcDbLine
 10
929.7437019154634
 20
3705.142542495565
 11
529.7437019154634
 21
3705.142542495565
  0
LINE
  5
D7
100
AcDbEntity
  8
0
  6
ByLayer
 62
  256
370
   -1
100
AcDbLine
 10
529.7437019154634
 20
3705.142542495565
 11
529.7437019154634
 21
3525.142542495565
  0
LINE
  5
D8
100
AcDbEntity
  8
0
  6
ByLayer
 62
  256
370
   -1
100
AcDbLine
 10
529.7437019154634
 20
3525.142542495565
 11
-0.2562980845366498
 21
3525.142542495565
  0
LINE
  5
D9
100
AcDbEntity
  8
objekte
  6
ByLayer
 62
  256
370
   -1
100
AcDbLine
 10
4364.743701915463
 20
3395.142542495564
 11
4364.743701915463
 21
2535.142542495564
  0
ARC
  5
DA
100
AcDbEntity
  8
objekte
  6
ByLayer
 62
  256
370
   -1
100
AcDbCircle
 10
4404.743701915463
 20
400.1425424955645
 40
0
100
AcDbArc
 50
90
 51
180
  0
LINE
  5
DB
100
AcDbEntity
  8
objekte
  6
ByLayer
 62
  256
370
   -1
100
AcDbLine
 10
4364.743701915463
 20
2535.142542495564
 11
4364.743701915463
 21
2475.142542495564
  0
LINE
  5
DC
100
AcDbEntity
  8
objekte
  6
ByLayer
 62
  256
370
   -1
100
AcDbLine
 10
4364.743701915463
 20
3395.142542495565
 11
4364.743701915463
 21
3455.142542495565
  0
LINE
  5
DD
100
AcDbEntity
  8
objekte
  6
ByLayer
 62
  256
370
   -1
100
AcDbLine
 10
4364.743701915463
 20
2475.142542495564
 11
4404.743701915463
 21
2475.142542495564
  0
LINE
  5
DE
100
AcDbEntity
  8
objekte
  6
ByLayer
 62
  256
370
   -1
100
AcDbLine
 10
4404.743701915463
 20
3455.142542495565
 11
4404.743701915463
 21
2475.142542495564
  0
LINE
  5
DF
100
AcDbEntity
  8
objekte
  6
ByLayer
 62
  256
370
   -1
100
AcDbLine
 10
4364.743701915463
 20
3455.142542495565
 11
4404.743701915463
 21
3455.142542495565
  0
LINE
  5
E0
100
AcDbEntity
  8
objekte
  6
ByLayer
 62
  256
370
   -1
100
AcDbLine
 10
-0.2562980845366498
 20
3525.142542495565
 11
-0.2562980845366529
 21
3475.142542495565
  0
LINE
  5
E1
100
AcDbEntity
  8
objekte
  6
ByLayer
 62
  256
370
   -1
100
AcDbLine
 10
-0.2562980845366529
 20
3475.142542495565
 11
-0.2562980845367119
 21
2510.142542495565
  0
LINE
  5
E2
100
AcDbEntity
  8
objekte
  6
ByLayer
 62
  256
370
   -1
100
AcDbLine
 10
-0.2562980845366529
 20
3475.142542495565
 11
964.7437019154634
 21
3475.142542495565
  0
ARC
  5
E3
100
AcDbEntity
  8
objekte
  6
ByLayer
 62
  256
370
   -1
100
AcDbCircle
 10
-0.2562980845366529
 20
3475.142542495565
 40
965
100
AcDbArc
 50
270
 51
360
  0
LINE
  5
E4
100
AcDbEntity
  8
objekte
  6
ByLayer
 62
  256
370
   -1
100
AcDbLine
 10
729.7437019154632
 20
2455.142542495565
 11
-0.2562980845367153
 21
2455.142542495565
  0
LINE
  5
E5
100
AcDbEntity
  8
objekte
  6
ByLayer
 62
  256
370
   -1
100
AcDbLine
 10
729.7437019154634
 20
3295.142542495565
 11
729.7437019154632
 21
2455.142542495565
  0
LINE
  5
E6
100
AcDbEntity
  8
objekte
  6
ByLayer
 62
  256
370
   -1
100
AcDbLine
 10
729.7437019154634
 20
3295.142542495565
 11
-0.2562980845366639
 21
3295.142542495565
  0
CIRCLE
  5
E7
100
AcDbEntity
  8
objekte
  6
ByLayer
 62
  256
370
   -1
100
AcDbCircle
 10
599.7437019154631
 20
145.142542495565
 40
44.99999999999999
  0
CIRCLE
  5
E8
100
AcDbEntity
  8
objekte
  6
ByLayer
 62
  256
370
   -1
100
AcDbCircle
 10
599.7437019154631
 20
260.142542495565
 40
45
  0
LINE
  5
E9
100
AcDbEntity
  8
objekte
  6
ByLayer
 62
  256
370
   -1
100
AcDbLine
 10
639.7437019154631
 20
770.1425424955651
 11
529.7437019154631
 21
770.1425424955651
  0
LINE
  5
EA
100
AcDbEntity
  8
objekte
  6
ByLayer
 62
  256
370
   -1
100
AcDbLine
 10
529.7437019154631
 20
770.1425424955651
 11
529.7437019154632
 21
1520.142542495565
  0
LINE
  5
EB
100
AcDbEntity
  8
objekte
  6
ByLayer
 62
  256
370
   -1
100
AcDbLine
 10
639.7437019154631
 20
770.1425424955651
 11
639.7437019154632
 21
1520.142542495565
  0
LINE
  5
EC
100
AcDbEntity
  8
objekte
  6
ByLayer
 62
  256
370
   -1
100
AcDbLine
 10
639.7437019154632
 20
1520.142542495565
 11
529.7437019154632
 21
1520.142542495565
  0
LINE
  5
ED
100
AcDbEntity
  8
0
  6
ByLayer
 62
  256
370
   -1
100
AcDbLine
 10
4404.743701915463
 20
0.142542495564513
 11
529.7437019154631
 21
0.1425424955649776
  0
LINE
  5
EE
100
AcDbEntity
  8
0
  6
ByLayer
 62
  256
370
   -1
100
AcDbLine
 10
529.7437019154631
 20
0.1425424955649776
 11
529.7437019154631
 21
440.142542495565
  0
LINE
  5
EF
100
AcDbEntity
  8
0
  6
ByLayer
 62
  256
370
   -1
100
AcDbLine
 10
-0.2562980845366498
 20
3525.142542495565
 11
-0.2562980845368387
 21
440.1425424955651
  0
LINE
  5
F0
100
AcDbEntity
  8
0
  6
ByLayer
 62
  256
370
   -1
100
AcDbLine
 10
529.7437019154631
 20
440.142542495565
 11
-0.2562980845368387
 21
440.1425424955651
  0
LINE
  5
F1
100
AcDbEntity
  8
0
  6
ByLayer
 62
  256
370
   -1
100
AcDbLine
 10
4404.743701915463
 20
4400.142542495565
 11
4404.743701915464
 21
8225.142542495565
  0
LINE
  5
F2
100
AcDbEntity
  8
0
  6
ByLayer
 62
  256
370
   -1
100
AcDbLine
 10
4404.743701915463
 20
4400.142542495565
 11
-0.2562980845365962
 21
4400.142542495565
  0
LINE
  5
F3
100
AcDbEntity
  8
0
  6
ByLayer
 62
  256
370
   -1
100
AcDbLine
 10
289.7437019154635
 20
5940.142542495565
 11
-0.2562980845365019
 21
5940.142542495565
  0
LINE
  5
F4
100
AcDbEntity
  8
0
  6
ByLayer
 62
  256
370
   -1
100
AcDbLine
 10
289.7437019154635
 20
5940.142542495565
 11
289.7437019154635
 21
5970.142542495565
  0
LINE
  5
F5
100
AcDbEntity
  8
0
  6
ByLayer
 62
  256
370
   -1
100
AcDbLine
 10
289.7437019154635
 20
5970.142542495565
 11
-0.2562980845365001
 21
5970.142542495565
  0
LINE
  5
F6
100
AcDbEntity
  8
0
  6
ByLayer
 62
  256
370
   -1
100
AcDbLine
 10
534.7437019154635
 20
5595.142542495565
 11
269.7437019154635
 21
5940.142542495565
  0
LINE
  5
F7
100
AcDbEntity
  8
0
  6
ByLayer
 62
  256
370
   -1
100
AcDbLine
 10
534.7437019154636
 20
8195.142542495565
 11
-0.2562980845363638
 21
8195.142542495565
  0
LINE
  5
F8
100
AcDbEntity
  8
0
  6
ByLayer
 62
  256
370
   -1
100
AcDbLine
 10
534.7437019154636
 20
8195.142542495565
 11
534.7437019154636
 21
8225.142542495565
  0
LINE
  5
F9
100
AcDbEntity
  8
0
  6
ByLayer
 62
  256
370
   -1
100
AcDbLine
 10
534.7437019154634
 20
4400.142542495565
 11
534.7437019154635
 21
5595.142542495565
  0
LINE
  5
FA
100
AcDbEntity
  8
0
  6
ByLayer
 62
  256
370
   -1
100
AcDbLine
 10
4404.743701915464
 20
8225.142542495565
 11
534.7437019154636
 21
8225.142542495565
  0
LINE
  5
FB
100
AcDbEntity
  8
0
  6
ByLayer
 62
  256
370
   -1
100
AcDbLine
 10
-0.2562980845365962
 20
4400.142542495565
 11
-0.2562980845363638
 21
8195.142542495565
  0
LINE
  5
FC
100
AcDbEntity
  8
0
  6
ByLayer
 62
  256
370
   -1
100
AcDbLine
 10
289.7437019154635
 20
5970.142542495565
 11
3789.743701915464
 21
5970.142542495565
  0
LINE
  5
FD
100
AcDbEntity
  8
0
  6
ByLayer
 62
  256
370
   -1
100
AcDbLine
 10
4404.743701915464
 20
7080.142542495565
 11
534.7437019154634
 21
7080.142542495565
  0
LINE
  5
FE
100
AcDbEntity
  8
0
  6
ByLayer
 62
  256
370
   -1
100
AcDbLine
 10
289.7437019154635
 20
6340.142542495565
 11
3789.743701915464
 21
6340.142542495565
  0
LINE
  5
FF
100
AcDbEntity
  8
0
  6
ByLayer
 62
  256
370
   -1
100
AcDbLine
 10
289.7437019154635
 20
6710.142542495565
 11
3789.743701915464
 21
6710.142542495565
  0
DIMENSION
  5
100
100
AcDbEntity
  8
0
  6
ByLayer
 62
  256
370
   -1
100
AcDbDimension
  2
*D1
 10
3789.743701915464
 20
6340.142542495565
 30
0
 11
3695.993701915464
 21
6155.142542495565
 31
0
 70
   32
 71
    5
 72
    0
  3
Standard
 53
0
210
0
220
0
230
1
100
AcDbAlignedDimension
 13
3789.743701915464
 23
5970.142542495565
 33
0
 14
3789.743701915464
 24
6340.142542495565
 34
0
 50
90
100
AcDbRotatedDimension
  0
DIMENSION
  5
101
100
AcDbEntity
  8
0
  6
ByLayer
 62
  256
370
   -1
100
AcDbDimension
  2
*D2
 10
3789.743701915464
 20
6710.142542495565
 30
0
 11
3695.993701915464
 21
6525.142542495565
 31
0
 70
   32
 71
    5
 72
    0
  3
Standard
 53
0
210
0
220
0
230
1
100
AcDbAlignedDimension
 13
3789.743701915464
 23
6340.142542495565
 33
0
 14
3789.743701915464
 24
6710.142542495565
 34
0
 50
90
100
AcDbRotatedDimension
  0
DIMENSION
  5
102
100
AcDbEntity
  8
0
  6
ByLayer
 62
  256
370
   -1
100
AcDbDimension
  2
*D3
 10
3789.743701915464
 20
6710.142542495565
 30
0
 11
3695.993701915464
 21
6895.142542495565
 31
0
 70
   32
 71
    5
 72
    0
  3
Standard
 53
0
210
0
220
0
230
1
100
AcDbAlignedDimension
 13
3821.525746726784
 23
7080.142542495565
 33
0
 14
3789.743701915464
 24
6710.142542495565
 34
0
 50
90
100
AcDbRotatedDimension
  0
LINE
  5
103
100
AcDbEntity
  8
objekte
  6
ByLayer
 62
  256
370
   -1
100
AcDbLine
 10
3474.743701915463
 20
3395.142542495569
 11
4364.743701915463
 21
3395.142542495564
  0
ARC
  5
104
100
AcDbEntity
  8
objekte
  6
ByLayer
 62
  256
370
   -1
100
AcDbCircle
 10
4364.743701915463
 20
3395.142542495564
 40
890
100
AcDbArc
 50
179.9999999999997
 51
270
  0
LINE
  5
105
100
AcDbEntity
  8
0
  6
ByLayer
 62
  256
370
   -1
100
AcDbLine
 10
4404.743701915463
 20
3775.142542495563
 11
929.7437019154634
 21
3775.142542495565
  0
LINE
  5
106
100
AcDbEntity
  8
0
  6
ByLayer
 62
  256
370
   -1
100
AcDbLine
 10
4404.743701915463
 20
0.142542495564513
 11
4404.743701915463
 21
3775.142542495563
  0
ARC
  5
107
100
AcDbEntity
  8
0
  6
ByLayer
 62
  256
370
   -1
100
AcDbCircle
 10
1141.744799070201
 20
6207.23350241471
 40
3752.090959919145
100
AcDbArc
 50
270.0000003585317
 51
319.5942621146822
  0
LINE
  5
108
100
AcDbEntity
  8
0
  6
ByLayer
 62
  256
370
   -1
100
AcDbLine
 10
289.7437019154635
 20
2395.142542495565
 11
1141.744822924581
 21
2395.142542495565
  0
LINE
  5
109
100
AcDbEntity
  8
0
  6
ByLayer
 62
  256
370
   -1
100
AcDbLine
 10
289.7437019154635
 20
2455.142542495565
 11
1141.744822549129
 21
2455.142542495565
  0
ARC
  5
10A
100
AcDbEntity
  8
0
  6
ByLayer
 62
  256
370
   -1
100
AcDbCircle
 10
1141.744799070201
 20
6207.23350241471
 40
3812.090959919145
100
AcDbArc
 50
270.0000003585317
 51
320.3576046518474
  0
LINE
  5
10B
100
AcDbEntity
  8
0
  6
ByLayer
 62
  256
370
   -1
100
AcDbLine
 10
289.7437019154635
 20
2455.142542495565
 11
289.7437019154635
 21
2395.142542495565
  0
DIMENSION
  5
10C
100
AcDbEntity
  8
0
  6
ByLayer
 62
  256
370
   -1
100
AcDbDimension
  2
*D4
 10
4732.166710988145
 20
7080.142542495565
 30
0
 11
4638.416710988145
 21
5740.142542495565
 31
0
 70
   32
 71
    5
 72
    0
  3
Standard
 53
0
210
0
220
0
230
1
100
AcDbAlignedDimension
 13
4404.743701915463
 23
4400.142542495565
 33
0
 14
4404.743701915464
 24
7080.142542495565
 34
0
 50
90
100
AcDbRotatedDimension
  0
DIMENSION
  5
10D
100
AcDbEntity
  8
0
  6
ByLayer
 62
  256
370
   -1
100
AcDbDimension
  2
*D5
 10
4035.553337289383
 20
4403.877649819763
 30
0
 11
3941.803337289383
 21
5557.010096157665
 31
0
 70
   32
 71
    5
 72
    0
  3
Standard
 53
0
210
0
220
0
230
1
100
AcDbAlignedDimension
 13
3789.743701915464
 23
6710.142542495565
 33
0
 14
3547.123270673009
 24
4403.877649819763
 34
0
 50
90
100
AcDbRotatedDimension
  0
DIMENSION
  5
10E
100
AcDbEntity
  8
0
  6
ByLayer
 62
  256
370
   -1
100
AcDbDimension
  2
*D6
 10
3603.172622579806
 20
4403.877649819763
 30
0
 11
3509.422622579806
 21
5372.010096157665
 31
0
 70
   32
 71
    5
 72
    0
  3
Standard
 53
0
210
0
220
0
230
1
100
AcDbAlignedDimension
 13
3789.743701915464
 23
6340.142542495565
 33
0
 14
3362.961114407819
 24
4403.877649819763
 34
0
 50
90
100
AcDbRotatedDimension
  0
LINE
  5
10F
100
AcDbEntity
  8
0
  6
ByLayer
 62
  256
370
   -1
100
AcDbLine
 10
2805.659122130647
 20
0.1425424955647056
 11
2805.659122130647
 21
2777.448288700656
  0
LINE
  5
110
100
AcDbEntity
  8
0
  6
ByLayer
 62
  256
370
   -1
100
AcDbLine
 10
2130.726326103502
 20
0.1425424955647857
 11
1663.158993624662
 21
2430.970174147679
  0
LINE
  5
111
100
AcDbEntity
  8
0
  6
ByLayer
 62
  256
370
   -1
100
AcDbLine
 10
3759.031687698897
 20
3435.619021771781
 11
3460.627271904303
 21
0.1425424955646262
  0
DIMENSION
  5
112
100
AcDbEntity
  8
0
  6
ByLayer
 62
  256
370
   -1
100
AcDbDimension
  2
*D7
 10
2805.659122130647
 20
-340.6546451701689
 30
0
 11
2468.192724117075
 21
-246.9046451701689
 31
0
 70
   32
 71
    5
  3
Standard
 53
0
210
0
220
0
230
1
100
AcDbAlignedDimension
 13
2130.726326103502
 23
0.1425424955647857
 33
0
 14
2805.659122130647
 24
0.1425424955647056
 34
0
100
AcDbRotatedDimension
  0
DIMENSION
  5
113
100
AcDbEntity
  8
0
  6
ByLayer
 62
  256
370
   -1
100
AcDbDimension
  2
*D8
 10
3460.627271904303
 20
-340.6546451701689
 30
0
 11
3133.143197017475
 21
-246.9046451701689
 31
0
 70
   32
 71
    5
  3
Standard
 53
0
210
0
220
0
230
1
100
AcDbAlignedDimension
 13
2805.659122130647
 23
0.1425424955647056
 33
0
 14
3460.627271904303
 24
0.1425424955646262
 34
0
100
AcDbRotatedDimension
  0
DIMENSION
  5
114
100
AcDbEntity
  8
0
  6
ByLayer
 62
  256
370
   -1
100
AcDbDimension
  2
*D9
 10
4404.743701915463
 20
-390.2044117403752
 30
0
 11
3932.685486909883
 21
-296.4544117403752
 31
0
 70
   32
 71
    5
  3
Standard
 53
0
210
0
220
0
230
1
100
AcDbAlignedDimension
 13
3460.627271904303
 23
0.1425424955646262
 33
0
 14
4404.743701915463
 24
0.142542495564513
 34
0
100
AcDbRotatedDimension
  0
DIMENSION
  5
115
100
AcDbEntity
  8
0
  6
ByLayer
 62
  256
370
   -1
100
AcDbDimension
  2
*D10
 10
2805.659122130647
 20
2430.970174147679
 30
0
 11
2234.409057877654
 21
2524.720174147679
 31
0
 70
   32
 71
    5
  3
Standard
 53
0
210
0
220
0
230
1
100
AcDbAlignedDimension
 13
1663.158993624662
 23
2430.970174147679
 33
0
 14
2805.659122130647
 24
2430.970174147679
 34
0
100
AcDbRotatedDimension
  0
DIMENSION
  5
116
100
AcDbEntity
  8
0
  6
ByLayer
 62
  256
370
   -1
100
AcDbDimension
  2
*D11
 10
3696.216269274403
 20
2777.448288700656
 30
0
 11
3250.937695702525
 21
2871.198288700656
 31
0
 70
   32
 71
    5
  3
Standard
 53
0
210
0
220
0
230
1
100
AcDbAlignedDimension
 13
2805.659122130647
 23
2777.448288700656
 33
0
 14
3696.216269274403
 24
2777.448288700656
 34
0
100
AcDbRotatedDimension
  0
DIMENSION
  5
117
100
AcDbEntity
  8
0
  6
ByLayer
 62
  256
370
   -1
100
AcDbDimension
  2
*D12
 10
4404.743701915463
 20
3395.142542495568
 30
0
 11
4080.129807622578
 21
3488.892542495568
 31
0
 70
   32
 71
    5
  3
Standard
 53
0
210
0
220
0
230
1
100
AcDbAlignedDimension
 13
3755.515913329694
 23
3395.142542495568
 33
0
 14
4404.743701915463
 24
3395.142542495568
 34
0
100
AcDbRotatedDimension
  0
DIMENSION
  5
118
100
AcDbEntity
  8
0
  6
ByLayer
 62
  256
370
   -1
100
AcDbDimension
  2
*D13
 10
1556.339586807723
 20
4400.142542495565
 30
0
 11
1462.589586807723
 21
5185.142542495565
 31
0
 70
   32
 71
    5
  3
Standard
 53
0
210
0
220
0
230
1
100
AcDbAlignedDimension
 13
1619.719931971838
 23
5970.142542495565
 33
0
 14
1739.438361726278
 24
4400.142542495565
 34
0
 50
90
100
AcDbRotatedDimension
  0
DIMENSION
  5
119
100
AcDbEntity
  8
0
  6
ByLayer
 62
  256
370
   -1
100
AcDbDimension
  2
*D14
 10
5105.638915998186
 20
8225.142542495565
 30
0
 11
5011.888915998186
 21
7652.642542495565
 31
0
 70
   32
 71
    5
  3
Standard
 53
0
210
0
220
0
230
1
100
AcDbAlignedDimension
 13
4380.286076897754
 23
7080.142542495565
 33
0
 14
4330.99025288122
 24
8225.142542495565
 34
0
 50
90
100
AcDbRotatedDimension
  0
DIMENSION
  5
11A
100
AcDbEntity
  8
0
  6
ByLayer
 62
  256
370
   -1
100
AcDbDimension
  2
*D15
 10
2246.481123039202
 20
8225.142542495565
 30
0
 11
2152.731123039202
 21
7467.642542495565
 31
0
 70
   32
 71
    5
  3
Standard
 53
0
210
0
220
0
230
1
100
AcDbAlignedDimension
 13
3070.425610172702
 23
6710.142542495565
 33
0
 14
3077.467870746493
 24
8225.142542495565
 34
0
 50
90
100
AcDbRotatedDimension
  0
ENDSEC
  0
SECTION
  2
OBJECTS
  0
DICTIONARY
  5
C
330
0
100
AcDbDictionary
281
    1
  3
ACAD_GROUP
350
D
  0
DICTIONARY
  5
D
330
C
100
AcDbDictionary
281
    1
  0
ENDSEC
  0
EOF
